<mxfile host="app.diagrams.net" agent="Mozilla/5.0 (Macintosh; Intel Mac OS X 10_15_7) AppleWebKit/537.36 (KHTML, like Gecko) Chrome/131.0.0.0 Safari/537.36" version="25.0.3">
  <diagram name="Page-1" id="L1SdQILMn_9tRfcAWVl1">
    <mxGraphModel dx="1865" dy="1182" grid="1" gridSize="10" guides="1" tooltips="1" connect="1" arrows="1" fold="1" page="1" pageScale="1" pageWidth="850" pageHeight="1100" math="0" shadow="0">
      <root>
        <mxCell id="0" />
        <mxCell id="1" parent="0" />
        <mxCell id="ktRhMoKumdL74ghE2dYu-1" value="users" style="shape=table;startSize=20;container=1;collapsible=1;childLayout=tableLayout;fixedRows=1;rowLines=0;fontStyle=1;align=center;resizeLast=1;html=1;fillColor=#d5e8d4;strokeColor=#82b366;" parent="1" vertex="1">
          <mxGeometry x="40" y="240" width="180" height="330" as="geometry">
            <mxRectangle x="340" y="330" width="70" height="30" as="alternateBounds" />
          </mxGeometry>
        </mxCell>
        <mxCell id="ktRhMoKumdL74ghE2dYu-2" value="" style="shape=tableRow;horizontal=0;startSize=0;swimlaneHead=0;swimlaneBody=0;fillColor=none;collapsible=0;dropTarget=0;points=[[0,0.5],[1,0.5]];portConstraint=eastwest;top=0;left=0;right=0;bottom=1;" parent="ktRhMoKumdL74ghE2dYu-1" vertex="1">
          <mxGeometry y="20" width="180" height="30" as="geometry" />
        </mxCell>
        <mxCell id="ktRhMoKumdL74ghE2dYu-3" value="PK" style="shape=partialRectangle;connectable=0;fillColor=none;top=0;left=0;bottom=0;right=0;fontStyle=1;overflow=hidden;whiteSpace=wrap;html=1;" parent="ktRhMoKumdL74ghE2dYu-2" vertex="1">
          <mxGeometry width="30" height="30" as="geometry">
            <mxRectangle width="30" height="30" as="alternateBounds" />
          </mxGeometry>
        </mxCell>
        <mxCell id="ktRhMoKumdL74ghE2dYu-4" value="id" style="shape=partialRectangle;connectable=0;fillColor=none;top=0;left=0;bottom=0;right=0;align=left;spacingLeft=6;fontStyle=5;overflow=hidden;whiteSpace=wrap;html=1;" parent="ktRhMoKumdL74ghE2dYu-2" vertex="1">
          <mxGeometry x="30" width="150" height="30" as="geometry">
            <mxRectangle width="150" height="30" as="alternateBounds" />
          </mxGeometry>
        </mxCell>
        <mxCell id="ktRhMoKumdL74ghE2dYu-5" value="" style="shape=tableRow;horizontal=0;startSize=0;swimlaneHead=0;swimlaneBody=0;fillColor=none;collapsible=0;dropTarget=0;points=[[0,0.5],[1,0.5]];portConstraint=eastwest;top=0;left=0;right=0;bottom=0;" parent="ktRhMoKumdL74ghE2dYu-1" vertex="1">
          <mxGeometry y="50" width="180" height="30" as="geometry" />
        </mxCell>
        <mxCell id="ktRhMoKumdL74ghE2dYu-6" value="" style="shape=partialRectangle;connectable=0;fillColor=none;top=0;left=0;bottom=0;right=0;editable=1;overflow=hidden;whiteSpace=wrap;html=1;" parent="ktRhMoKumdL74ghE2dYu-5" vertex="1">
          <mxGeometry width="30" height="30" as="geometry">
            <mxRectangle width="30" height="30" as="alternateBounds" />
          </mxGeometry>
        </mxCell>
        <mxCell id="ktRhMoKumdL74ghE2dYu-7" value="username" style="shape=partialRectangle;connectable=0;fillColor=none;top=0;left=0;bottom=0;right=0;align=left;spacingLeft=6;overflow=hidden;whiteSpace=wrap;html=1;" parent="ktRhMoKumdL74ghE2dYu-5" vertex="1">
          <mxGeometry x="30" width="150" height="30" as="geometry">
            <mxRectangle width="150" height="30" as="alternateBounds" />
          </mxGeometry>
        </mxCell>
        <mxCell id="ktRhMoKumdL74ghE2dYu-8" value="" style="shape=tableRow;horizontal=0;startSize=0;swimlaneHead=0;swimlaneBody=0;fillColor=none;collapsible=0;dropTarget=0;points=[[0,0.5],[1,0.5]];portConstraint=eastwest;top=0;left=0;right=0;bottom=0;" parent="ktRhMoKumdL74ghE2dYu-1" vertex="1">
          <mxGeometry y="80" width="180" height="30" as="geometry" />
        </mxCell>
        <mxCell id="ktRhMoKumdL74ghE2dYu-9" value="" style="shape=partialRectangle;connectable=0;fillColor=none;top=0;left=0;bottom=0;right=0;editable=1;overflow=hidden;whiteSpace=wrap;html=1;" parent="ktRhMoKumdL74ghE2dYu-8" vertex="1">
          <mxGeometry width="30" height="30" as="geometry">
            <mxRectangle width="30" height="30" as="alternateBounds" />
          </mxGeometry>
        </mxCell>
        <mxCell id="ktRhMoKumdL74ghE2dYu-10" value="first_name" style="shape=partialRectangle;connectable=0;fillColor=none;top=0;left=0;bottom=0;right=0;align=left;spacingLeft=6;overflow=hidden;whiteSpace=wrap;html=1;" parent="ktRhMoKumdL74ghE2dYu-8" vertex="1">
          <mxGeometry x="30" width="150" height="30" as="geometry">
            <mxRectangle width="150" height="30" as="alternateBounds" />
          </mxGeometry>
        </mxCell>
        <mxCell id="ktRhMoKumdL74ghE2dYu-11" value="" style="shape=tableRow;horizontal=0;startSize=0;swimlaneHead=0;swimlaneBody=0;fillColor=none;collapsible=0;dropTarget=0;points=[[0,0.5],[1,0.5]];portConstraint=eastwest;top=0;left=0;right=0;bottom=0;" parent="ktRhMoKumdL74ghE2dYu-1" vertex="1">
          <mxGeometry y="110" width="180" height="30" as="geometry" />
        </mxCell>
        <mxCell id="ktRhMoKumdL74ghE2dYu-12" value="" style="shape=partialRectangle;connectable=0;fillColor=none;top=0;left=0;bottom=0;right=0;editable=1;overflow=hidden;whiteSpace=wrap;html=1;" parent="ktRhMoKumdL74ghE2dYu-11" vertex="1">
          <mxGeometry width="30" height="30" as="geometry">
            <mxRectangle width="30" height="30" as="alternateBounds" />
          </mxGeometry>
        </mxCell>
        <mxCell id="ktRhMoKumdL74ghE2dYu-13" value="last_name" style="shape=partialRectangle;connectable=0;fillColor=none;top=0;left=0;bottom=0;right=0;align=left;spacingLeft=6;overflow=hidden;whiteSpace=wrap;html=1;" parent="ktRhMoKumdL74ghE2dYu-11" vertex="1">
          <mxGeometry x="30" width="150" height="30" as="geometry">
            <mxRectangle width="150" height="30" as="alternateBounds" />
          </mxGeometry>
        </mxCell>
        <mxCell id="ktRhMoKumdL74ghE2dYu-18" value="" style="shape=tableRow;horizontal=0;startSize=0;swimlaneHead=0;swimlaneBody=0;fillColor=none;collapsible=0;dropTarget=0;points=[[0,0.5],[1,0.5]];portConstraint=eastwest;top=0;left=0;right=0;bottom=0;" parent="ktRhMoKumdL74ghE2dYu-1" vertex="1">
          <mxGeometry y="140" width="180" height="30" as="geometry" />
        </mxCell>
        <mxCell id="ktRhMoKumdL74ghE2dYu-19" value="" style="shape=partialRectangle;connectable=0;fillColor=none;top=0;left=0;bottom=0;right=0;editable=1;overflow=hidden;" parent="ktRhMoKumdL74ghE2dYu-18" vertex="1">
          <mxGeometry width="30" height="30" as="geometry">
            <mxRectangle width="30" height="30" as="alternateBounds" />
          </mxGeometry>
        </mxCell>
        <mxCell id="ktRhMoKumdL74ghE2dYu-20" value="birthday" style="shape=partialRectangle;connectable=0;fillColor=none;top=0;left=0;bottom=0;right=0;align=left;spacingLeft=6;overflow=hidden;" parent="ktRhMoKumdL74ghE2dYu-18" vertex="1">
          <mxGeometry x="30" width="150" height="30" as="geometry">
            <mxRectangle width="150" height="30" as="alternateBounds" />
          </mxGeometry>
        </mxCell>
        <mxCell id="ktRhMoKumdL74ghE2dYu-24" value="" style="shape=tableRow;horizontal=0;startSize=0;swimlaneHead=0;swimlaneBody=0;fillColor=none;collapsible=0;dropTarget=0;points=[[0,0.5],[1,0.5]];portConstraint=eastwest;top=0;left=0;right=0;bottom=0;" parent="ktRhMoKumdL74ghE2dYu-1" vertex="1">
          <mxGeometry y="170" width="180" height="30" as="geometry" />
        </mxCell>
        <mxCell id="ktRhMoKumdL74ghE2dYu-25" value="" style="shape=partialRectangle;connectable=0;fillColor=none;top=0;left=0;bottom=0;right=0;editable=1;overflow=hidden;" parent="ktRhMoKumdL74ghE2dYu-24" vertex="1">
          <mxGeometry width="30" height="30" as="geometry">
            <mxRectangle width="30" height="30" as="alternateBounds" />
          </mxGeometry>
        </mxCell>
        <mxCell id="ktRhMoKumdL74ghE2dYu-26" value="phone_number" style="shape=partialRectangle;connectable=0;fillColor=none;top=0;left=0;bottom=0;right=0;align=left;spacingLeft=6;overflow=hidden;" parent="ktRhMoKumdL74ghE2dYu-24" vertex="1">
          <mxGeometry x="30" width="150" height="30" as="geometry">
            <mxRectangle width="150" height="30" as="alternateBounds" />
          </mxGeometry>
        </mxCell>
        <mxCell id="ktRhMoKumdL74ghE2dYu-27" value="" style="shape=tableRow;horizontal=0;startSize=0;swimlaneHead=0;swimlaneBody=0;fillColor=none;collapsible=0;dropTarget=0;points=[[0,0.5],[1,0.5]];portConstraint=eastwest;top=0;left=0;right=0;bottom=0;" parent="ktRhMoKumdL74ghE2dYu-1" vertex="1">
          <mxGeometry y="200" width="180" height="30" as="geometry" />
        </mxCell>
        <mxCell id="ktRhMoKumdL74ghE2dYu-28" value="" style="shape=partialRectangle;connectable=0;fillColor=none;top=0;left=0;bottom=0;right=0;editable=1;overflow=hidden;" parent="ktRhMoKumdL74ghE2dYu-27" vertex="1">
          <mxGeometry width="30" height="30" as="geometry">
            <mxRectangle width="30" height="30" as="alternateBounds" />
          </mxGeometry>
        </mxCell>
        <mxCell id="ktRhMoKumdL74ghE2dYu-29" value="email" style="shape=partialRectangle;connectable=0;fillColor=none;top=0;left=0;bottom=0;right=0;align=left;spacingLeft=6;overflow=hidden;" parent="ktRhMoKumdL74ghE2dYu-27" vertex="1">
          <mxGeometry x="30" width="150" height="30" as="geometry">
            <mxRectangle width="150" height="30" as="alternateBounds" />
          </mxGeometry>
        </mxCell>
        <mxCell id="ktRhMoKumdL74ghE2dYu-21" value="" style="shape=tableRow;horizontal=0;startSize=0;swimlaneHead=0;swimlaneBody=0;fillColor=none;collapsible=0;dropTarget=0;points=[[0,0.5],[1,0.5]];portConstraint=eastwest;top=0;left=0;right=0;bottom=0;" parent="ktRhMoKumdL74ghE2dYu-1" vertex="1">
          <mxGeometry y="230" width="180" height="30" as="geometry" />
        </mxCell>
        <mxCell id="ktRhMoKumdL74ghE2dYu-22" value="" style="shape=partialRectangle;connectable=0;fillColor=none;top=0;left=0;bottom=0;right=0;editable=1;overflow=hidden;" parent="ktRhMoKumdL74ghE2dYu-21" vertex="1">
          <mxGeometry width="30" height="30" as="geometry">
            <mxRectangle width="30" height="30" as="alternateBounds" />
          </mxGeometry>
        </mxCell>
        <mxCell id="ktRhMoKumdL74ghE2dYu-23" value="address" style="shape=partialRectangle;connectable=0;fillColor=none;top=0;left=0;bottom=0;right=0;align=left;spacingLeft=6;overflow=hidden;" parent="ktRhMoKumdL74ghE2dYu-21" vertex="1">
          <mxGeometry x="30" width="150" height="30" as="geometry">
            <mxRectangle width="150" height="30" as="alternateBounds" />
          </mxGeometry>
        </mxCell>
        <mxCell id="ktRhMoKumdL74ghE2dYu-33" value="" style="shape=tableRow;horizontal=0;startSize=0;swimlaneHead=0;swimlaneBody=0;fillColor=none;collapsible=0;dropTarget=0;points=[[0,0.5],[1,0.5]];portConstraint=eastwest;top=0;left=0;right=0;bottom=0;" parent="ktRhMoKumdL74ghE2dYu-1" vertex="1">
          <mxGeometry y="260" width="180" height="30" as="geometry" />
        </mxCell>
        <mxCell id="ktRhMoKumdL74ghE2dYu-34" value="" style="shape=partialRectangle;connectable=0;fillColor=none;top=0;left=0;bottom=0;right=0;editable=1;overflow=hidden;" parent="ktRhMoKumdL74ghE2dYu-33" vertex="1">
          <mxGeometry width="30" height="30" as="geometry">
            <mxRectangle width="30" height="30" as="alternateBounds" />
          </mxGeometry>
        </mxCell>
        <mxCell id="ktRhMoKumdL74ghE2dYu-35" value="create_at" style="shape=partialRectangle;connectable=0;fillColor=none;top=0;left=0;bottom=0;right=0;align=left;spacingLeft=6;overflow=hidden;" parent="ktRhMoKumdL74ghE2dYu-33" vertex="1">
          <mxGeometry x="30" width="150" height="30" as="geometry">
            <mxRectangle width="150" height="30" as="alternateBounds" />
          </mxGeometry>
        </mxCell>
        <mxCell id="ktRhMoKumdL74ghE2dYu-30" value="" style="shape=tableRow;horizontal=0;startSize=0;swimlaneHead=0;swimlaneBody=0;fillColor=none;collapsible=0;dropTarget=0;points=[[0,0.5],[1,0.5]];portConstraint=eastwest;top=0;left=0;right=0;bottom=0;" parent="ktRhMoKumdL74ghE2dYu-1" vertex="1">
          <mxGeometry y="290" width="180" height="30" as="geometry" />
        </mxCell>
        <mxCell id="ktRhMoKumdL74ghE2dYu-31" value="" style="shape=partialRectangle;connectable=0;fillColor=none;top=0;left=0;bottom=0;right=0;editable=1;overflow=hidden;" parent="ktRhMoKumdL74ghE2dYu-30" vertex="1">
          <mxGeometry width="30" height="30" as="geometry">
            <mxRectangle width="30" height="30" as="alternateBounds" />
          </mxGeometry>
        </mxCell>
        <mxCell id="ktRhMoKumdL74ghE2dYu-32" value="update_at " style="shape=partialRectangle;connectable=0;fillColor=none;top=0;left=0;bottom=0;right=0;align=left;spacingLeft=6;overflow=hidden;" parent="ktRhMoKumdL74ghE2dYu-30" vertex="1">
          <mxGeometry x="30" width="150" height="30" as="geometry">
            <mxRectangle width="150" height="30" as="alternateBounds" />
          </mxGeometry>
        </mxCell>
        <mxCell id="ktRhMoKumdL74ghE2dYu-49" value="customers" style="shape=table;startSize=30;container=1;collapsible=1;childLayout=tableLayout;fixedRows=1;rowLines=0;fontStyle=1;align=center;resizeLast=1;html=1;fillColor=#d5e8d4;strokeColor=#82b366;" parent="1" vertex="1">
          <mxGeometry x="440" y="230" width="180" height="210" as="geometry" />
        </mxCell>
        <mxCell id="ktRhMoKumdL74ghE2dYu-50" value="" style="shape=tableRow;horizontal=0;startSize=0;swimlaneHead=0;swimlaneBody=0;fillColor=none;collapsible=0;dropTarget=0;points=[[0,0.5],[1,0.5]];portConstraint=eastwest;top=0;left=0;right=0;bottom=1;" parent="ktRhMoKumdL74ghE2dYu-49" vertex="1">
          <mxGeometry y="30" width="180" height="30" as="geometry" />
        </mxCell>
        <mxCell id="ktRhMoKumdL74ghE2dYu-51" value="PK" style="shape=partialRectangle;connectable=0;fillColor=none;top=0;left=0;bottom=0;right=0;fontStyle=1;overflow=hidden;whiteSpace=wrap;html=1;" parent="ktRhMoKumdL74ghE2dYu-50" vertex="1">
          <mxGeometry width="30" height="30" as="geometry">
            <mxRectangle width="30" height="30" as="alternateBounds" />
          </mxGeometry>
        </mxCell>
        <mxCell id="ktRhMoKumdL74ghE2dYu-52" value="id" style="shape=partialRectangle;connectable=0;fillColor=none;top=0;left=0;bottom=0;right=0;align=left;spacingLeft=6;fontStyle=5;overflow=hidden;whiteSpace=wrap;html=1;" parent="ktRhMoKumdL74ghE2dYu-50" vertex="1">
          <mxGeometry x="30" width="150" height="30" as="geometry">
            <mxRectangle width="150" height="30" as="alternateBounds" />
          </mxGeometry>
        </mxCell>
        <mxCell id="ktRhMoKumdL74ghE2dYu-232" value="" style="shape=tableRow;horizontal=0;startSize=0;swimlaneHead=0;swimlaneBody=0;fillColor=none;collapsible=0;dropTarget=0;points=[[0,0.5],[1,0.5]];portConstraint=eastwest;top=0;left=0;right=0;bottom=0;" parent="ktRhMoKumdL74ghE2dYu-49" vertex="1">
          <mxGeometry y="60" width="180" height="30" as="geometry" />
        </mxCell>
        <mxCell id="ktRhMoKumdL74ghE2dYu-233" value="FK" style="shape=partialRectangle;connectable=0;fillColor=none;top=0;left=0;bottom=0;right=0;editable=1;overflow=hidden;" parent="ktRhMoKumdL74ghE2dYu-232" vertex="1">
          <mxGeometry width="30" height="30" as="geometry">
            <mxRectangle width="30" height="30" as="alternateBounds" />
          </mxGeometry>
        </mxCell>
        <mxCell id="ktRhMoKumdL74ghE2dYu-234" value="user_id" style="shape=partialRectangle;connectable=0;fillColor=none;top=0;left=0;bottom=0;right=0;align=left;spacingLeft=6;overflow=hidden;" parent="ktRhMoKumdL74ghE2dYu-232" vertex="1">
          <mxGeometry x="30" width="150" height="30" as="geometry">
            <mxRectangle width="150" height="30" as="alternateBounds" />
          </mxGeometry>
        </mxCell>
        <mxCell id="ktRhMoKumdL74ghE2dYu-53" value="" style="shape=tableRow;horizontal=0;startSize=0;swimlaneHead=0;swimlaneBody=0;fillColor=none;collapsible=0;dropTarget=0;points=[[0,0.5],[1,0.5]];portConstraint=eastwest;top=0;left=0;right=0;bottom=0;" parent="ktRhMoKumdL74ghE2dYu-49" vertex="1">
          <mxGeometry y="90" width="180" height="30" as="geometry" />
        </mxCell>
        <mxCell id="ktRhMoKumdL74ghE2dYu-54" value="" style="shape=partialRectangle;connectable=0;fillColor=none;top=0;left=0;bottom=0;right=0;editable=1;overflow=hidden;whiteSpace=wrap;html=1;" parent="ktRhMoKumdL74ghE2dYu-53" vertex="1">
          <mxGeometry width="30" height="30" as="geometry">
            <mxRectangle width="30" height="30" as="alternateBounds" />
          </mxGeometry>
        </mxCell>
        <mxCell id="ktRhMoKumdL74ghE2dYu-55" value="customer_id" style="shape=partialRectangle;connectable=0;fillColor=none;top=0;left=0;bottom=0;right=0;align=left;spacingLeft=6;overflow=hidden;whiteSpace=wrap;html=1;" parent="ktRhMoKumdL74ghE2dYu-53" vertex="1">
          <mxGeometry x="30" width="150" height="30" as="geometry">
            <mxRectangle width="150" height="30" as="alternateBounds" />
          </mxGeometry>
        </mxCell>
        <mxCell id="ktRhMoKumdL74ghE2dYu-78" value="" style="shape=tableRow;horizontal=0;startSize=0;swimlaneHead=0;swimlaneBody=0;fillColor=none;collapsible=0;dropTarget=0;points=[[0,0.5],[1,0.5]];portConstraint=eastwest;top=0;left=0;right=0;bottom=0;" parent="ktRhMoKumdL74ghE2dYu-49" vertex="1">
          <mxGeometry y="120" width="180" height="30" as="geometry" />
        </mxCell>
        <mxCell id="ktRhMoKumdL74ghE2dYu-79" value="" style="shape=partialRectangle;connectable=0;fillColor=none;top=0;left=0;bottom=0;right=0;editable=1;overflow=hidden;" parent="ktRhMoKumdL74ghE2dYu-78" vertex="1">
          <mxGeometry width="30" height="30" as="geometry">
            <mxRectangle width="30" height="30" as="alternateBounds" />
          </mxGeometry>
        </mxCell>
        <mxCell id="ktRhMoKumdL74ghE2dYu-80" value="type" style="shape=partialRectangle;connectable=0;fillColor=none;top=0;left=0;bottom=0;right=0;align=left;spacingLeft=6;overflow=hidden;" parent="ktRhMoKumdL74ghE2dYu-78" vertex="1">
          <mxGeometry x="30" width="150" height="30" as="geometry">
            <mxRectangle width="150" height="30" as="alternateBounds" />
          </mxGeometry>
        </mxCell>
        <mxCell id="ktRhMoKumdL74ghE2dYu-56" value="" style="shape=tableRow;horizontal=0;startSize=0;swimlaneHead=0;swimlaneBody=0;fillColor=none;collapsible=0;dropTarget=0;points=[[0,0.5],[1,0.5]];portConstraint=eastwest;top=0;left=0;right=0;bottom=0;" parent="ktRhMoKumdL74ghE2dYu-49" vertex="1">
          <mxGeometry y="150" width="180" height="30" as="geometry" />
        </mxCell>
        <mxCell id="ktRhMoKumdL74ghE2dYu-57" value="" style="shape=partialRectangle;connectable=0;fillColor=none;top=0;left=0;bottom=0;right=0;editable=1;overflow=hidden;whiteSpace=wrap;html=1;" parent="ktRhMoKumdL74ghE2dYu-56" vertex="1">
          <mxGeometry width="30" height="30" as="geometry">
            <mxRectangle width="30" height="30" as="alternateBounds" />
          </mxGeometry>
        </mxCell>
        <mxCell id="ktRhMoKumdL74ghE2dYu-58" value="create_at" style="shape=partialRectangle;connectable=0;fillColor=none;top=0;left=0;bottom=0;right=0;align=left;spacingLeft=6;overflow=hidden;whiteSpace=wrap;html=1;" parent="ktRhMoKumdL74ghE2dYu-56" vertex="1">
          <mxGeometry x="30" width="150" height="30" as="geometry">
            <mxRectangle width="150" height="30" as="alternateBounds" />
          </mxGeometry>
        </mxCell>
        <mxCell id="ktRhMoKumdL74ghE2dYu-59" value="" style="shape=tableRow;horizontal=0;startSize=0;swimlaneHead=0;swimlaneBody=0;fillColor=none;collapsible=0;dropTarget=0;points=[[0,0.5],[1,0.5]];portConstraint=eastwest;top=0;left=0;right=0;bottom=0;" parent="ktRhMoKumdL74ghE2dYu-49" vertex="1">
          <mxGeometry y="180" width="180" height="30" as="geometry" />
        </mxCell>
        <mxCell id="ktRhMoKumdL74ghE2dYu-60" value="" style="shape=partialRectangle;connectable=0;fillColor=none;top=0;left=0;bottom=0;right=0;editable=1;overflow=hidden;whiteSpace=wrap;html=1;" parent="ktRhMoKumdL74ghE2dYu-59" vertex="1">
          <mxGeometry width="30" height="30" as="geometry">
            <mxRectangle width="30" height="30" as="alternateBounds" />
          </mxGeometry>
        </mxCell>
        <mxCell id="ktRhMoKumdL74ghE2dYu-61" value="update_at" style="shape=partialRectangle;connectable=0;fillColor=none;top=0;left=0;bottom=0;right=0;align=left;spacingLeft=6;overflow=hidden;whiteSpace=wrap;html=1;" parent="ktRhMoKumdL74ghE2dYu-59" vertex="1">
          <mxGeometry x="30" width="150" height="30" as="geometry">
            <mxRectangle width="150" height="30" as="alternateBounds" />
          </mxGeometry>
        </mxCell>
        <mxCell id="ktRhMoKumdL74ghE2dYu-62" value="employees" style="shape=table;startSize=30;container=1;collapsible=1;childLayout=tableLayout;fixedRows=1;rowLines=0;fontStyle=1;align=center;resizeLast=1;html=1;fillColor=#d5e8d4;strokeColor=#82b366;" parent="1" vertex="1">
          <mxGeometry x="440" y="480" width="180" height="210" as="geometry" />
        </mxCell>
        <mxCell id="ktRhMoKumdL74ghE2dYu-63" value="" style="shape=tableRow;horizontal=0;startSize=0;swimlaneHead=0;swimlaneBody=0;fillColor=none;collapsible=0;dropTarget=0;points=[[0,0.5],[1,0.5]];portConstraint=eastwest;top=0;left=0;right=0;bottom=1;" parent="ktRhMoKumdL74ghE2dYu-62" vertex="1">
          <mxGeometry y="30" width="180" height="30" as="geometry" />
        </mxCell>
        <mxCell id="ktRhMoKumdL74ghE2dYu-64" value="PK" style="shape=partialRectangle;connectable=0;fillColor=none;top=0;left=0;bottom=0;right=0;fontStyle=1;overflow=hidden;whiteSpace=wrap;html=1;" parent="ktRhMoKumdL74ghE2dYu-63" vertex="1">
          <mxGeometry width="30" height="30" as="geometry">
            <mxRectangle width="30" height="30" as="alternateBounds" />
          </mxGeometry>
        </mxCell>
        <mxCell id="ktRhMoKumdL74ghE2dYu-65" value="id" style="shape=partialRectangle;connectable=0;fillColor=none;top=0;left=0;bottom=0;right=0;align=left;spacingLeft=6;fontStyle=5;overflow=hidden;whiteSpace=wrap;html=1;" parent="ktRhMoKumdL74ghE2dYu-63" vertex="1">
          <mxGeometry x="30" width="150" height="30" as="geometry">
            <mxRectangle width="150" height="30" as="alternateBounds" />
          </mxGeometry>
        </mxCell>
        <mxCell id="ktRhMoKumdL74ghE2dYu-235" value="" style="shape=tableRow;horizontal=0;startSize=0;swimlaneHead=0;swimlaneBody=0;fillColor=none;collapsible=0;dropTarget=0;points=[[0,0.5],[1,0.5]];portConstraint=eastwest;top=0;left=0;right=0;bottom=0;" parent="ktRhMoKumdL74ghE2dYu-62" vertex="1">
          <mxGeometry y="60" width="180" height="30" as="geometry" />
        </mxCell>
        <mxCell id="ktRhMoKumdL74ghE2dYu-236" value="FK" style="shape=partialRectangle;connectable=0;fillColor=none;top=0;left=0;bottom=0;right=0;editable=1;overflow=hidden;" parent="ktRhMoKumdL74ghE2dYu-235" vertex="1">
          <mxGeometry width="30" height="30" as="geometry">
            <mxRectangle width="30" height="30" as="alternateBounds" />
          </mxGeometry>
        </mxCell>
        <mxCell id="ktRhMoKumdL74ghE2dYu-237" value="user_id" style="shape=partialRectangle;connectable=0;fillColor=none;top=0;left=0;bottom=0;right=0;align=left;spacingLeft=6;overflow=hidden;" parent="ktRhMoKumdL74ghE2dYu-235" vertex="1">
          <mxGeometry x="30" width="150" height="30" as="geometry">
            <mxRectangle width="150" height="30" as="alternateBounds" />
          </mxGeometry>
        </mxCell>
        <mxCell id="ktRhMoKumdL74ghE2dYu-75" value="" style="shape=tableRow;horizontal=0;startSize=0;swimlaneHead=0;swimlaneBody=0;fillColor=none;collapsible=0;dropTarget=0;points=[[0,0.5],[1,0.5]];portConstraint=eastwest;top=0;left=0;right=0;bottom=0;" parent="ktRhMoKumdL74ghE2dYu-62" vertex="1">
          <mxGeometry y="90" width="180" height="30" as="geometry" />
        </mxCell>
        <mxCell id="ktRhMoKumdL74ghE2dYu-76" value="" style="shape=partialRectangle;connectable=0;fillColor=none;top=0;left=0;bottom=0;right=0;editable=1;overflow=hidden;" parent="ktRhMoKumdL74ghE2dYu-75" vertex="1">
          <mxGeometry width="30" height="30" as="geometry">
            <mxRectangle width="30" height="30" as="alternateBounds" />
          </mxGeometry>
        </mxCell>
        <mxCell id="ktRhMoKumdL74ghE2dYu-77" value="employee_id" style="shape=partialRectangle;connectable=0;fillColor=none;top=0;left=0;bottom=0;right=0;align=left;spacingLeft=6;overflow=hidden;" parent="ktRhMoKumdL74ghE2dYu-75" vertex="1">
          <mxGeometry x="30" width="150" height="30" as="geometry">
            <mxRectangle width="150" height="30" as="alternateBounds" />
          </mxGeometry>
        </mxCell>
        <mxCell id="ktRhMoKumdL74ghE2dYu-66" value="" style="shape=tableRow;horizontal=0;startSize=0;swimlaneHead=0;swimlaneBody=0;fillColor=none;collapsible=0;dropTarget=0;points=[[0,0.5],[1,0.5]];portConstraint=eastwest;top=0;left=0;right=0;bottom=0;" parent="ktRhMoKumdL74ghE2dYu-62" vertex="1">
          <mxGeometry y="120" width="180" height="30" as="geometry" />
        </mxCell>
        <mxCell id="ktRhMoKumdL74ghE2dYu-67" value="" style="shape=partialRectangle;connectable=0;fillColor=none;top=0;left=0;bottom=0;right=0;editable=1;overflow=hidden;whiteSpace=wrap;html=1;" parent="ktRhMoKumdL74ghE2dYu-66" vertex="1">
          <mxGeometry width="30" height="30" as="geometry">
            <mxRectangle width="30" height="30" as="alternateBounds" />
          </mxGeometry>
        </mxCell>
        <mxCell id="ktRhMoKumdL74ghE2dYu-68" value="job_title" style="shape=partialRectangle;connectable=0;fillColor=none;top=0;left=0;bottom=0;right=0;align=left;spacingLeft=6;overflow=hidden;whiteSpace=wrap;html=1;" parent="ktRhMoKumdL74ghE2dYu-66" vertex="1">
          <mxGeometry x="30" width="150" height="30" as="geometry">
            <mxRectangle width="150" height="30" as="alternateBounds" />
          </mxGeometry>
        </mxCell>
        <mxCell id="ktRhMoKumdL74ghE2dYu-69" value="" style="shape=tableRow;horizontal=0;startSize=0;swimlaneHead=0;swimlaneBody=0;fillColor=none;collapsible=0;dropTarget=0;points=[[0,0.5],[1,0.5]];portConstraint=eastwest;top=0;left=0;right=0;bottom=0;" parent="ktRhMoKumdL74ghE2dYu-62" vertex="1">
          <mxGeometry y="150" width="180" height="30" as="geometry" />
        </mxCell>
        <mxCell id="ktRhMoKumdL74ghE2dYu-70" value="" style="shape=partialRectangle;connectable=0;fillColor=none;top=0;left=0;bottom=0;right=0;editable=1;overflow=hidden;whiteSpace=wrap;html=1;" parent="ktRhMoKumdL74ghE2dYu-69" vertex="1">
          <mxGeometry width="30" height="30" as="geometry">
            <mxRectangle width="30" height="30" as="alternateBounds" />
          </mxGeometry>
        </mxCell>
        <mxCell id="ktRhMoKumdL74ghE2dYu-71" value="create_at" style="shape=partialRectangle;connectable=0;fillColor=none;top=0;left=0;bottom=0;right=0;align=left;spacingLeft=6;overflow=hidden;whiteSpace=wrap;html=1;" parent="ktRhMoKumdL74ghE2dYu-69" vertex="1">
          <mxGeometry x="30" width="150" height="30" as="geometry">
            <mxRectangle width="150" height="30" as="alternateBounds" />
          </mxGeometry>
        </mxCell>
        <mxCell id="ktRhMoKumdL74ghE2dYu-72" value="" style="shape=tableRow;horizontal=0;startSize=0;swimlaneHead=0;swimlaneBody=0;fillColor=none;collapsible=0;dropTarget=0;points=[[0,0.5],[1,0.5]];portConstraint=eastwest;top=0;left=0;right=0;bottom=0;" parent="ktRhMoKumdL74ghE2dYu-62" vertex="1">
          <mxGeometry y="180" width="180" height="30" as="geometry" />
        </mxCell>
        <mxCell id="ktRhMoKumdL74ghE2dYu-73" value="" style="shape=partialRectangle;connectable=0;fillColor=none;top=0;left=0;bottom=0;right=0;editable=1;overflow=hidden;whiteSpace=wrap;html=1;" parent="ktRhMoKumdL74ghE2dYu-72" vertex="1">
          <mxGeometry width="30" height="30" as="geometry">
            <mxRectangle width="30" height="30" as="alternateBounds" />
          </mxGeometry>
        </mxCell>
        <mxCell id="ktRhMoKumdL74ghE2dYu-74" value="update_at" style="shape=partialRectangle;connectable=0;fillColor=none;top=0;left=0;bottom=0;right=0;align=left;spacingLeft=6;overflow=hidden;whiteSpace=wrap;html=1;" parent="ktRhMoKumdL74ghE2dYu-72" vertex="1">
          <mxGeometry x="30" width="150" height="30" as="geometry">
            <mxRectangle width="150" height="30" as="alternateBounds" />
          </mxGeometry>
        </mxCell>
        <mxCell id="ktRhMoKumdL74ghE2dYu-81" value="accounts" style="shape=table;startSize=30;container=1;collapsible=1;childLayout=tableLayout;fixedRows=1;rowLines=0;fontStyle=1;align=center;resizeLast=1;html=1;fillColor=#d5e8d4;strokeColor=#82b366;" parent="1" vertex="1">
          <mxGeometry x="1000" y="230" width="180" height="330" as="geometry" />
        </mxCell>
        <mxCell id="ktRhMoKumdL74ghE2dYu-82" value="" style="shape=tableRow;horizontal=0;startSize=0;swimlaneHead=0;swimlaneBody=0;fillColor=none;collapsible=0;dropTarget=0;points=[[0,0.5],[1,0.5]];portConstraint=eastwest;top=0;left=0;right=0;bottom=1;" parent="ktRhMoKumdL74ghE2dYu-81" vertex="1">
          <mxGeometry y="30" width="180" height="30" as="geometry" />
        </mxCell>
        <mxCell id="ktRhMoKumdL74ghE2dYu-83" value="PK" style="shape=partialRectangle;connectable=0;fillColor=none;top=0;left=0;bottom=0;right=0;fontStyle=1;overflow=hidden;whiteSpace=wrap;html=1;" parent="ktRhMoKumdL74ghE2dYu-82" vertex="1">
          <mxGeometry width="30" height="30" as="geometry">
            <mxRectangle width="30" height="30" as="alternateBounds" />
          </mxGeometry>
        </mxCell>
        <mxCell id="ktRhMoKumdL74ghE2dYu-84" value="id" style="shape=partialRectangle;connectable=0;fillColor=none;top=0;left=0;bottom=0;right=0;align=left;spacingLeft=6;fontStyle=5;overflow=hidden;whiteSpace=wrap;html=1;" parent="ktRhMoKumdL74ghE2dYu-82" vertex="1">
          <mxGeometry x="30" width="150" height="30" as="geometry">
            <mxRectangle width="150" height="30" as="alternateBounds" />
          </mxGeometry>
        </mxCell>
        <mxCell id="ktRhMoKumdL74ghE2dYu-243" value="" style="shape=tableRow;horizontal=0;startSize=0;swimlaneHead=0;swimlaneBody=0;fillColor=none;collapsible=0;dropTarget=0;points=[[0,0.5],[1,0.5]];portConstraint=eastwest;top=0;left=0;right=0;bottom=0;" parent="ktRhMoKumdL74ghE2dYu-81" vertex="1">
          <mxGeometry y="60" width="180" height="30" as="geometry" />
        </mxCell>
        <mxCell id="ktRhMoKumdL74ghE2dYu-244" value="FK" style="shape=partialRectangle;connectable=0;fillColor=none;top=0;left=0;bottom=0;right=0;editable=1;overflow=hidden;" parent="ktRhMoKumdL74ghE2dYu-243" vertex="1">
          <mxGeometry width="30" height="30" as="geometry">
            <mxRectangle width="30" height="30" as="alternateBounds" />
          </mxGeometry>
        </mxCell>
        <mxCell id="ktRhMoKumdL74ghE2dYu-245" value="customer_id" style="shape=partialRectangle;connectable=0;fillColor=none;top=0;left=0;bottom=0;right=0;align=left;spacingLeft=6;overflow=hidden;" parent="ktRhMoKumdL74ghE2dYu-243" vertex="1">
          <mxGeometry x="30" width="150" height="30" as="geometry">
            <mxRectangle width="150" height="30" as="alternateBounds" />
          </mxGeometry>
        </mxCell>
        <mxCell id="ktRhMoKumdL74ghE2dYu-85" value="" style="shape=tableRow;horizontal=0;startSize=0;swimlaneHead=0;swimlaneBody=0;fillColor=none;collapsible=0;dropTarget=0;points=[[0,0.5],[1,0.5]];portConstraint=eastwest;top=0;left=0;right=0;bottom=0;" parent="ktRhMoKumdL74ghE2dYu-81" vertex="1">
          <mxGeometry y="90" width="180" height="30" as="geometry" />
        </mxCell>
        <mxCell id="ktRhMoKumdL74ghE2dYu-86" value="" style="shape=partialRectangle;connectable=0;fillColor=none;top=0;left=0;bottom=0;right=0;editable=1;overflow=hidden;whiteSpace=wrap;html=1;" parent="ktRhMoKumdL74ghE2dYu-85" vertex="1">
          <mxGeometry width="30" height="30" as="geometry">
            <mxRectangle width="30" height="30" as="alternateBounds" />
          </mxGeometry>
        </mxCell>
        <mxCell id="ktRhMoKumdL74ghE2dYu-87" value="account_id" style="shape=partialRectangle;connectable=0;fillColor=none;top=0;left=0;bottom=0;right=0;align=left;spacingLeft=6;overflow=hidden;whiteSpace=wrap;html=1;" parent="ktRhMoKumdL74ghE2dYu-85" vertex="1">
          <mxGeometry x="30" width="150" height="30" as="geometry">
            <mxRectangle width="150" height="30" as="alternateBounds" />
          </mxGeometry>
        </mxCell>
        <mxCell id="ktRhMoKumdL74ghE2dYu-88" value="" style="shape=tableRow;horizontal=0;startSize=0;swimlaneHead=0;swimlaneBody=0;fillColor=none;collapsible=0;dropTarget=0;points=[[0,0.5],[1,0.5]];portConstraint=eastwest;top=0;left=0;right=0;bottom=0;" parent="ktRhMoKumdL74ghE2dYu-81" vertex="1">
          <mxGeometry y="120" width="180" height="30" as="geometry" />
        </mxCell>
        <mxCell id="ktRhMoKumdL74ghE2dYu-89" value="" style="shape=partialRectangle;connectable=0;fillColor=none;top=0;left=0;bottom=0;right=0;editable=1;overflow=hidden;whiteSpace=wrap;html=1;" parent="ktRhMoKumdL74ghE2dYu-88" vertex="1">
          <mxGeometry width="30" height="30" as="geometry">
            <mxRectangle width="30" height="30" as="alternateBounds" />
          </mxGeometry>
        </mxCell>
        <mxCell id="ktRhMoKumdL74ghE2dYu-90" value="type" style="shape=partialRectangle;connectable=0;fillColor=none;top=0;left=0;bottom=0;right=0;align=left;spacingLeft=6;overflow=hidden;whiteSpace=wrap;html=1;" parent="ktRhMoKumdL74ghE2dYu-88" vertex="1">
          <mxGeometry x="30" width="150" height="30" as="geometry">
            <mxRectangle width="150" height="30" as="alternateBounds" />
          </mxGeometry>
        </mxCell>
        <mxCell id="ktRhMoKumdL74ghE2dYu-94" value="" style="shape=tableRow;horizontal=0;startSize=0;swimlaneHead=0;swimlaneBody=0;fillColor=none;collapsible=0;dropTarget=0;points=[[0,0.5],[1,0.5]];portConstraint=eastwest;top=0;left=0;right=0;bottom=0;" parent="ktRhMoKumdL74ghE2dYu-81" vertex="1">
          <mxGeometry y="150" width="180" height="30" as="geometry" />
        </mxCell>
        <mxCell id="ktRhMoKumdL74ghE2dYu-95" value="" style="shape=partialRectangle;connectable=0;fillColor=none;top=0;left=0;bottom=0;right=0;editable=1;overflow=hidden;" parent="ktRhMoKumdL74ghE2dYu-94" vertex="1">
          <mxGeometry width="30" height="30" as="geometry">
            <mxRectangle width="30" height="30" as="alternateBounds" />
          </mxGeometry>
        </mxCell>
        <mxCell id="ktRhMoKumdL74ghE2dYu-96" value="value" style="shape=partialRectangle;connectable=0;fillColor=none;top=0;left=0;bottom=0;right=0;align=left;spacingLeft=6;overflow=hidden;" parent="ktRhMoKumdL74ghE2dYu-94" vertex="1">
          <mxGeometry x="30" width="150" height="30" as="geometry">
            <mxRectangle width="150" height="30" as="alternateBounds" />
          </mxGeometry>
        </mxCell>
        <mxCell id="ktRhMoKumdL74ghE2dYu-91" value="" style="shape=tableRow;horizontal=0;startSize=0;swimlaneHead=0;swimlaneBody=0;fillColor=none;collapsible=0;dropTarget=0;points=[[0,0.5],[1,0.5]];portConstraint=eastwest;top=0;left=0;right=0;bottom=0;" parent="ktRhMoKumdL74ghE2dYu-81" vertex="1">
          <mxGeometry y="180" width="180" height="30" as="geometry" />
        </mxCell>
        <mxCell id="ktRhMoKumdL74ghE2dYu-92" value="" style="shape=partialRectangle;connectable=0;fillColor=none;top=0;left=0;bottom=0;right=0;editable=1;overflow=hidden;whiteSpace=wrap;html=1;" parent="ktRhMoKumdL74ghE2dYu-91" vertex="1">
          <mxGeometry width="30" height="30" as="geometry">
            <mxRectangle width="30" height="30" as="alternateBounds" />
          </mxGeometry>
        </mxCell>
        <mxCell id="ktRhMoKumdL74ghE2dYu-93" value="status" style="shape=partialRectangle;connectable=0;fillColor=none;top=0;left=0;bottom=0;right=0;align=left;spacingLeft=6;overflow=hidden;whiteSpace=wrap;html=1;" parent="ktRhMoKumdL74ghE2dYu-91" vertex="1">
          <mxGeometry x="30" width="150" height="30" as="geometry">
            <mxRectangle width="150" height="30" as="alternateBounds" />
          </mxGeometry>
        </mxCell>
        <mxCell id="ktRhMoKumdL74ghE2dYu-97" value="" style="shape=tableRow;horizontal=0;startSize=0;swimlaneHead=0;swimlaneBody=0;fillColor=none;collapsible=0;dropTarget=0;points=[[0,0.5],[1,0.5]];portConstraint=eastwest;top=0;left=0;right=0;bottom=0;" parent="ktRhMoKumdL74ghE2dYu-81" vertex="1">
          <mxGeometry y="210" width="180" height="30" as="geometry" />
        </mxCell>
        <mxCell id="ktRhMoKumdL74ghE2dYu-98" value="" style="shape=partialRectangle;connectable=0;fillColor=none;top=0;left=0;bottom=0;right=0;editable=1;overflow=hidden;" parent="ktRhMoKumdL74ghE2dYu-97" vertex="1">
          <mxGeometry width="30" height="30" as="geometry">
            <mxRectangle width="30" height="30" as="alternateBounds" />
          </mxGeometry>
        </mxCell>
        <mxCell id="ktRhMoKumdL74ghE2dYu-99" value="open_date" style="shape=partialRectangle;connectable=0;fillColor=none;top=0;left=0;bottom=0;right=0;align=left;spacingLeft=6;overflow=hidden;" parent="ktRhMoKumdL74ghE2dYu-97" vertex="1">
          <mxGeometry x="30" width="150" height="30" as="geometry">
            <mxRectangle width="150" height="30" as="alternateBounds" />
          </mxGeometry>
        </mxCell>
        <mxCell id="ktRhMoKumdL74ghE2dYu-100" value="" style="shape=tableRow;horizontal=0;startSize=0;swimlaneHead=0;swimlaneBody=0;fillColor=none;collapsible=0;dropTarget=0;points=[[0,0.5],[1,0.5]];portConstraint=eastwest;top=0;left=0;right=0;bottom=0;" parent="ktRhMoKumdL74ghE2dYu-81" vertex="1">
          <mxGeometry y="240" width="180" height="30" as="geometry" />
        </mxCell>
        <mxCell id="ktRhMoKumdL74ghE2dYu-101" value="" style="shape=partialRectangle;connectable=0;fillColor=none;top=0;left=0;bottom=0;right=0;editable=1;overflow=hidden;" parent="ktRhMoKumdL74ghE2dYu-100" vertex="1">
          <mxGeometry width="30" height="30" as="geometry">
            <mxRectangle width="30" height="30" as="alternateBounds" />
          </mxGeometry>
        </mxCell>
        <mxCell id="ktRhMoKumdL74ghE2dYu-102" value="close_date" style="shape=partialRectangle;connectable=0;fillColor=none;top=0;left=0;bottom=0;right=0;align=left;spacingLeft=6;overflow=hidden;" parent="ktRhMoKumdL74ghE2dYu-100" vertex="1">
          <mxGeometry x="30" width="150" height="30" as="geometry">
            <mxRectangle width="150" height="30" as="alternateBounds" />
          </mxGeometry>
        </mxCell>
        <mxCell id="ktRhMoKumdL74ghE2dYu-106" value="" style="shape=tableRow;horizontal=0;startSize=0;swimlaneHead=0;swimlaneBody=0;fillColor=none;collapsible=0;dropTarget=0;points=[[0,0.5],[1,0.5]];portConstraint=eastwest;top=0;left=0;right=0;bottom=0;" parent="ktRhMoKumdL74ghE2dYu-81" vertex="1">
          <mxGeometry y="270" width="180" height="30" as="geometry" />
        </mxCell>
        <mxCell id="ktRhMoKumdL74ghE2dYu-107" value="" style="shape=partialRectangle;connectable=0;fillColor=none;top=0;left=0;bottom=0;right=0;editable=1;overflow=hidden;" parent="ktRhMoKumdL74ghE2dYu-106" vertex="1">
          <mxGeometry width="30" height="30" as="geometry">
            <mxRectangle width="30" height="30" as="alternateBounds" />
          </mxGeometry>
        </mxCell>
        <mxCell id="ktRhMoKumdL74ghE2dYu-108" value="create_at" style="shape=partialRectangle;connectable=0;fillColor=none;top=0;left=0;bottom=0;right=0;align=left;spacingLeft=6;overflow=hidden;" parent="ktRhMoKumdL74ghE2dYu-106" vertex="1">
          <mxGeometry x="30" width="150" height="30" as="geometry">
            <mxRectangle width="150" height="30" as="alternateBounds" />
          </mxGeometry>
        </mxCell>
        <mxCell id="ktRhMoKumdL74ghE2dYu-109" value="" style="shape=tableRow;horizontal=0;startSize=0;swimlaneHead=0;swimlaneBody=0;fillColor=none;collapsible=0;dropTarget=0;points=[[0,0.5],[1,0.5]];portConstraint=eastwest;top=0;left=0;right=0;bottom=0;" parent="ktRhMoKumdL74ghE2dYu-81" vertex="1">
          <mxGeometry y="300" width="180" height="30" as="geometry" />
        </mxCell>
        <mxCell id="ktRhMoKumdL74ghE2dYu-110" value="" style="shape=partialRectangle;connectable=0;fillColor=none;top=0;left=0;bottom=0;right=0;editable=1;overflow=hidden;" parent="ktRhMoKumdL74ghE2dYu-109" vertex="1">
          <mxGeometry width="30" height="30" as="geometry">
            <mxRectangle width="30" height="30" as="alternateBounds" />
          </mxGeometry>
        </mxCell>
        <mxCell id="ktRhMoKumdL74ghE2dYu-111" value="update_at" style="shape=partialRectangle;connectable=0;fillColor=none;top=0;left=0;bottom=0;right=0;align=left;spacingLeft=6;overflow=hidden;" parent="ktRhMoKumdL74ghE2dYu-109" vertex="1">
          <mxGeometry x="30" width="150" height="30" as="geometry">
            <mxRectangle width="150" height="30" as="alternateBounds" />
          </mxGeometry>
        </mxCell>
        <mxCell id="ktRhMoKumdL74ghE2dYu-112" value="loans" style="shape=table;startSize=30;container=1;collapsible=1;childLayout=tableLayout;fixedRows=1;rowLines=0;fontStyle=1;align=center;resizeLast=1;html=1;fillColor=#d5e8d4;strokeColor=#82b366;" parent="1" vertex="1">
          <mxGeometry x="1000" y="605" width="180" height="330" as="geometry" />
        </mxCell>
        <mxCell id="ktRhMoKumdL74ghE2dYu-113" value="" style="shape=tableRow;horizontal=0;startSize=0;swimlaneHead=0;swimlaneBody=0;fillColor=none;collapsible=0;dropTarget=0;points=[[0,0.5],[1,0.5]];portConstraint=eastwest;top=0;left=0;right=0;bottom=1;" parent="ktRhMoKumdL74ghE2dYu-112" vertex="1">
          <mxGeometry y="30" width="180" height="30" as="geometry" />
        </mxCell>
        <mxCell id="ktRhMoKumdL74ghE2dYu-114" value="PK" style="shape=partialRectangle;connectable=0;fillColor=none;top=0;left=0;bottom=0;right=0;fontStyle=1;overflow=hidden;whiteSpace=wrap;html=1;" parent="ktRhMoKumdL74ghE2dYu-113" vertex="1">
          <mxGeometry width="30" height="30" as="geometry">
            <mxRectangle width="30" height="30" as="alternateBounds" />
          </mxGeometry>
        </mxCell>
        <mxCell id="ktRhMoKumdL74ghE2dYu-115" value="id" style="shape=partialRectangle;connectable=0;fillColor=none;top=0;left=0;bottom=0;right=0;align=left;spacingLeft=6;fontStyle=5;overflow=hidden;whiteSpace=wrap;html=1;" parent="ktRhMoKumdL74ghE2dYu-113" vertex="1">
          <mxGeometry x="30" width="150" height="30" as="geometry">
            <mxRectangle width="150" height="30" as="alternateBounds" />
          </mxGeometry>
        </mxCell>
        <mxCell id="ktRhMoKumdL74ghE2dYu-247" value="" style="shape=tableRow;horizontal=0;startSize=0;swimlaneHead=0;swimlaneBody=0;fillColor=none;collapsible=0;dropTarget=0;points=[[0,0.5],[1,0.5]];portConstraint=eastwest;top=0;left=0;right=0;bottom=0;" parent="ktRhMoKumdL74ghE2dYu-112" vertex="1">
          <mxGeometry y="60" width="180" height="30" as="geometry" />
        </mxCell>
        <mxCell id="ktRhMoKumdL74ghE2dYu-248" value="FK" style="shape=partialRectangle;connectable=0;fillColor=none;top=0;left=0;bottom=0;right=0;editable=1;overflow=hidden;" parent="ktRhMoKumdL74ghE2dYu-247" vertex="1">
          <mxGeometry width="30" height="30" as="geometry">
            <mxRectangle width="30" height="30" as="alternateBounds" />
          </mxGeometry>
        </mxCell>
        <mxCell id="ktRhMoKumdL74ghE2dYu-249" value="customer_id" style="shape=partialRectangle;connectable=0;fillColor=none;top=0;left=0;bottom=0;right=0;align=left;spacingLeft=6;overflow=hidden;" parent="ktRhMoKumdL74ghE2dYu-247" vertex="1">
          <mxGeometry x="30" width="150" height="30" as="geometry">
            <mxRectangle width="150" height="30" as="alternateBounds" />
          </mxGeometry>
        </mxCell>
        <mxCell id="ktRhMoKumdL74ghE2dYu-119" value="" style="shape=tableRow;horizontal=0;startSize=0;swimlaneHead=0;swimlaneBody=0;fillColor=none;collapsible=0;dropTarget=0;points=[[0,0.5],[1,0.5]];portConstraint=eastwest;top=0;left=0;right=0;bottom=0;" parent="ktRhMoKumdL74ghE2dYu-112" vertex="1">
          <mxGeometry y="90" width="180" height="30" as="geometry" />
        </mxCell>
        <mxCell id="ktRhMoKumdL74ghE2dYu-120" value="" style="shape=partialRectangle;connectable=0;fillColor=none;top=0;left=0;bottom=0;right=0;editable=1;overflow=hidden;whiteSpace=wrap;html=1;" parent="ktRhMoKumdL74ghE2dYu-119" vertex="1">
          <mxGeometry width="30" height="30" as="geometry">
            <mxRectangle width="30" height="30" as="alternateBounds" />
          </mxGeometry>
        </mxCell>
        <mxCell id="ktRhMoKumdL74ghE2dYu-121" value="type" style="shape=partialRectangle;connectable=0;fillColor=none;top=0;left=0;bottom=0;right=0;align=left;spacingLeft=6;overflow=hidden;whiteSpace=wrap;html=1;" parent="ktRhMoKumdL74ghE2dYu-119" vertex="1">
          <mxGeometry x="30" width="150" height="30" as="geometry">
            <mxRectangle width="150" height="30" as="alternateBounds" />
          </mxGeometry>
        </mxCell>
        <mxCell id="ktRhMoKumdL74ghE2dYu-122" value="" style="shape=tableRow;horizontal=0;startSize=0;swimlaneHead=0;swimlaneBody=0;fillColor=none;collapsible=0;dropTarget=0;points=[[0,0.5],[1,0.5]];portConstraint=eastwest;top=0;left=0;right=0;bottom=0;" parent="ktRhMoKumdL74ghE2dYu-112" vertex="1">
          <mxGeometry y="120" width="180" height="30" as="geometry" />
        </mxCell>
        <mxCell id="ktRhMoKumdL74ghE2dYu-123" value="" style="shape=partialRectangle;connectable=0;fillColor=none;top=0;left=0;bottom=0;right=0;editable=1;overflow=hidden;" parent="ktRhMoKumdL74ghE2dYu-122" vertex="1">
          <mxGeometry width="30" height="30" as="geometry">
            <mxRectangle width="30" height="30" as="alternateBounds" />
          </mxGeometry>
        </mxCell>
        <mxCell id="ktRhMoKumdL74ghE2dYu-124" value="amount" style="shape=partialRectangle;connectable=0;fillColor=none;top=0;left=0;bottom=0;right=0;align=left;spacingLeft=6;overflow=hidden;" parent="ktRhMoKumdL74ghE2dYu-122" vertex="1">
          <mxGeometry x="30" width="150" height="30" as="geometry">
            <mxRectangle width="150" height="30" as="alternateBounds" />
          </mxGeometry>
        </mxCell>
        <mxCell id="ktRhMoKumdL74ghE2dYu-125" value="" style="shape=tableRow;horizontal=0;startSize=0;swimlaneHead=0;swimlaneBody=0;fillColor=none;collapsible=0;dropTarget=0;points=[[0,0.5],[1,0.5]];portConstraint=eastwest;top=0;left=0;right=0;bottom=0;" parent="ktRhMoKumdL74ghE2dYu-112" vertex="1">
          <mxGeometry y="150" width="180" height="30" as="geometry" />
        </mxCell>
        <mxCell id="ktRhMoKumdL74ghE2dYu-126" value="" style="shape=partialRectangle;connectable=0;fillColor=none;top=0;left=0;bottom=0;right=0;editable=1;overflow=hidden;whiteSpace=wrap;html=1;" parent="ktRhMoKumdL74ghE2dYu-125" vertex="1">
          <mxGeometry width="30" height="30" as="geometry">
            <mxRectangle width="30" height="30" as="alternateBounds" />
          </mxGeometry>
        </mxCell>
        <mxCell id="ktRhMoKumdL74ghE2dYu-127" value="interest_rate" style="shape=partialRectangle;connectable=0;fillColor=none;top=0;left=0;bottom=0;right=0;align=left;spacingLeft=6;overflow=hidden;whiteSpace=wrap;html=1;" parent="ktRhMoKumdL74ghE2dYu-125" vertex="1">
          <mxGeometry x="30" width="150" height="30" as="geometry">
            <mxRectangle width="150" height="30" as="alternateBounds" />
          </mxGeometry>
        </mxCell>
        <mxCell id="ktRhMoKumdL74ghE2dYu-140" value="" style="shape=tableRow;horizontal=0;startSize=0;swimlaneHead=0;swimlaneBody=0;fillColor=none;collapsible=0;dropTarget=0;points=[[0,0.5],[1,0.5]];portConstraint=eastwest;top=0;left=0;right=0;bottom=0;" parent="ktRhMoKumdL74ghE2dYu-112" vertex="1">
          <mxGeometry y="180" width="180" height="30" as="geometry" />
        </mxCell>
        <mxCell id="ktRhMoKumdL74ghE2dYu-141" value="" style="shape=partialRectangle;connectable=0;fillColor=none;top=0;left=0;bottom=0;right=0;editable=1;overflow=hidden;" parent="ktRhMoKumdL74ghE2dYu-140" vertex="1">
          <mxGeometry width="30" height="30" as="geometry">
            <mxRectangle width="30" height="30" as="alternateBounds" />
          </mxGeometry>
        </mxCell>
        <mxCell id="ktRhMoKumdL74ghE2dYu-142" value="payment_period" style="shape=partialRectangle;connectable=0;fillColor=none;top=0;left=0;bottom=0;right=0;align=left;spacingLeft=6;overflow=hidden;" parent="ktRhMoKumdL74ghE2dYu-140" vertex="1">
          <mxGeometry x="30" width="150" height="30" as="geometry">
            <mxRectangle width="150" height="30" as="alternateBounds" />
          </mxGeometry>
        </mxCell>
        <mxCell id="ktRhMoKumdL74ghE2dYu-128" value="" style="shape=tableRow;horizontal=0;startSize=0;swimlaneHead=0;swimlaneBody=0;fillColor=none;collapsible=0;dropTarget=0;points=[[0,0.5],[1,0.5]];portConstraint=eastwest;top=0;left=0;right=0;bottom=0;" parent="ktRhMoKumdL74ghE2dYu-112" vertex="1">
          <mxGeometry y="210" width="180" height="30" as="geometry" />
        </mxCell>
        <mxCell id="ktRhMoKumdL74ghE2dYu-129" value="" style="shape=partialRectangle;connectable=0;fillColor=none;top=0;left=0;bottom=0;right=0;editable=1;overflow=hidden;" parent="ktRhMoKumdL74ghE2dYu-128" vertex="1">
          <mxGeometry width="30" height="30" as="geometry">
            <mxRectangle width="30" height="30" as="alternateBounds" />
          </mxGeometry>
        </mxCell>
        <mxCell id="ktRhMoKumdL74ghE2dYu-130" value="start_date" style="shape=partialRectangle;connectable=0;fillColor=none;top=0;left=0;bottom=0;right=0;align=left;spacingLeft=6;overflow=hidden;" parent="ktRhMoKumdL74ghE2dYu-128" vertex="1">
          <mxGeometry x="30" width="150" height="30" as="geometry">
            <mxRectangle width="150" height="30" as="alternateBounds" />
          </mxGeometry>
        </mxCell>
        <mxCell id="ktRhMoKumdL74ghE2dYu-131" value="" style="shape=tableRow;horizontal=0;startSize=0;swimlaneHead=0;swimlaneBody=0;fillColor=none;collapsible=0;dropTarget=0;points=[[0,0.5],[1,0.5]];portConstraint=eastwest;top=0;left=0;right=0;bottom=0;" parent="ktRhMoKumdL74ghE2dYu-112" vertex="1">
          <mxGeometry y="240" width="180" height="30" as="geometry" />
        </mxCell>
        <mxCell id="ktRhMoKumdL74ghE2dYu-132" value="" style="shape=partialRectangle;connectable=0;fillColor=none;top=0;left=0;bottom=0;right=0;editable=1;overflow=hidden;" parent="ktRhMoKumdL74ghE2dYu-131" vertex="1">
          <mxGeometry width="30" height="30" as="geometry">
            <mxRectangle width="30" height="30" as="alternateBounds" />
          </mxGeometry>
        </mxCell>
        <mxCell id="ktRhMoKumdL74ghE2dYu-133" value="end_date" style="shape=partialRectangle;connectable=0;fillColor=none;top=0;left=0;bottom=0;right=0;align=left;spacingLeft=6;overflow=hidden;" parent="ktRhMoKumdL74ghE2dYu-131" vertex="1">
          <mxGeometry x="30" width="150" height="30" as="geometry">
            <mxRectangle width="150" height="30" as="alternateBounds" />
          </mxGeometry>
        </mxCell>
        <mxCell id="ktRhMoKumdL74ghE2dYu-134" value="" style="shape=tableRow;horizontal=0;startSize=0;swimlaneHead=0;swimlaneBody=0;fillColor=none;collapsible=0;dropTarget=0;points=[[0,0.5],[1,0.5]];portConstraint=eastwest;top=0;left=0;right=0;bottom=0;" parent="ktRhMoKumdL74ghE2dYu-112" vertex="1">
          <mxGeometry y="270" width="180" height="30" as="geometry" />
        </mxCell>
        <mxCell id="ktRhMoKumdL74ghE2dYu-135" value="" style="shape=partialRectangle;connectable=0;fillColor=none;top=0;left=0;bottom=0;right=0;editable=1;overflow=hidden;" parent="ktRhMoKumdL74ghE2dYu-134" vertex="1">
          <mxGeometry width="30" height="30" as="geometry">
            <mxRectangle width="30" height="30" as="alternateBounds" />
          </mxGeometry>
        </mxCell>
        <mxCell id="ktRhMoKumdL74ghE2dYu-136" value="create_at" style="shape=partialRectangle;connectable=0;fillColor=none;top=0;left=0;bottom=0;right=0;align=left;spacingLeft=6;overflow=hidden;" parent="ktRhMoKumdL74ghE2dYu-134" vertex="1">
          <mxGeometry x="30" width="150" height="30" as="geometry">
            <mxRectangle width="150" height="30" as="alternateBounds" />
          </mxGeometry>
        </mxCell>
        <mxCell id="ktRhMoKumdL74ghE2dYu-137" value="" style="shape=tableRow;horizontal=0;startSize=0;swimlaneHead=0;swimlaneBody=0;fillColor=none;collapsible=0;dropTarget=0;points=[[0,0.5],[1,0.5]];portConstraint=eastwest;top=0;left=0;right=0;bottom=0;" parent="ktRhMoKumdL74ghE2dYu-112" vertex="1">
          <mxGeometry y="300" width="180" height="30" as="geometry" />
        </mxCell>
        <mxCell id="ktRhMoKumdL74ghE2dYu-138" value="" style="shape=partialRectangle;connectable=0;fillColor=none;top=0;left=0;bottom=0;right=0;editable=1;overflow=hidden;" parent="ktRhMoKumdL74ghE2dYu-137" vertex="1">
          <mxGeometry width="30" height="30" as="geometry">
            <mxRectangle width="30" height="30" as="alternateBounds" />
          </mxGeometry>
        </mxCell>
        <mxCell id="ktRhMoKumdL74ghE2dYu-139" value="update_at" style="shape=partialRectangle;connectable=0;fillColor=none;top=0;left=0;bottom=0;right=0;align=left;spacingLeft=6;overflow=hidden;" parent="ktRhMoKumdL74ghE2dYu-137" vertex="1">
          <mxGeometry x="30" width="150" height="30" as="geometry">
            <mxRectangle width="150" height="30" as="alternateBounds" />
          </mxGeometry>
        </mxCell>
        <mxCell id="ktRhMoKumdL74ghE2dYu-171" value="transactions" style="shape=table;startSize=30;container=1;collapsible=1;childLayout=tableLayout;fixedRows=1;rowLines=0;fontStyle=1;align=center;resizeLast=1;html=1;fillColor=#d5e8d4;strokeColor=#82b366;" parent="1" vertex="1">
          <mxGeometry x="1510" y="230" width="180" height="270" as="geometry" />
        </mxCell>
        <mxCell id="ktRhMoKumdL74ghE2dYu-172" value="" style="shape=tableRow;horizontal=0;startSize=0;swimlaneHead=0;swimlaneBody=0;fillColor=none;collapsible=0;dropTarget=0;points=[[0,0.5],[1,0.5]];portConstraint=eastwest;top=0;left=0;right=0;bottom=1;" parent="ktRhMoKumdL74ghE2dYu-171" vertex="1">
          <mxGeometry y="30" width="180" height="30" as="geometry" />
        </mxCell>
        <mxCell id="ktRhMoKumdL74ghE2dYu-173" value="PK" style="shape=partialRectangle;connectable=0;fillColor=none;top=0;left=0;bottom=0;right=0;fontStyle=1;overflow=hidden;whiteSpace=wrap;html=1;" parent="ktRhMoKumdL74ghE2dYu-172" vertex="1">
          <mxGeometry width="30" height="30" as="geometry">
            <mxRectangle width="30" height="30" as="alternateBounds" />
          </mxGeometry>
        </mxCell>
        <mxCell id="ktRhMoKumdL74ghE2dYu-174" value="id" style="shape=partialRectangle;connectable=0;fillColor=none;top=0;left=0;bottom=0;right=0;align=left;spacingLeft=6;fontStyle=5;overflow=hidden;whiteSpace=wrap;html=1;" parent="ktRhMoKumdL74ghE2dYu-172" vertex="1">
          <mxGeometry x="30" width="150" height="30" as="geometry">
            <mxRectangle width="150" height="30" as="alternateBounds" />
          </mxGeometry>
        </mxCell>
        <mxCell id="ktRhMoKumdL74ghE2dYu-178" value="" style="shape=tableRow;horizontal=0;startSize=0;swimlaneHead=0;swimlaneBody=0;fillColor=none;collapsible=0;dropTarget=0;points=[[0,0.5],[1,0.5]];portConstraint=eastwest;top=0;left=0;right=0;bottom=0;" parent="ktRhMoKumdL74ghE2dYu-171" vertex="1">
          <mxGeometry y="60" width="180" height="30" as="geometry" />
        </mxCell>
        <mxCell id="ktRhMoKumdL74ghE2dYu-179" value="FK" style="shape=partialRectangle;connectable=0;fillColor=none;top=0;left=0;bottom=0;right=0;editable=1;overflow=hidden;whiteSpace=wrap;html=1;" parent="ktRhMoKumdL74ghE2dYu-178" vertex="1">
          <mxGeometry width="30" height="30" as="geometry">
            <mxRectangle width="30" height="30" as="alternateBounds" />
          </mxGeometry>
        </mxCell>
        <mxCell id="ktRhMoKumdL74ghE2dYu-180" value="sender_id" style="shape=partialRectangle;connectable=0;fillColor=none;top=0;left=0;bottom=0;right=0;align=left;spacingLeft=6;overflow=hidden;whiteSpace=wrap;html=1;" parent="ktRhMoKumdL74ghE2dYu-178" vertex="1">
          <mxGeometry x="30" width="150" height="30" as="geometry">
            <mxRectangle width="150" height="30" as="alternateBounds" />
          </mxGeometry>
        </mxCell>
        <mxCell id="ktRhMoKumdL74ghE2dYu-181" value="" style="shape=tableRow;horizontal=0;startSize=0;swimlaneHead=0;swimlaneBody=0;fillColor=none;collapsible=0;dropTarget=0;points=[[0,0.5],[1,0.5]];portConstraint=eastwest;top=0;left=0;right=0;bottom=0;" parent="ktRhMoKumdL74ghE2dYu-171" vertex="1">
          <mxGeometry y="90" width="180" height="30" as="geometry" />
        </mxCell>
        <mxCell id="ktRhMoKumdL74ghE2dYu-182" value="FK" style="shape=partialRectangle;connectable=0;fillColor=none;top=0;left=0;bottom=0;right=0;editable=1;overflow=hidden;" parent="ktRhMoKumdL74ghE2dYu-181" vertex="1">
          <mxGeometry width="30" height="30" as="geometry">
            <mxRectangle width="30" height="30" as="alternateBounds" />
          </mxGeometry>
        </mxCell>
        <mxCell id="ktRhMoKumdL74ghE2dYu-183" value="receiver_id" style="shape=partialRectangle;connectable=0;fillColor=none;top=0;left=0;bottom=0;right=0;align=left;spacingLeft=6;overflow=hidden;" parent="ktRhMoKumdL74ghE2dYu-181" vertex="1">
          <mxGeometry x="30" width="150" height="30" as="geometry">
            <mxRectangle width="150" height="30" as="alternateBounds" />
          </mxGeometry>
        </mxCell>
        <mxCell id="ktRhMoKumdL74ghE2dYu-184" value="" style="shape=tableRow;horizontal=0;startSize=0;swimlaneHead=0;swimlaneBody=0;fillColor=none;collapsible=0;dropTarget=0;points=[[0,0.5],[1,0.5]];portConstraint=eastwest;top=0;left=0;right=0;bottom=0;" parent="ktRhMoKumdL74ghE2dYu-171" vertex="1">
          <mxGeometry y="120" width="180" height="30" as="geometry" />
        </mxCell>
        <mxCell id="ktRhMoKumdL74ghE2dYu-185" value="" style="shape=partialRectangle;connectable=0;fillColor=none;top=0;left=0;bottom=0;right=0;editable=1;overflow=hidden;whiteSpace=wrap;html=1;" parent="ktRhMoKumdL74ghE2dYu-184" vertex="1">
          <mxGeometry width="30" height="30" as="geometry">
            <mxRectangle width="30" height="30" as="alternateBounds" />
          </mxGeometry>
        </mxCell>
        <mxCell id="ktRhMoKumdL74ghE2dYu-186" value="value" style="shape=partialRectangle;connectable=0;fillColor=none;top=0;left=0;bottom=0;right=0;align=left;spacingLeft=6;overflow=hidden;whiteSpace=wrap;html=1;" parent="ktRhMoKumdL74ghE2dYu-184" vertex="1">
          <mxGeometry x="30" width="150" height="30" as="geometry">
            <mxRectangle width="150" height="30" as="alternateBounds" />
          </mxGeometry>
        </mxCell>
        <mxCell id="ktRhMoKumdL74ghE2dYu-187" value="" style="shape=tableRow;horizontal=0;startSize=0;swimlaneHead=0;swimlaneBody=0;fillColor=none;collapsible=0;dropTarget=0;points=[[0,0.5],[1,0.5]];portConstraint=eastwest;top=0;left=0;right=0;bottom=0;" parent="ktRhMoKumdL74ghE2dYu-171" vertex="1">
          <mxGeometry y="150" width="180" height="30" as="geometry" />
        </mxCell>
        <mxCell id="ktRhMoKumdL74ghE2dYu-188" value="" style="shape=partialRectangle;connectable=0;fillColor=none;top=0;left=0;bottom=0;right=0;editable=1;overflow=hidden;" parent="ktRhMoKumdL74ghE2dYu-187" vertex="1">
          <mxGeometry width="30" height="30" as="geometry">
            <mxRectangle width="30" height="30" as="alternateBounds" />
          </mxGeometry>
        </mxCell>
        <mxCell id="ktRhMoKumdL74ghE2dYu-189" value="type" style="shape=partialRectangle;connectable=0;fillColor=none;top=0;left=0;bottom=0;right=0;align=left;spacingLeft=6;overflow=hidden;" parent="ktRhMoKumdL74ghE2dYu-187" vertex="1">
          <mxGeometry x="30" width="150" height="30" as="geometry">
            <mxRectangle width="150" height="30" as="alternateBounds" />
          </mxGeometry>
        </mxCell>
        <mxCell id="ktRhMoKumdL74ghE2dYu-276" value="" style="shape=tableRow;horizontal=0;startSize=0;swimlaneHead=0;swimlaneBody=0;fillColor=none;collapsible=0;dropTarget=0;points=[[0,0.5],[1,0.5]];portConstraint=eastwest;top=0;left=0;right=0;bottom=0;" parent="ktRhMoKumdL74ghE2dYu-171" vertex="1">
          <mxGeometry y="180" width="180" height="30" as="geometry" />
        </mxCell>
        <mxCell id="ktRhMoKumdL74ghE2dYu-277" value="" style="shape=partialRectangle;connectable=0;fillColor=none;top=0;left=0;bottom=0;right=0;editable=1;overflow=hidden;" parent="ktRhMoKumdL74ghE2dYu-276" vertex="1">
          <mxGeometry width="30" height="30" as="geometry">
            <mxRectangle width="30" height="30" as="alternateBounds" />
          </mxGeometry>
        </mxCell>
        <mxCell id="ktRhMoKumdL74ghE2dYu-278" value="status" style="shape=partialRectangle;connectable=0;fillColor=none;top=0;left=0;bottom=0;right=0;align=left;spacingLeft=6;overflow=hidden;" parent="ktRhMoKumdL74ghE2dYu-276" vertex="1">
          <mxGeometry x="30" width="150" height="30" as="geometry">
            <mxRectangle width="150" height="30" as="alternateBounds" />
          </mxGeometry>
        </mxCell>
        <mxCell id="ktRhMoKumdL74ghE2dYu-193" value="" style="shape=tableRow;horizontal=0;startSize=0;swimlaneHead=0;swimlaneBody=0;fillColor=none;collapsible=0;dropTarget=0;points=[[0,0.5],[1,0.5]];portConstraint=eastwest;top=0;left=0;right=0;bottom=0;" parent="ktRhMoKumdL74ghE2dYu-171" vertex="1">
          <mxGeometry y="210" width="180" height="30" as="geometry" />
        </mxCell>
        <mxCell id="ktRhMoKumdL74ghE2dYu-194" value="" style="shape=partialRectangle;connectable=0;fillColor=none;top=0;left=0;bottom=0;right=0;editable=1;overflow=hidden;" parent="ktRhMoKumdL74ghE2dYu-193" vertex="1">
          <mxGeometry width="30" height="30" as="geometry">
            <mxRectangle width="30" height="30" as="alternateBounds" />
          </mxGeometry>
        </mxCell>
        <mxCell id="ktRhMoKumdL74ghE2dYu-195" value="create_at" style="shape=partialRectangle;connectable=0;fillColor=none;top=0;left=0;bottom=0;right=0;align=left;spacingLeft=6;overflow=hidden;" parent="ktRhMoKumdL74ghE2dYu-193" vertex="1">
          <mxGeometry x="30" width="150" height="30" as="geometry">
            <mxRectangle width="150" height="30" as="alternateBounds" />
          </mxGeometry>
        </mxCell>
        <mxCell id="ktRhMoKumdL74ghE2dYu-196" value="" style="shape=tableRow;horizontal=0;startSize=0;swimlaneHead=0;swimlaneBody=0;fillColor=none;collapsible=0;dropTarget=0;points=[[0,0.5],[1,0.5]];portConstraint=eastwest;top=0;left=0;right=0;bottom=0;" parent="ktRhMoKumdL74ghE2dYu-171" vertex="1">
          <mxGeometry y="240" width="180" height="30" as="geometry" />
        </mxCell>
        <mxCell id="ktRhMoKumdL74ghE2dYu-197" value="" style="shape=partialRectangle;connectable=0;fillColor=none;top=0;left=0;bottom=0;right=0;editable=1;overflow=hidden;" parent="ktRhMoKumdL74ghE2dYu-196" vertex="1">
          <mxGeometry width="30" height="30" as="geometry">
            <mxRectangle width="30" height="30" as="alternateBounds" />
          </mxGeometry>
        </mxCell>
        <mxCell id="ktRhMoKumdL74ghE2dYu-198" value="update_at" style="shape=partialRectangle;connectable=0;fillColor=none;top=0;left=0;bottom=0;right=0;align=left;spacingLeft=6;overflow=hidden;" parent="ktRhMoKumdL74ghE2dYu-196" vertex="1">
          <mxGeometry x="30" width="150" height="30" as="geometry">
            <mxRectangle width="150" height="30" as="alternateBounds" />
          </mxGeometry>
        </mxCell>
        <mxCell id="ktRhMoKumdL74ghE2dYu-199" value="installment" style="shape=table;startSize=30;container=1;collapsible=1;childLayout=tableLayout;fixedRows=1;rowLines=0;fontStyle=1;align=center;resizeLast=1;html=1;fillColor=#d5e8d4;strokeColor=#82b366;" parent="1" vertex="1">
          <mxGeometry x="1510" y="570" width="180" height="300" as="geometry" />
        </mxCell>
        <mxCell id="ktRhMoKumdL74ghE2dYu-200" value="" style="shape=tableRow;horizontal=0;startSize=0;swimlaneHead=0;swimlaneBody=0;fillColor=none;collapsible=0;dropTarget=0;points=[[0,0.5],[1,0.5]];portConstraint=eastwest;top=0;left=0;right=0;bottom=1;" parent="ktRhMoKumdL74ghE2dYu-199" vertex="1">
          <mxGeometry y="30" width="180" height="30" as="geometry" />
        </mxCell>
        <mxCell id="ktRhMoKumdL74ghE2dYu-201" value="PK" style="shape=partialRectangle;connectable=0;fillColor=none;top=0;left=0;bottom=0;right=0;fontStyle=1;overflow=hidden;whiteSpace=wrap;html=1;" parent="ktRhMoKumdL74ghE2dYu-200" vertex="1">
          <mxGeometry width="30" height="30" as="geometry">
            <mxRectangle width="30" height="30" as="alternateBounds" />
          </mxGeometry>
        </mxCell>
        <mxCell id="ktRhMoKumdL74ghE2dYu-202" value="id" style="shape=partialRectangle;connectable=0;fillColor=none;top=0;left=0;bottom=0;right=0;align=left;spacingLeft=6;fontStyle=5;overflow=hidden;whiteSpace=wrap;html=1;" parent="ktRhMoKumdL74ghE2dYu-200" vertex="1">
          <mxGeometry x="30" width="150" height="30" as="geometry">
            <mxRectangle width="150" height="30" as="alternateBounds" />
          </mxGeometry>
        </mxCell>
        <mxCell id="ktRhMoKumdL74ghE2dYu-203" value="" style="shape=tableRow;horizontal=0;startSize=0;swimlaneHead=0;swimlaneBody=0;fillColor=none;collapsible=0;dropTarget=0;points=[[0,0.5],[1,0.5]];portConstraint=eastwest;top=0;left=0;right=0;bottom=0;" parent="ktRhMoKumdL74ghE2dYu-199" vertex="1">
          <mxGeometry y="60" width="180" height="40" as="geometry" />
        </mxCell>
        <mxCell id="ktRhMoKumdL74ghE2dYu-204" value="FK" style="shape=partialRectangle;connectable=0;fillColor=none;top=0;left=0;bottom=0;right=0;editable=1;overflow=hidden;whiteSpace=wrap;html=1;" parent="ktRhMoKumdL74ghE2dYu-203" vertex="1">
          <mxGeometry width="30" height="40" as="geometry">
            <mxRectangle width="30" height="40" as="alternateBounds" />
          </mxGeometry>
        </mxCell>
        <mxCell id="ktRhMoKumdL74ghE2dYu-205" value="loan_id" style="shape=partialRectangle;connectable=0;fillColor=none;top=0;left=0;bottom=0;right=0;align=left;spacingLeft=6;overflow=hidden;whiteSpace=wrap;html=1;" parent="ktRhMoKumdL74ghE2dYu-203" vertex="1">
          <mxGeometry x="30" width="150" height="40" as="geometry">
            <mxRectangle width="150" height="40" as="alternateBounds" />
          </mxGeometry>
        </mxCell>
        <mxCell id="ktRhMoKumdL74ghE2dYu-206" value="" style="shape=tableRow;horizontal=0;startSize=0;swimlaneHead=0;swimlaneBody=0;fillColor=none;collapsible=0;dropTarget=0;points=[[0,0.5],[1,0.5]];portConstraint=eastwest;top=0;left=0;right=0;bottom=0;" parent="ktRhMoKumdL74ghE2dYu-199" vertex="1">
          <mxGeometry y="100" width="180" height="20" as="geometry" />
        </mxCell>
        <mxCell id="ktRhMoKumdL74ghE2dYu-207" value="" style="shape=partialRectangle;connectable=0;fillColor=none;top=0;left=0;bottom=0;right=0;editable=1;overflow=hidden;whiteSpace=wrap;html=1;" parent="ktRhMoKumdL74ghE2dYu-206" vertex="1">
          <mxGeometry width="30" height="20" as="geometry">
            <mxRectangle width="30" height="20" as="alternateBounds" />
          </mxGeometry>
        </mxCell>
        <mxCell id="ktRhMoKumdL74ghE2dYu-208" value="due_date" style="shape=partialRectangle;connectable=0;fillColor=none;top=0;left=0;bottom=0;right=0;align=left;spacingLeft=6;overflow=hidden;whiteSpace=wrap;html=1;" parent="ktRhMoKumdL74ghE2dYu-206" vertex="1">
          <mxGeometry x="30" width="150" height="20" as="geometry">
            <mxRectangle width="150" height="20" as="alternateBounds" />
          </mxGeometry>
        </mxCell>
        <mxCell id="ktRhMoKumdL74ghE2dYu-209" value="" style="shape=tableRow;horizontal=0;startSize=0;swimlaneHead=0;swimlaneBody=0;fillColor=none;collapsible=0;dropTarget=0;points=[[0,0.5],[1,0.5]];portConstraint=eastwest;top=0;left=0;right=0;bottom=0;" parent="ktRhMoKumdL74ghE2dYu-199" vertex="1">
          <mxGeometry y="120" width="180" height="30" as="geometry" />
        </mxCell>
        <mxCell id="ktRhMoKumdL74ghE2dYu-210" value="" style="shape=partialRectangle;connectable=0;fillColor=none;top=0;left=0;bottom=0;right=0;editable=1;overflow=hidden;" parent="ktRhMoKumdL74ghE2dYu-209" vertex="1">
          <mxGeometry width="30" height="30" as="geometry">
            <mxRectangle width="30" height="30" as="alternateBounds" />
          </mxGeometry>
        </mxCell>
        <mxCell id="ktRhMoKumdL74ghE2dYu-211" value="payment_date" style="shape=partialRectangle;connectable=0;fillColor=none;top=0;left=0;bottom=0;right=0;align=left;spacingLeft=6;overflow=hidden;" parent="ktRhMoKumdL74ghE2dYu-209" vertex="1">
          <mxGeometry x="30" width="150" height="30" as="geometry">
            <mxRectangle width="150" height="30" as="alternateBounds" />
          </mxGeometry>
        </mxCell>
        <mxCell id="ktRhMoKumdL74ghE2dYu-212" value="" style="shape=tableRow;horizontal=0;startSize=0;swimlaneHead=0;swimlaneBody=0;fillColor=none;collapsible=0;dropTarget=0;points=[[0,0.5],[1,0.5]];portConstraint=eastwest;top=0;left=0;right=0;bottom=0;" parent="ktRhMoKumdL74ghE2dYu-199" vertex="1">
          <mxGeometry y="150" width="180" height="30" as="geometry" />
        </mxCell>
        <mxCell id="ktRhMoKumdL74ghE2dYu-213" value="" style="shape=partialRectangle;connectable=0;fillColor=none;top=0;left=0;bottom=0;right=0;editable=1;overflow=hidden;whiteSpace=wrap;html=1;" parent="ktRhMoKumdL74ghE2dYu-212" vertex="1">
          <mxGeometry width="30" height="30" as="geometry">
            <mxRectangle width="30" height="30" as="alternateBounds" />
          </mxGeometry>
        </mxCell>
        <mxCell id="ktRhMoKumdL74ghE2dYu-214" value="amount_due" style="shape=partialRectangle;connectable=0;fillColor=none;top=0;left=0;bottom=0;right=0;align=left;spacingLeft=6;overflow=hidden;whiteSpace=wrap;html=1;" parent="ktRhMoKumdL74ghE2dYu-212" vertex="1">
          <mxGeometry x="30" width="150" height="30" as="geometry">
            <mxRectangle width="150" height="30" as="alternateBounds" />
          </mxGeometry>
        </mxCell>
        <mxCell id="ktRhMoKumdL74ghE2dYu-215" value="" style="shape=tableRow;horizontal=0;startSize=0;swimlaneHead=0;swimlaneBody=0;fillColor=none;collapsible=0;dropTarget=0;points=[[0,0.5],[1,0.5]];portConstraint=eastwest;top=0;left=0;right=0;bottom=0;" parent="ktRhMoKumdL74ghE2dYu-199" vertex="1">
          <mxGeometry y="180" width="180" height="30" as="geometry" />
        </mxCell>
        <mxCell id="ktRhMoKumdL74ghE2dYu-216" value="" style="shape=partialRectangle;connectable=0;fillColor=none;top=0;left=0;bottom=0;right=0;editable=1;overflow=hidden;" parent="ktRhMoKumdL74ghE2dYu-215" vertex="1">
          <mxGeometry width="30" height="30" as="geometry">
            <mxRectangle width="30" height="30" as="alternateBounds" />
          </mxGeometry>
        </mxCell>
        <mxCell id="ktRhMoKumdL74ghE2dYu-217" value="amount_paid" style="shape=partialRectangle;connectable=0;fillColor=none;top=0;left=0;bottom=0;right=0;align=left;spacingLeft=6;overflow=hidden;" parent="ktRhMoKumdL74ghE2dYu-215" vertex="1">
          <mxGeometry x="30" width="150" height="30" as="geometry">
            <mxRectangle width="150" height="30" as="alternateBounds" />
          </mxGeometry>
        </mxCell>
        <mxCell id="ktRhMoKumdL74ghE2dYu-224" value="" style="shape=tableRow;horizontal=0;startSize=0;swimlaneHead=0;swimlaneBody=0;fillColor=none;collapsible=0;dropTarget=0;points=[[0,0.5],[1,0.5]];portConstraint=eastwest;top=0;left=0;right=0;bottom=0;" parent="ktRhMoKumdL74ghE2dYu-199" vertex="1">
          <mxGeometry y="210" width="180" height="30" as="geometry" />
        </mxCell>
        <mxCell id="ktRhMoKumdL74ghE2dYu-225" value="" style="shape=partialRectangle;connectable=0;fillColor=none;top=0;left=0;bottom=0;right=0;editable=1;overflow=hidden;" parent="ktRhMoKumdL74ghE2dYu-224" vertex="1">
          <mxGeometry width="30" height="30" as="geometry">
            <mxRectangle width="30" height="30" as="alternateBounds" />
          </mxGeometry>
        </mxCell>
        <mxCell id="ktRhMoKumdL74ghE2dYu-226" value="interest_paid" style="shape=partialRectangle;connectable=0;fillColor=none;top=0;left=0;bottom=0;right=0;align=left;spacingLeft=6;overflow=hidden;" parent="ktRhMoKumdL74ghE2dYu-224" vertex="1">
          <mxGeometry x="30" width="150" height="30" as="geometry">
            <mxRectangle width="150" height="30" as="alternateBounds" />
          </mxGeometry>
        </mxCell>
        <mxCell id="ktRhMoKumdL74ghE2dYu-218" value="" style="shape=tableRow;horizontal=0;startSize=0;swimlaneHead=0;swimlaneBody=0;fillColor=none;collapsible=0;dropTarget=0;points=[[0,0.5],[1,0.5]];portConstraint=eastwest;top=0;left=0;right=0;bottom=0;" parent="ktRhMoKumdL74ghE2dYu-199" vertex="1">
          <mxGeometry y="240" width="180" height="30" as="geometry" />
        </mxCell>
        <mxCell id="ktRhMoKumdL74ghE2dYu-219" value="" style="shape=partialRectangle;connectable=0;fillColor=none;top=0;left=0;bottom=0;right=0;editable=1;overflow=hidden;" parent="ktRhMoKumdL74ghE2dYu-218" vertex="1">
          <mxGeometry width="30" height="30" as="geometry">
            <mxRectangle width="30" height="30" as="alternateBounds" />
          </mxGeometry>
        </mxCell>
        <mxCell id="ktRhMoKumdL74ghE2dYu-220" value="create_at" style="shape=partialRectangle;connectable=0;fillColor=none;top=0;left=0;bottom=0;right=0;align=left;spacingLeft=6;overflow=hidden;" parent="ktRhMoKumdL74ghE2dYu-218" vertex="1">
          <mxGeometry x="30" width="150" height="30" as="geometry">
            <mxRectangle width="150" height="30" as="alternateBounds" />
          </mxGeometry>
        </mxCell>
        <mxCell id="ktRhMoKumdL74ghE2dYu-221" value="" style="shape=tableRow;horizontal=0;startSize=0;swimlaneHead=0;swimlaneBody=0;fillColor=none;collapsible=0;dropTarget=0;points=[[0,0.5],[1,0.5]];portConstraint=eastwest;top=0;left=0;right=0;bottom=0;" parent="ktRhMoKumdL74ghE2dYu-199" vertex="1">
          <mxGeometry y="270" width="180" height="30" as="geometry" />
        </mxCell>
        <mxCell id="ktRhMoKumdL74ghE2dYu-222" value="" style="shape=partialRectangle;connectable=0;fillColor=none;top=0;left=0;bottom=0;right=0;editable=1;overflow=hidden;" parent="ktRhMoKumdL74ghE2dYu-221" vertex="1">
          <mxGeometry width="30" height="30" as="geometry">
            <mxRectangle width="30" height="30" as="alternateBounds" />
          </mxGeometry>
        </mxCell>
        <mxCell id="ktRhMoKumdL74ghE2dYu-223" value="update_at" style="shape=partialRectangle;connectable=0;fillColor=none;top=0;left=0;bottom=0;right=0;align=left;spacingLeft=6;overflow=hidden;" parent="ktRhMoKumdL74ghE2dYu-221" vertex="1">
          <mxGeometry x="30" width="150" height="30" as="geometry">
            <mxRectangle width="150" height="30" as="alternateBounds" />
          </mxGeometry>
        </mxCell>
        <mxCell id="ktRhMoKumdL74ghE2dYu-231" style="edgeStyle=orthogonalEdgeStyle;rounded=0;orthogonalLoop=1;jettySize=auto;html=1;exitX=1;exitY=0.5;exitDx=0;exitDy=0;entryX=0;entryY=0.5;entryDx=0;entryDy=0;endArrow=ERzeroToOne;endFill=0;" parent="1" source="ktRhMoKumdL74ghE2dYu-227" target="ktRhMoKumdL74ghE2dYu-232" edge="1">
          <mxGeometry relative="1" as="geometry" />
        </mxCell>
        <mxCell id="ktRhMoKumdL74ghE2dYu-227" value="Customer Info" style="shape=rhombus;perimeter=rhombusPerimeter;whiteSpace=wrap;html=1;align=center;" parent="1" vertex="1">
          <mxGeometry x="260" y="275" width="120" height="60" as="geometry" />
        </mxCell>
        <mxCell id="ktRhMoKumdL74ghE2dYu-240" style="edgeStyle=orthogonalEdgeStyle;rounded=0;orthogonalLoop=1;jettySize=auto;html=1;exitX=1;exitY=0.5;exitDx=0;exitDy=0;entryX=0;entryY=0.5;entryDx=0;entryDy=0;startArrow=ERmandOne;startFill=0;endArrow=none;endFill=0;" parent="1" source="ktRhMoKumdL74ghE2dYu-2" target="ktRhMoKumdL74ghE2dYu-227" edge="1">
          <mxGeometry relative="1" as="geometry">
            <Array as="points">
              <mxPoint x="240" y="275" />
              <mxPoint x="240" y="305" />
            </Array>
          </mxGeometry>
        </mxCell>
        <mxCell id="ktRhMoKumdL74ghE2dYu-246" style="edgeStyle=orthogonalEdgeStyle;rounded=0;orthogonalLoop=1;jettySize=auto;html=1;exitX=1;exitY=0.5;exitDx=0;exitDy=0;entryX=0;entryY=0.5;entryDx=0;entryDy=0;endArrow=ERzeroToMany;endFill=0;" parent="1" source="ktRhMoKumdL74ghE2dYu-241" target="ktRhMoKumdL74ghE2dYu-243" edge="1">
          <mxGeometry relative="1" as="geometry" />
        </mxCell>
        <mxCell id="ktRhMoKumdL74ghE2dYu-241" value="Account Owner" style="shape=rhombus;perimeter=rhombusPerimeter;whiteSpace=wrap;html=1;align=center;" parent="1" vertex="1">
          <mxGeometry x="770" y="275" width="120" height="60" as="geometry" />
        </mxCell>
        <mxCell id="ktRhMoKumdL74ghE2dYu-252" style="edgeStyle=orthogonalEdgeStyle;rounded=0;orthogonalLoop=1;jettySize=auto;html=1;exitX=1;exitY=0.5;exitDx=0;exitDy=0;endArrow=ERzeroToMany;endFill=0;" parent="1" source="ktRhMoKumdL74ghE2dYu-242" target="ktRhMoKumdL74ghE2dYu-247" edge="1">
          <mxGeometry relative="1" as="geometry" />
        </mxCell>
        <mxCell id="ktRhMoKumdL74ghE2dYu-242" value="Take Loan" style="shape=rhombus;perimeter=rhombusPerimeter;whiteSpace=wrap;html=1;align=center;" parent="1" vertex="1">
          <mxGeometry x="770" y="650" width="120" height="60" as="geometry" />
        </mxCell>
        <mxCell id="ktRhMoKumdL74ghE2dYu-253" style="edgeStyle=orthogonalEdgeStyle;rounded=0;orthogonalLoop=1;jettySize=auto;html=1;exitX=1;exitY=0.5;exitDx=0;exitDy=0;entryX=0;entryY=0.5;entryDx=0;entryDy=0;endArrow=none;endFill=0;" parent="1" source="ktRhMoKumdL74ghE2dYu-50" target="ktRhMoKumdL74ghE2dYu-241" edge="1">
          <mxGeometry relative="1" as="geometry" />
        </mxCell>
        <mxCell id="ktRhMoKumdL74ghE2dYu-254" style="edgeStyle=orthogonalEdgeStyle;rounded=0;orthogonalLoop=1;jettySize=auto;html=1;exitX=1;exitY=0.5;exitDx=0;exitDy=0;entryX=0;entryY=0.5;entryDx=0;entryDy=0;startArrow=ERmandOne;startFill=0;endArrow=none;endFill=0;" parent="1" source="ktRhMoKumdL74ghE2dYu-50" target="ktRhMoKumdL74ghE2dYu-242" edge="1">
          <mxGeometry relative="1" as="geometry" />
        </mxCell>
        <mxCell id="ktRhMoKumdL74ghE2dYu-259" style="edgeStyle=orthogonalEdgeStyle;rounded=0;orthogonalLoop=1;jettySize=auto;html=1;exitX=1;exitY=0.5;exitDx=0;exitDy=0;endArrow=ERoneToMany;endFill=0;" parent="1" source="ktRhMoKumdL74ghE2dYu-255" target="ktRhMoKumdL74ghE2dYu-203" edge="1">
          <mxGeometry relative="1" as="geometry" />
        </mxCell>
        <mxCell id="ktRhMoKumdL74ghE2dYu-255" value="Relationship" style="shape=rhombus;perimeter=rhombusPerimeter;whiteSpace=wrap;html=1;align=center;" parent="1" vertex="1">
          <mxGeometry x="1270" y="620" width="120" height="60" as="geometry" />
        </mxCell>
        <mxCell id="ktRhMoKumdL74ghE2dYu-260" style="edgeStyle=orthogonalEdgeStyle;rounded=0;orthogonalLoop=1;jettySize=auto;html=1;exitX=1;exitY=0.5;exitDx=0;exitDy=0;entryX=0;entryY=0.5;entryDx=0;entryDy=0;startArrow=ERmandOne;startFill=0;" parent="1" source="ktRhMoKumdL74ghE2dYu-113" target="ktRhMoKumdL74ghE2dYu-255" edge="1">
          <mxGeometry relative="1" as="geometry" />
        </mxCell>
        <mxCell id="ktRhMoKumdL74ghE2dYu-266" style="edgeStyle=orthogonalEdgeStyle;rounded=0;orthogonalLoop=1;jettySize=auto;html=1;exitX=0.5;exitY=0;exitDx=0;exitDy=0;endArrow=ERoneToMany;endFill=0;entryX=0;entryY=0.5;entryDx=0;entryDy=0;" parent="1" source="ktRhMoKumdL74ghE2dYu-261" target="ktRhMoKumdL74ghE2dYu-178" edge="1">
          <mxGeometry relative="1" as="geometry">
            <Array as="points">
              <mxPoint x="1340" y="280" />
              <mxPoint x="1460" y="280" />
              <mxPoint x="1460" y="305" />
            </Array>
          </mxGeometry>
        </mxCell>
        <mxCell id="ktRhMoKumdL74ghE2dYu-267" style="edgeStyle=orthogonalEdgeStyle;rounded=0;orthogonalLoop=1;jettySize=auto;html=1;exitX=1;exitY=0.5;exitDx=0;exitDy=0;endArrow=ERzeroToMany;endFill=0;" parent="1" source="ktRhMoKumdL74ghE2dYu-261" target="ktRhMoKumdL74ghE2dYu-181" edge="1">
          <mxGeometry relative="1" as="geometry" />
        </mxCell>
        <mxCell id="ktRhMoKumdL74ghE2dYu-261" value="Relationship" style="shape=rhombus;double=1;perimeter=rhombusPerimeter;whiteSpace=wrap;html=1;align=center;" parent="1" vertex="1">
          <mxGeometry x="1280" y="305" width="120" height="60" as="geometry" />
        </mxCell>
        <mxCell id="ktRhMoKumdL74ghE2dYu-262" style="edgeStyle=orthogonalEdgeStyle;rounded=0;orthogonalLoop=1;jettySize=auto;html=1;exitX=1;exitY=0.5;exitDx=0;exitDy=0;entryX=0;entryY=0.5;entryDx=0;entryDy=0;startArrow=ERone;startFill=0;" parent="1" source="ktRhMoKumdL74ghE2dYu-82" target="ktRhMoKumdL74ghE2dYu-261" edge="1">
          <mxGeometry relative="1" as="geometry" />
        </mxCell>
        <mxCell id="ktRhMoKumdL74ghE2dYu-270" style="edgeStyle=orthogonalEdgeStyle;rounded=0;orthogonalLoop=1;jettySize=auto;html=1;exitX=1;exitY=0.5;exitDx=0;exitDy=0;endArrow=ERzeroToOne;endFill=0;" parent="1" source="ktRhMoKumdL74ghE2dYu-268" target="ktRhMoKumdL74ghE2dYu-235" edge="1">
          <mxGeometry relative="1" as="geometry">
            <mxPoint x="410" y="600" as="targetPoint" />
          </mxGeometry>
        </mxCell>
        <mxCell id="ktRhMoKumdL74ghE2dYu-268" value="Relationship" style="shape=rhombus;perimeter=rhombusPerimeter;whiteSpace=wrap;html=1;align=center;" parent="1" vertex="1">
          <mxGeometry x="260" y="450" width="120" height="60" as="geometry" />
        </mxCell>
        <mxCell id="ktRhMoKumdL74ghE2dYu-269" style="edgeStyle=orthogonalEdgeStyle;rounded=0;orthogonalLoop=1;jettySize=auto;html=1;exitX=1;exitY=0.5;exitDx=0;exitDy=0;entryX=0;entryY=0.5;entryDx=0;entryDy=0;endArrow=none;endFill=0;" parent="1" source="ktRhMoKumdL74ghE2dYu-2" target="ktRhMoKumdL74ghE2dYu-268" edge="1">
          <mxGeometry relative="1" as="geometry" />
        </mxCell>
        <mxCell id="ktRhMoKumdL74ghE2dYu-272" value="" style="shape=image;verticalLabelPosition=bottom;labelBackgroundColor=default;verticalAlign=top;aspect=fixed;imageAspect=0;image=data:image/png,iVBORw0KGgoAAAANSUhEUgAAA8gAAALaCAYAAADtO3omAAAMTmlDQ1BJQ0MgUHJvZmlsZQAASImVVwdYU8kWnltSIQQIREBK6E0QkRJASggt9I4gKiEJEEqMCUHFji6u4FoRESwrugqi2AERG+qqK4tidy2LBYWVdXFd7MqbEECXfeV7831z57//nPnnnHNn7r0DAL2TL5XmopoA5EnyZbHB/qzJySksUjdQAzqABgzBeL5ALuVER4cDWIbbv5fXNwGibK85KLX+2f9fi5ZQJBcAgERDnC6UC/IgPgwA3iKQyvIBIEohbz4rX6rEZRDryKCDENcocaYKtyhxugpfGbSJj+VC/AQAsjqfL8sEQKMP8qwCQSbUocNogZNEKJZA7AexT17eDCHEiyC2gTZwTrpSn53+lU7m3zTTRzT5/MwRrIplsJADxHJpLn/O/5mO/13ychXDc1jDqp4lC4lVxgzz9iRnRpgSq0P8VpIeGQWxNgAoLhYO2isxM0sRkqCyR20Eci7MGWBCPEmeG8cb4mOF/IAwiA0hzpDkRoYP2RRliIOUNjB/aIU4nxcPsR7ENSJ5YNyQzSnZjNjheW9myLicIb6bLxv0Qan/WZGTwFHpY9pZIt6QPuZYmBWfBDEV4oACcWIkxBoQR8pz4sKGbFILs7iRwzYyRawyFguIZSJJsL9KHyvPkAXFDtnvzpMPx46dyhLzIofw1fys+BBVrrAnAv6g/zAWrE8k4SQM64jkk8OHYxGKAgJVseNkkSQhTsXjetJ8/1jVWNxOmhs9ZI/7i3KDlbwZxPHygrjhsQX5cHGq9PFiaX50vMpPvDKbHxqt8gffD8IBFwQAFlDAmg5mgGwgbu9t7IV3qp4gwAcykAlEwGGIGR6RNNgjgdc4UAh+h0gE5CPj/Ad7RaAA8p9GsUpOPMKprg4gY6hPqZIDnkKcB8JALrxXDCpJRjxIBE8gI/6HR3xYBTCGXFiV/f+eH2a/MBzIhA8xiuEZWfRhS2IgMYAYQgwi2uIGuA/uhYfDqx+szjgb9xiO44s94Smhg/CIcIPQSbgzXVwkG+VlBOiE+kFD+Un/Oj+4FdR0xf1xb6gOlXEmbgAccBc4Dwf3hTO7QpY75LcyK6xR2n+L4KsnNGRHcaKglDEUP4rN6JEadhquIyrKXH+dH5Wv6SP55o70jJ6f+1X2hbANG22JfYsdws5jp7GLWAvWCFjYSawJa8OOK/HIinsyuOKGZ4sd9CcH6oxeM1+erDKTcqc6px6nj6q+fNHsfOVm5M6QzpGJM7PyWRz4xRCxeBKB4ziWs5OzCwDK74/q9fYqZvC7gjDbvnBLfgXA++TAwMCxL1zoSQAOuMNXwtEvnA0bflrUALhwVKCQFag4XHkhwDcHHe4+fWAMzIENjMcZuAEv4AcCQSiIAvEgGUyD3mfBdS4Ds8A8sBgUg1KwGqwHlWAr2A5qwF5wEDSCFnAa/AgugSvgBrgLV08XeA76wGvwAUEQEkJDGIg+YoJYIvaIM8JGfJBAJByJRZKRNCQTkSAKZB6yBClF1iKVyDakFjmAHEVOIxeRDuQO8hDpQf5E3qMYqo7qoEaoFToeZaMcNAyNR6eimehMtBBdiq5EK9BqdA/agJ5GL6E30E70OdqPAUwNY2KmmAPGxrhYFJaCZWAybAFWgpVj1Vg91gyf8zWsE+vF3uFEnIGzcAe4gkPwBFyAz8QX4CvwSrwGb8DP4tfwh3gf/plAIxgS7AmeBB5hMiGTMItQTCgn7CQcIZyDe6mL8JpIJDKJ1kR3uBeTidnEucQVxM3EfcRTxA7iY2I/iUTSJ9mTvElRJD4pn1RM2kjaQzpJukrqIr0lq5FNyM7kIHIKWUIuIpeTd5NPkK+Sn5E/UDQplhRPShRFSJlDWUXZQWmmXKZ0UT5QtajWVG9qPDWbuphaQa2nnqPeo75SU1MzU/NQi1ETqy1Sq1Dbr3ZB7aHaO3VtdTt1rnqqukJ9pfou9VPqd9Rf0Wg0K5ofLYWWT1tJq6WdoT2gvdVgaDhq8DSEGgs1qjQaNK5qvKBT6JZ0Dn0avZBeTj9Ev0zv1aRoWmlyNfmaCzSrNI9q3tLs12JoTdCK0srTWqG1W+uiVrc2SdtKO1BbqL1Ue7v2Ge3HDIxhzuAyBIwljB2Mc4wuHaKOtQ5PJ1unVGevTrtOn662rotuou5s3Srd47qdTIxpxeQxc5mrmAeZN5nvxxiN4YwRjVk+pn7M1TFv9Mbq+emJ9Er09und0Huvz9IP1M/RX6PfqH/fADewM4gxmGWwxeCcQe9YnbFeYwVjS8YeHPuLIWpoZxhrONdwu2GbYb+RsVGwkdRoo9EZo15jprGfcbZxmfEJ4x4ThomPidikzOSkyW8sXRaHlcuqYJ1l9ZkamoaYKky3mbabfjCzNkswKzLbZ3bfnGrONs8wLzNvNe+zMLGIsJhnUWfxiyXFkm2ZZbnB8rzlGytrqySrZVaNVt3WetY860LrOut7NjQbX5uZNtU2122JtmzbHNvNtlfsUDtXuyy7KrvL9qi9m73YfrN9xzjCOI9xknHV4245qDtwHAoc6hweOjIdwx2LHBsdX4y3GJ8yfs348+M/O7k65TrtcLo7QXtC6ISiCc0T/nS2cxY4Vzlfn0ibGDRx4cSmiS9d7F1ELltcbrsyXCNcl7m2un5yc3eTudW79bhbuKe5b3K/xdZhR7NXsC94EDz8PRZ6tHi883TzzPc86PmHl4NXjtdur+5J1pNEk3ZMeuxt5s333ubd6cPySfP53qfT19SX71vt+8jP3E/ot9PvGceWk83Zw3nh7+Qv8z/i/4bryZ3PPRWABQQHlAS0B2oHJgRWBj4IMgvKDKoL6gt2DZ4bfCqEEBIWsibkFs+IJ+DV8vpC3UPnh54NUw+LC6sMexRuFy4Lb45AI0Ij1kXci7SMlEQ2RoEoXtS6qPvR1tEzo4/FEGOiY6pinsZOiJ0Xez6OETc9bnfc63j/+FXxdxNsEhQJrYn0xNTE2sQ3SQFJa5M6J4+fPH/ypWSDZHFyUwopJTFlZ0r/lMAp66d0pbqmFqfenGo9dfbUi9MMpuVOOz6dPp0//VAaIS0pbXfaR34Uv5rfn85L35TeJ+AKNgieC/2EZcIekbdorehZhnfG2ozuTO/MdZk9Wb5Z5Vm9Yq64UvwyOyR7a/abnKicXTkDuUm5+/LIeWl5RyXakhzJ2RnGM2bP6JDaS4ulnTM9Z66f2ScLk+2UI/Kp8qZ8Hfij36awUXyjeFjgU1BV8HZW4qxDs7VmS2a3zbGbs3zOs8Kgwh/m4nMFc1vnmc5bPO/hfM78bQuQBekLWheaL1y6sGtR8KKaxdTFOYt/LnIqWlv015KkJc1LjZYuWvr4m+Bv6oo1imXFt5Z5Ldv6Lf6t+Nv25ROXb1z+uURY8lOpU2l56ccVghU/fTfhu4rvBlZmrGxf5bZqy2riasnqm2t819Ss1VpbuPbxuoh1DWWsspKyv9ZPX3+x3KV86wbqBsWGzorwiqaNFhtXb/xYmVV5o8q/at8mw03LN73ZLNx8dYvflvqtRltLt77/Xvz97W3B2xqqrarLtxO3F2x/uiNxx/kf2D/U7jTYWbrz0y7Jrs6a2Jqzte61tbsNd6+qQ+sUdT17Uvdc2Ruwt6neoX7bPua+0v1gv2L/bwfSDtw8GHaw9RD7UP1hy8ObjjCOlDQgDXMa+hqzGjubkps6joYebW32aj5yzPHYrhbTlqrjusdXnaCeWHpi4GThyf5T0lO9pzNPP26d3nr3zOQz18/GnG0/F3buwo9BP545zzl/8oL3hZaLnheP/sT+qfGS26WGNte2Iz+7/nyk3a294bL75aYrHleaOyZ1nLjqe/X0tYBrP17nXb90I/JGx82Em7dvpd7qvC283X0n987LXwp++XB30T3CvZL7mvfLHxg+qP7V9td9nW6dxx8GPGx7FPfo7mPB4+dP5E8+di19Snta/szkWW23c3dLT1DPld+m/Nb1XPr8Q2/x71q/b3ph8+LwH35/tPVN7ut6KXs58OeKV/qvdv3l8ldrf3T/g9d5rz+8KXmr/7bmHfvd+fdJ7599mPWR9LHik+2n5s9hn+8N5A0MSPky/uCvAAaUR5sMAP7cBQAtGQAGPDdSp6jOh4MFUZ1pBxH4T1h1hhwsbgDUw3/6mF74d3MLgP07ALCC+vRUAKJpAMR7AHTixJE6fJYbPHcqCxGeDb6P+pSelw7+TVGdSb/ye3QLlKouYHT7L+QSgyhj9Dd6AAAAimVYSWZNTQAqAAAACAAEARoABQAAAAEAAAA+ARsABQAAAAEAAABGASgAAwAAAAEAAgAAh2kABAAAAAEAAABOAAAAAAAAAJAAAAABAAAAkAAAAAEAA5KGAAcAAAASAAAAeKACAAQAAAABAAADyKADAAQAAAABAAAC2gAAAABBU0NJSQAAAFNjcmVlbnNob3S+KsxjAAAACXBIWXMAABYlAAAWJQFJUiTwAAAB1mlUWHRYTUw6Y29tLmFkb2JlLnhtcAAAAAAAPHg6eG1wbWV0YSB4bWxuczp4PSJhZG9iZTpuczptZXRhLyIgeDp4bXB0az0iWE1QIENvcmUgNi4wLjAiPgogICA8cmRmOlJERiB4bWxuczpyZGY9Imh0dHA6Ly93d3cudzMub3JnLzE5OTkvMDIvMjItcmRmLXN5bnRheC1ucyMiPgogICAgICA8cmRmOkRlc2NyaXB0aW9uIHJkZjphYm91dD0iIgogICAgICAgICAgICB4bWxuczpleGlmPSJodHRwOi8vbnMuYWRvYmUuY29tL2V4aWYvMS4wLyI+CiAgICAgICAgIDxleGlmOlBpeGVsWURpbWVuc2lvbj43MzA8L2V4aWY6UGl4ZWxZRGltZW5zaW9uPgogICAgICAgICA8ZXhpZjpQaXhlbFhEaW1lbnNpb24+OTY4PC9leGlmOlBpeGVsWERpbWVuc2lvbj4KICAgICAgICAgPGV4aWY6VXNlckNvbW1lbnQ+U2NyZWVuc2hvdDwvZXhpZjpVc2VyQ29tbWVudD4KICAgICAgPC9yZGY6RGVzY3JpcHRpb24+CiAgIDwvcmRmOlJERj4KPC94OnhtcG1ldGE+Cp7mwJMAAAAcaURPVAAAAAIAAAAAAAABbQAAACgAAAFtAAABbQAAZQ/VIRoPAABAAElEQVR4AezdB5Ad1Zm38UPOGYREFEGIHE0SSQKTDRhjLLBJWuTd8pZt7Cpvle1ll9ot19a67CqvvevaonAATDBrwMYYE0wSIKKIIucggogiiQw7z/n8apv57vQEzfT0zHm66nJHc+/tPv3r7qH//Z4+d5FPuqbkpIACCiiggAIKKKCAAgoooEDhAosYkAvfA1x9BRRQQAEFFFBAAQUUUECBLGBAdkdQQAEFFFBAAQUUUEABBRRQoEvAgOxuoIACCiiggAIKKKCAAgoooECXgAHZ3UABBRRQQAEFFFBAAQUUUECBLgEDsruBAgoooIACCiiggAIKKKCAAl0CBmR3AwUUUEABBRRQQAEFFFBAAQW6BAzI7gYKKKCAAgoooIACCiiggAIKdAkYkN0NFFBAAQUUUEABBRRQQAEFFOgSMCC7GyiggAIKKKCAAgoooIACCijQJWBAdjdQQAEFFFBAAQUUUEABBRRQoEvAgOxuoIACCiiggAIKKKCAAgoooECXgAHZ3UABBRRQQAEFFFBAAQUUUECBLgEDsruBAgoooIACCiiggAIKKKCAAl0CBmR3AwUUUEABBRRQQAEFFFBAAQW6BAzI7gYKKKCAAgoooIACCiiggAIKdAkYkN0NFFBAAQUUUEABBRRQQAEFFOgSMCC7GyiggAIKKKCAAgoooIACCijQJWBAdjdQQAEFFFBAAQUUUEABBRRQoEvAgOxuoIACCiiggAIKKKCAAgoooECXgAHZ3UABBRRQQAEFFFBAAQUUUECBLgEDsruBAgoooIACCiiggAIKKKCAAl0CBmR3AwUUUEABBRRQQAEFFFBAAQW6BAzI7gYKKKCAAgoooIACCiiggAIKdAkYkN0NFFBAAQUUUEABBRRQQAEFFOgSMCC7GyiggAIKKKCAAgoooIACCijQJWBAdjdQQAEFFFBAAQUUUEABBRRQoEvAgOxuoIACCiiggAIKKKCAAgoooECXgAHZ3UABBRRQQAEFFFBAAQUUUECBLgEDsruBAgoooIACCiiggAIKKKCAAl0CBmR3AwUUUEABBRRQQAEFFFBAAQW6BAzI7gYKKKCAAgoooIACCiiggAIKdAkYkN0NFFBAAQUUUEABBRRQQAEFFOgSMCC7GyiggAIKKKCAAgoooIACCijQJWBAdjdQQAEFFFBAgUEVeO6559KsWbPSjTfemGbMmJFWXXXVNH369DRp0qS00korpaWXXnpQl+fMFFBAAQUUGCwBA/JgSTofBRRQQAEFFMgCBmR3BAXaI/DJJ5+kjz/+OPHMI6ZFFlkkdX/Eaz4rULKAAbnkre+6K6CAAgooMAQCBuQhQHWWCgxQ4KOPPkoffPBB+vDDD3NQjtkQjhdffPG02GKL5edFF100XvJZgaIFDMhFb35XXgEFFFBAgcEXMCAPvqlzVKCvAlSJCcUE4vfffz+988476e23384hOSrIPBOICchLLbVUWmaZZfLzkksumX8XleW+LtP3KTCaBAzIo2lrui4KKKCAAgq0QMCA3IKNYBOKFSAYv/fee+nNN99Mr7zySnr11Vfzg99RLWaiy3VUkJdddtm0yiqr5LECGC9gueWWs6Jc7N7jiiNgQHY/UEABBRRQQIFBFTAgDyqnM1OgTwJROaZa/NJLL6UXXnghPfvss/lnwjKhmAHyCMlUmONB1ZjB89Zcc8203nrr5ecYTI8Q7aRAaQIG5NK2uOurgAIKKKDAEAsYkIcY2Nkr0EEgKsfPP/98euCBB9IjjzySHnvssfT666/nUEylmAoxgZh7kufPn59f42dC85gxY9Lmm2+eNtlkk7Txxhvn99IN25DcAdtfjWoBA/Ko3ryunAIKKKCAAs0LGJCbN3eJClA5fvHFF9PDDz+cbrvttvTUU0/le4+XWGKJtPrqq+fAu/LKK+eATJjm/XTBnjdvXn5ESJ44cWLaZZdd0gYbbJDvTeY+ZarPBGnuaaZSzTx55t/8np+ZCNO8RqWaIF4N2LyHRwR5PkcVu/pZ2sDnuS+a5TI/A7r7dtMCBuSmxV2eAgoooIACo1zAgDzKN7Cr10qBuXPnprvvvjvdfvvt6ZZbbsnhdYsttkibbrppmjBhQlpjjTVy+CS0EkrjPmW6YT/44IO52kyoHjt2bPr85z+ftt9++9zdmrAb73355ZdzqCVoE5r5N923Cb1MhFq6ZzMP3kPQJfQyRch+66238ufeeOONPIAYQZmJYMxgYSuuuGIO9Msvv/yC9uY3+B8FGhIwIDcE7WIUUEABBRQoRcCAXMqWdj3bJPDoo4+mSy+9NFePn3jiibTaaqulAw44IO24445pww03zANxVdsbldzokn3rrbemq666Kofcgw8+OE2aNCltttlmaYUVVsghOII0VeN11lknV3a5z5ku3PyO+RG86cZNFXrdddfNbSD0MjGa9muvvZYI8nPmzFkwcFg1XBOo+Tzz555oBg+Lz1fb7s8KDKWAAXkodZ23AgoooIACBQoYkAvc6K7ysAvccccd6Ze//GW677778kjUW265Zfrc5z6XeGZkaro8VyfCLF2cuReZ4Eq37HPPPTd30+YzO++8c5o8eXKuPBNqZ8+ena6++uoclrlXmQpvVJCpMNNlm+7aBNwddtghbbXVVvl+ZoI6E+/l3miC/NNPP52DNdVsHkxUmHlQgV5//fXzfdBUv+ke7qRAkwIG5Ca1XZYCCiiggAIFCBiQC9jIrmJrBAi6BMuZM2emn/zkJ+nxxx9P22yzTa4A77vvvmmjjTaqbSufpYp71113pTPPPDM99NBDuZvztttum4444ohczaXie9NNN6Xzzz8/B9uddtoprbXWWnm+8XlGzmZgMO4ZpoJMF+099tgjV5IJ4rTrmmuuye959913c6WaME0XbiZ+R8CmyzW/Y6CwKVOm5Oo33bQjSOc3+x8FhlDAgDyEuM5aAQUUUECBEgUMyCVuddd5uAQIn1Rwr7vuuvSjH/0oV4APPPDAHE6p5EaQ7al9BGweVHf/8Ic/5KBMUKV79bRp03JA5d7k66+/Pp111lk5IO+5556JAE3XbUIu4ZX3EICffPLJvCgqyEcffXQOy3SvpsLN5/n7QGWYEM2I2VFh5vuaqS4zyBhV8HHjxqVjjjkmB226WXOPspMCTQgYkAeozNUyrnAx0AB/lLjyxu+cFFBAAQUUKF0gumPGYEEM1jN16tTc7ZL7GbnPsImJk3YqT1Sjooupo+I2Ie8ymhTg/l+6N1977bXpxz/+cWLwq6OOOipN7uoeTQjtaxdlwunll1+euBeZSjAV3K9//es5xBJ6mf8ZZ5yRK72HHXZY2n333XOI5uuhGJyLr5S67LLL0qxZsxL3QBN+v/GNb+Qu3oyWfcMNN6TTTjstB+z99tsvUYVm8LAIyHTzpspMV2/upeZvxYknnpiXwzrwNVVOCjQhYEAeoDLhOA5khtQnKMcofAOcpR9TQAEFFFBgVAjw/0dOqDnhZnRcwulee+2VT7g5yW2qEsRyWB4n8HxlDZUufmdXzVGxm7kSfxWIrskzZsxI//Ef/5EHw6LySkCmezUDXfVlItQySNeNN96Y7rzzznzMfOc738nfjVwNyIThr33ta/mYJrhyfHPh6ZlnnsndvAnCVJvXW2+99L3vfS8HZIIvFe6zzz47ny8ffvjhabvttsv3G0cX6yg8MRI3Xbk5TrmwRjft+F7mvqyH71FgYQUMyAMU5I9R3I9BVxCujNF9xEkBBRRQQIHSBRj0h/8vcgGZUW6pGFMpIqgyUFB87ctQO9Etk3DAyTUDDjHwD23hBN9JgdEiQE9GRpKmwss9yBx/xx577EIFZHp/0H2agMxXRVUDMoNzffe7383zrx5PHOuEW4L673//+/xVT6ecckquMjPAF+278MILc3duvkaKgb44FrtfsKISfcUVV+TNQ6WZ72Rm0DD+fjgp0ISAAXmAynRl4ar4RRddlLuicD8F3wPnpIACCiigQOkCcU8kJ+5cUOYEOLpW8zPVpiYmTuS5j5HBgg455JB8ok+1q6kKdhPr6DIU4DY/jjMC6A9/+MM80BWV18ldFeT+jAJNjw+6SN988835HJcLS9/61rfyPKoBmVGmTz755Dx/LnbF8cxFMbpmE5CpFNN1moDMxTG+l5n20XWavw/77LNPDuCdbnng/meq2Vzg4j7nrbfeOh+7BmT39aYEDMgDlObqHH8E/vznP+dBB7hqRjdrJwUUUEABBUoXoKsk/5/kYjL/b6RKxMky3Z2bHI2WMMx3qTKi7/77759P9Jvs4l36fuD6NyPAGDiETro1E5A5J6XyStfkGKQrQmynFsXXPcUgXXSvZsAsBun66le/moNsNSAzpgDBlwBenQi2nd5HN29GwCY4c48zbeF4JIB3Csjx94NjlV4f48eP71dX8Wqb/FmBgQgYkAei1vUZDl6+z40qMl+cTvWYK+VOCiiggAIKlC7AIEF8zykny1SlCKp0k+REl6pQU12c6c5N5ZoqMgMGUYGietxUF+/S9wPXvxmBGIWayu/PfvazPFgW4ZbbCj772c/mcFmt9HZvVVSgCcZ8DzK3Dq644or5HmG+5olRsDsF374GZI49Bt4iIF9yySX5b8Dxxx+fq8Od2sX60Ca6bxPGuU2CB387nBRoQsCAPEBlrtZxzzEDkcQAXVy9c1JAAQUUUKB0Ab4P9f7778/3IzKiLV0yGZSHSi6BleDaxMTJN4GYgM6JNhWpJrt4N7GOLkOBELjnnnvy1yjde++9+SIQwfSggw7K9/pyDMT9wlRtCaGcyxJE6elB92juO77gggvyz9zzu+OOO+aBuDh2FiYgcw8zfw8IyAy+xaBc06dPzxfNqn8PohJOwYlz7Oh5QliPtse6+qzAUAoYkAeoG91RqCTzx4WDmt85KaCAAgooULoAXTypRvF1MYxoS/XnuOOOy1/rQljmZLeJiSBAICYox+Bg/M5JgdEoQIglhFKt5XuECZ9UkLkwRS8KRnGP2xw4byWIcisEX8tGT4+77rorH68cK3yPMhVoviaKoLowAZlu3ozVQxfw008/PffC5GuodttttzzSNX8TmDinjrDOiNhc3GL50fODY9lJgSYEDMhNKLsMBRRQQAEFChLgZJjKMV8Xwwk7J+ZUjCZNmvSpr3UpiMRVVWDIBWKQLCrB11xzTQ6bjBTNPcBrr712/j5kQjPBk16PVGm5RZALWgTkp556KgdZulQfeuihuYs1X+PE9ywvTEDedddd83K4YHbmmWfmCjXhm8G3uA+Z8QkIvyyH0bgJ7LSFQfb4LF8XxUUuA/KQ70Iu4K8CBmR3BQUUUEABBRQYVAED8qByOjMF+iTASNYETO4h5juHGQk67uWlFwddlQnIVIT5Pe/nNkE+wy2DTLyPka933333PDgXvT0I0QsTkPfcc89cHWbcnosvvjgPckvgZVmEXwIyVWsqyAz0RVsYJIxQz2BedBWnzQbkPu0GvmkQBAzIg4DoLBRQQAEFFFDg/wQMyP9n4U8KNCUQ9/BSEeZ+ZIIyXZUJuARMKscEXsIp7yWQEpIJy9x6QFDlK5kIpNWvh2LQvTlz5uSvf+IeZYL2SSedlO8hrq5bb+9jUFuqyIyWzc8sn94lVIppF22iizWVZG5b3GCDDdKUKVNyULeCXJX256EWMCAPtbDzV0ABBRRQoDABA3JhG9zVbYUAoZIHXaepwHIcPv7447nLMpVi7jmOAWWpxsZgXdyXTDjmPmW+VomvRmNgLgbTYuI+5fjmlpkzZ+b7mA877LAcoqsr3tv7COq0ie7TdOmmSzjtpR2Ed9rEv2nPGmuskdZdd90c1mkb7+HhpEATAgbkJpRdhgIKKKCAAgUJGJAL2tiuausEopJM12kqtYwqz88EWEIyIZSKMlVZHoxwTSCNBxXdasWWii4Bm8r0Y489lrtDM/DX2LFjP7Xuvb2PijHhnWDM18DxzL8J7YTjaA8VauZNe6gw+/VOn2L2Hw0IGJAbQHYRCiiggAIKlCRgQC5pa7uubRMgAPOIQEoo5me6UvNcDchUZQmmdHGOB+G5WrElcFfvWSbMVivMsf69vS+CO0GasM4z4ZgHr7FMls39yFSvaU+MPh/L8FmBJgQMyE0ouwwFFFBAAQUKEjAgF7SxXdURIxABlQZXK8TDvQJtbddwu7j84RMwIA+fvUtWQAEFFFBgVAoYkEflZnWlRrhAVJZZjWqFeLhXq63tGm4Xlz98Agbk4bN3yQoooIACCoxKAQPyqNysrpQCCihQhIABuYjN7EoqoIACCijQnIABuTlrl6SAAgooMLgCBuTB9XRuCiiggAIKFC8wd+7cNHv27HT77benW265JQ/oM3Xq1LTDDjukFVZYIQ++UzySAAoooIACrRQwILdys9goBRRQQAEFRq7AvHnz0hNPPJG/6/TBBx/MXyOz1157pY033jh/xynfeeqkgAIKKKBAGwUMyG3cKrZJAQUUUECBESzAV7jwHacvvvhi/u5Uvq5lwoQJacyYMX5tywjerjZdAQUUKEHAgFzCVnYdFVBAAQUUaFCA7zXlu1d5vPvuu4nvTY2u1fzMCLpOCiiggAIKtFHAgNzGrWKbFFBAAQUUUEABBRRQQAEFGhcwIDdO7gIVUEABBRRQQAEFFFBAAQXaKGBAbuNWsU0KKKCAAgoooIACCiiggAKNCxiQGyd3gQoooIACCiiggAIKKKCAAm0UMCC3cavYJgUUUEABBRRQQAEFFFBAgcYFDMiNk7tABRRQQAEFFFBAAQUUUECBNgoYkNu4VWyTAgoooIACCiiggAIKKKBA4wIG5MbJXaACCiiggAIKKKCAAgoooEAbBQzIbdwqtkkBBRRQQAEFFFBAAQUUUKBxAQNy4+QuUAEFFFBAAQUUUEABBRRQoI0CBuQ2bhXbpIACCiiggAIKKKCAAgoo0LiAAblxcheogAIKKKCAAgoooIACCijQRgEDchu3im1SQAEFFFBAAQUUUEABBRRoXMCA3Di5C1RAAQUUUEABBRRQQAEFFGijgAG5jVvFNimggAIKKKCAAgoooIACCjQuYEBunNwFKqCAAgoooIACCiiggAIKtFHAgNzGrWKbFFBAAQUUUEABBRRQQAEFGhcwIDdO7gIVUEABBRRQQAEFFFBAAQXaKGBAbuNWsU0KKKCAAgoooIACCiiggAKNCxiQGyd3gQoooIACCiiggAIKKKCAAm0UMCC3cavYJgUUUEABBRRQQAEFFFBAgcYFDMiNk7tABRRQQAEFFFBAAQUUUECBNgoYkNu4VWyTAgoooIACCiiggAIKKKBA4wIG5MbJXaACCiiggAIKKKCAAgoooEAbBQzIbdwqtkkBBRRQQAEFFFBAAQUUUKBxAQNy4+QuUAEFFFBAAQUUUEABBRRQoI0CBuQ2bhXbpIACCiiggAIKKKCAAgoo0LiAAblxcheogAIKKKCAAgoooIACCijQRgEDchu3im1SQAEFFFBAAQUUUEABBRRoXMCA3Di5C1RAAQUUUEABBRRQQAEFFGijgAG5jVvFNimggAIKKKCAAgoooIACCjQuYEBunNwFKqCAAgoooIACCiiggAIKtFHAgNzGrWKbFFBAAQUUUEABBRRQQAEFGhcwIDdO7gIVUEABBRRQQAEFFFBAAQXaKGBAbuNWsU0KKKCAAgoooIACCiiggAKNCxiQGyd3gQoooIACCiiggAIKKKCAAm0UMCC3cavYJgUUUEABBRRQQAEFFFBAgcYFDMiNk7tABRRQQAEFFFBAAQUUUECBNgoYkNu4VWyTAgoooIACCiiggAIKKKBA4wIG5MbJXaACCiiggAIKKKCAAgoooEAbBQzIbdwqtkkBBRRQQAEFFFBAAQUUUKBxAQNy4+QuUAEFFFBAAQUUUEABBRRQoI0CBuQ2bhXbpIACCiiggAIKKKCAAgoo0LiAAblxcheogAIKKKCAAgoooIACCijQRgEDchu3im1SQAEFFFBAAQUUUEABBRRoXMCA3Di5C1RAAQUUUEABBRRQQAEFFGijgAG5jVvFNimggAIKKKCAAgoooIACCjQuYEBunNwFKqCAAgoooIACCiiggAIKtFHAgNzGrWKbFFBAAQUUUEABBRRQQAEFGhcwIDdO7gIVUEABBRRQQAEFFFBAAQXaKGBAbuNWsU0KKKCAAgoooIACCiiggAKNCxiQGyd3gQoooIACCiiggAIKKKCAAm0UMCC3cavYJgUUUEABBRRQQAEFFFBAgcYFDMiNk7tABRRQQAEFFFBAAQUUUECBNgoYkNu4VWyTAgoooIACCiiggAIKKKBA4wIG5MbJXaACCiiggAIKKKCAAgoooEAbBQzIbdwqtkkBBRRQQAEFFFBAAQUUUKBxAQNy4+QuUAEFFFBAAQUUUEABBRRQoI0CBuQ2bhXbpIACCiiggAIKKKCAAgoo0LiAAblxcheogAIKKKCAAgoooIACCijQRgEDchu3im1SQAEFFFBAAQUUUEABBRRoXMCA3Di5C1RAAQUUUEABBRRQQAEFFGijgAG5jVvFNimggAIKKKCAAgoooIACCjQuYEBunNwFKqCAAgoooIACCiiggAIKtFHAgNzGrWKbFFBAAQUUUEABBRRQQAEFGhcwIDdO7gIVUEABBRRQQAEFFFBAAQXaKGBAbuNWsU0KKKCAAgoooIACCiiggAKNCxiQGyd3gQoooIACCiiggAIKKKCAAm0UMCC3cavYJgUUUEABBRRQQAEFFFBAgcYFDMiNk7tABRRQQAEFFFBAAQUUUECBNgoYkNu4VWyTAgoooIACCiiggAIKKKBA4wIG5MbJXaACCiiggAIKKKCAAgoooEAbBQzIbdwqtkkBBRRQQAEFFFBAAQUUUKBxAQNy4+QuUAEFFFBAAQUUUEABBRRQoI0CBuQ2bhXbpIACCiiggAIKKKCAAgoo0LiAAblxcheogAIKKKCAAgoooIACCijQRgEDchu3im1SQAEFFFBAAQUUUEABBRRoXMCA3Di5C1RAAQUUUEABBRRQQAEFFGijgAG5jVvFNimggAIKKKCAAgoooIACCjQuYEBunNwFKqCAAgoooIACCiiggAIKtFHAgNzGrWKbFFBAAQUUUEABBRRQQAEFGhcwIDdO7gIVUEABBRRQQAEFFFBAAQXaKGBAbuNWsU0KKKCAAgoooIACCiiggAKNCxiQGyd3gQoooIACCiiggAIKKKCAAm0UMCC3cavYJgUUUEABBRRYaIFPPvlkwTwWWWSRBT/7gwIKKKCAAj0JGJB7kvH3CiiggAIKKDBiBQjH8WAlFl100WRIHrGb04YroIACjQkYkBujdkEKKKCAAgooMFQCEYY/+uij9MEHH+THhx9+mD7++OO0+OKLp2WXXTYtscQSOSQblIdqKzhfBRRQYOQLGJBH/jZ0DRRQQAEFFChaIMIxwfidd95Jb731Vnr99dfTu+++mwPycsstl8aOHZtWWGGFtNhii+VqctFgrrwCCiigQI8CBuQeaXxBAQUUUEABBdoqEKE4Ksbvv/9+evPNN9Mrr7ySXnzxxfTCCy+k+fPn56rxmmuumbbYYos0bty4/G9CspMCCiiggAKdBAzInVT8nQIKKKCAAgq0ViDCcfeKMaH48ccfz48nnngiV5BXXXXVtPnmm6e99947TZgwIS2zzDK5y3VrV86GKaCAAgoMq4ABeVj5XbgCCiiggAIK9EWAUMz9xNxXTDB+7733FlSMX3755TR37tz03HPPpWeeeSY9//zz+d9Uitddd9207bbbpn322ceA3Bdo39N6gTgW4kIR99THIHR9ub8+PhfPrHB/Pt96IBuowEIKGJAXEtCPK6CAAgoooMDQCsSJPKH47bffzvcXv/baa7kb9ZNPPpmeeuqp/OB3BGhO9qkUjxkzJm2yySZps802S1tttVVaa6217GI9tJvKuTcgELcVxCB07O9LLrnkgvvrewvJcaGJ+TAP3t+fzzewii5CgWEVMCAPK78LV0ABBRRQQIFOAoTiOJGPivEbb7yR7y+mWkyVmIrxs88+m6vFVJH5zMorr5yD8dprr52rx+PHj8/PhOMVV1xxQYjotEx/p8BIEGAgOi4GcbGIY4NR2ldaaaW0/PLLp6WWWqrXWwgYvI5B7Pg8F534/CqrrJIYzC6C8khwsI0KDJWAAXmoZJ2vAgoooIACCgxIoKeKMaGYinE8CAlUwehKTcV4jTXWSBtuuGEiFPNgcC5GrubEP+49plrWW4VtQI32Qwo0JPDqq6+mRx55JPegYMR29u31118/j9TOPff8u27i84899lj+PAPbcXxsvPHGeRA7QjYh2UmBkgUMyCVvfdddAQUUUECBlghYMW7JhrAZrRfgPvuZM2emhx9+OFeSCbWbbrppvp1go402SoTkTlMcY9yScMMNN+TPz5s3L19Y2m233dLEiRPTaqutlr8zvNPn/Z0CpQgYkEvZ0q6nAgoooIACLRWwYtzSDWOzWilw//33pwsuuCDddtttiVsLqABvueWW6TOf+UzaY4890nrrrdex3fS2oEv1XXfdlX7729+mWbNmJQIyvS6OOOKItPPOO6d11lkn34rQcQb+UoFCBAzIhWxoV1MBBRRQQIE2CRCKY5AgvsM47ouMEan5yia6VMeI1Hy/MZ/hHuPVV189D7jFCNV0pebZe4zbtHVty1AKEHBPP/30dPPNN+d7ibnvmGNgp512Socffnj+WrNOtxJw7zLdq2+99dZ0zjnnpFtuuSV/bzgD2R1//PFp8uTJ+XjiGGPi+OTY5D5nnvl3deLWBrpjL7HEEp+6dzkq1fE5PsP7+D3HOb/nZybayeeXXnrp/B4GHIsgzzP/5h5p3tP9+8s7LQcL3ttp/fMC/Y8CfRAwIPcBybcooIACCiigwOAJxIktJ8sMvEUVi2BMGKb759NPP53mzJmTX2OpnFxTJWNUaqpj8eCeY+8xHrzt4pxGhkAEZJ7jWGI06q233jqdcMIJafvtt88hkXBZnQjHjz76aLrjjjvSNddck+655548yB3dsjsF5BgMjHv9OUb5NwPnMTFv7nUmTDPAF4+49zkCLvc3c1wzcVGL33PhiwHCaC9TDDA2duzYPC8CLn8XGIiPZ/7Nsc9yCNHVqftyCMX8jeBvAiG5+/pXP+vPCtQJGJDrdHxNAQUUUEABBQZFgBN5Tmg5MaabJye/nCjHiNSMRk1A5gSak2pOyDnB5Z5ITp7p+smDcEy1mN9xIkxViRNjJwVKEYiA/MADD+RjgOouxw5B97jjjks77rhj7iZNuKxO3Lt80003pfvuuy9/XzgDdTEPRnyvBmRGe6fKS6+Nxx9/PM+b45FjluOYB8ccgZXRszkeJ0yYkI9Vjkc+SzjmmH7wwQfzcU83bo5nLoAR1GlzhGTumaaKzfHN8c7o2rSLYM7FMS6EsW6E8OoUAZ7R7Gkn76Wr+bhx4/o0mnd1Xv6sQFXAgFzV8GcFFFBAAQUUGHSBqHJxgl2tGHNiG99hzMk7rzFxYk/4pRo0vqsLNSP0Eow5UWZAomWXXTafnEdXykFvsDNUoMUCEZAJuIRTgiYBkePjoIMOyvci0+Wa8FqdCJ0XXnhheuKJJ/JAXlycmjFjRg6e1YBMJZiAy/zpxk2PDpbBcUzI5ZkQzMQxuMEGG6S99torh1g+S/hl3rNnz05XX311rjxvu+22+dglNBO2uUg2f/78fMwTfLfZZpscbhlsjJG5aRd/GwjiHP/Mn+fqRIBmvVmvO++8M8+f9ed7z2kHbXNSYCACBuSBqP31M3QziQe/4g+GkwIKKKCAAgr8v/8nVr/HOCrGL774Yq4SE46jYvzSSy/lahEnw1ST+Hqm+B5jTvT5Ob6yqT8V46gsc1IfD7eNAiNdIALyk11fecYFJI4JjicuLBEOt9pqq7TddtvlSirrGschXatP77p3mR4au+yySw6nDPZF5bUakAmWBFwGA7vuuuvyd49zXHLRivdyvkuVl4DKMUzF9uCDD84hl67UhGlukaBaff755+ewveuuu+YwH71IeA+VZNaB+XEBjBA9ZcqU3N6rrroqV7ppKwH8i1/8Yg7QHMdxXBO2Gajs7rvvziGZC2pTp07N88GC7ttOCgxEwIA8ELWuz3Awc3BzBYyraPzxMSAPENOPKaCAAgqMKgH+f8j/F6kkUQ2iKzUnw3SfplLMiS2PqBhzIktVmJNrAnF0p+bf1Yox7+PkOE6Qe0PjfZxQc8IfJ8x9/Wxv8/Z1BYZLoHtAplLM8cb5KBeiCJRUUun2zMRxSKBlUK5f/OIX+dz1S1/6Un7vqaeemrtAVwMyn6F6S0AmgDIxQjZhnOORZRGO77333nTZZZfl1w888MA8SBjfp0xg5/PXX399Ouuss/J7J02alIMrXak5rjku+RtAhZoqMBVrqsfHHntsfp3l8mBAMS6OTZ8+Pc+f45j5M/E1V5dcckkO0vydYdlHHnlk2mKLLbz1Igv5n4EKGJAHKMcfB/7YcNWbg5qgzFUxJwUUUEABBUoXiIBMF0q6U1IFilGpqXRRReb+Rv6/ycl9VI2pRMX9xdGduj8V4+7ufJaKF5UvTsoZ7Gdh5td9/v5bgeEQ6B6QOWbYv7ngRFdjfj766KNzRZf9nfNVwihhk4ox9w5PmzYtd33+8Y9/nLs6VwMyF5G4kMWAXtyvzIUpAjJdnLmQxTkwF734mqjzzjsvXwSb3DUCNlVpKtd0b6YyfO2116Yzzjgjv06A3n333XObaC/zZBmEaII7VWAC+Le//e18P/IjjzySbrzxxnTRRRfl+dFeQjb3KNN+/nbwmbPPPjt3GSdE0017v/32y129h2O7uMzRI2BAHuC25Cod4Zg/HHQjiZA8wNn5MQUUUEABBUaNAAGZE1gCMpVjAjFdMQnF8f9LXudEmiBM10ieuReRE3B+PxgV3wjHdNGmOsVJNNVkQoOTAiNVoHtApnJK12rOS7nHmGOHwEuo5aIQF6gIznyO+4I5Dr7yla/ki1c/+MEPcrCuBmQCKBe2uKhFdZeqdIxSTXiOajUV3EsvvTQHcIIxXzO122675QHCqgGZajEVYO4j5iIYF6yYD924aRMhmfkw8N4//uM/5nbzd4Pq8plnnpn/jhCwCeATJ07MF9VoE4GfijjvpWs2y6d6zN8TJwUWRsCAPEA9KsZc+eLqFn8g+J8+o+k5KaCAAgooULpA94DM/yMJyVS4uMDMyTEn8YyWSzCm4hUn4NV7DBfWkaDNfAkQnFxTAYvgvbDz9vMKDJdA94BMKCQcEpCp2HKO+oUvfCEHTcIwQffyyy/P56tcmOJ44J5henP8y7/8Sw7D1YDMcUOFmM8xUBdhOXpeEI6Z+DfnwdyjzPkvbWD0bCrJfCVTNSAT0v/hH/4hv8YFsBg8i78LDz30UK40n3vuufnvwCmnnJL22GOPvA7cM00XbarfdM3m66t4jb8XfJYAzeus01FHHZWPcUI23cCdFFgYAQPyAPW4csVVNQYR4Gocf5TowuKkgAIKKKBA6QIRkDlxJhTz4ISbf3OCzck1VSpOZAmwPHNSzokz4XmwprivefPNN88VJoIBy6F7p5MCI1Wge0Dm+48Jjhxj55xzTq4YEyb5PT0n6L1BV2QCL0GWrsg77LBDDqedAjLHJ+GZLtZ8VzIV2gi2HJ8cpxy/zI/u0Vz04uuVCOmdAjIXwk4++eT8GvPmIhhTjEJNV+zf/OY3+W8BAZlKM38nCM9/+tOf8gBchH6qx9xjTAimCzZdvK+44opcka5WzOk54qTAwggYkAeoR0DmytkNN9yQv+PNCvIAIf2YAgoooMCoE+DklqoOJ7V0qeZBSOZCcjUkE1bpbklAjq7VnHhHN2hOxhcmMDN/7m9msCJG0WXwIivIo253K26FugdkRn8mmDIYF4NWUb2lasv+vvPOO+cizq9//et8/FE5ptJLbwrm0ykgc9xyfy+DcPE9xvybgfO4mMXFJY4hjlcqu4RbbqVg5GyWRTu6V5D5N8GX16oTlWnayjyofHd/H7cwUiW+/fbbc1Dn3uUTTjghdxHndwwiFl91RQWZNlQDeHVZ/qxAfwQMyP3RqryXq2Vc+eLA5Aoa/9PnD5OTAgoooIACpQtUK8iEY06EqUJxLyT3HfJvgjKVJAIyJ95xLzLVIU6UCcqcjC9MQKaSxIk89yRuuOGGeYAfwndUsErfTq7/yBToKSATXAmOjI/D+SkD4O299975HJUuzOz3xxxzTK70cswRPjsFZI7Riy++OIdkjlsGxmKArPFdg2hxXPLguKLCy3y5fWIoAjLn2XxnM+384x//mHt/EJD5+0DXbqrcXAigssx6ckFgYS+qjcw9wlYPtoABeYCiXB3nf+4cvAwtT2DmarmTAgoooIACpQsQkPn/JJUnqktUj/n/JSfeTz/9dO7yyYk3/x/lhJaTbU7CGcCHyhb3TXISHF2vCbqc3Pc32FJNIhBzEs38WA7zWJjQXfq2df2HX6CngMw+ztcrMSDXlVdemb+OlJGjmQiUvH7cccfle3kJ0wyO1SkgE0qpOFNF5hgigPK1UTxzLPI7jm+W86tf/SoXiqhi00uDwbJYTl1lOAR7qyDTW5O/G3Tjpgs2fy+ogBPQ6cHJuTeDg9FlnIDO3w0nBQZDwIA8QMW4Os7Byfch84eC3zkpoIACCiigQMr/T+T/jfw/MoIyFWRuT6LrJA96YDGGByfCnHRT1eJ7kBl1mgeBmQcn3AOpKBOECcTMO07sDcfunSNdoKeATO8LAiVVZL5+iXuPGdyKC0RcpOLi06GHHppHvOa4mDFjRseAzOCzP//5z3MXZubJ/cyHHHJInhd2FIY4dm+66aZcQeZiF/cfE8b32WeffBwPRkCm8MR5NkGcwbj4m8E4AvyO7t9cVGMwMrqM004uqDkpMBgCBuTBUHQeCiiggAIKKNCjQJzo0t2a7picXHPyzj2MVLwIztyqRHitdrnmnsP11ltvQUWZ16gCR9jtb0W5xwb6ggIjSKCngMzFJS5G8TqDdT3wwAP5fmGCJMcRVVa+hon3MV3bde9vpwoy3bNPO+20HJC5OMXAXny/MF2YOZap/NK9meX85S9/yYODUV1m4C8qyNwuwYUvvuml073FQd1bBTneR1duulgTirmYxt8RQjnhn4o4AZm/C/QWcVJgMAQMyIOh6DwUUEABBRRQoEeB6HJdrSZzkssAl4RkTrbpfs1JdQx6GWGZCjLVZAYJisoyA28NxajXPa6ALyjQIoGeAjIVYnptECgZrIvvCaaSS2ClizSDaG200UZ54DpWp6eAzAWsiy66KAdggig9O/hOZY5FqreMuUN3Zy52MZo0VWt6aRDCI4Bz/NJFezACMn8fbrvttrw+3I/M3wjaRDCeOnVqHq2b5XvBrEU76QhvigF5hG9Am6+AAgoooMBIE+AknhNtumpysksw5qScLpSc0PMzXUKpVhGEGWyI+wsJyeO7BgriRJ2QbEV5pG152zsYAozefP755+fjhWOCrzHje775mYnbGOj+zNcgEVKpIBMkCblxcYn3ETZ/+tOf5mPtiCOOWDAPjj3u++UrngjAXNgifHMccrGLwfM4Ljk++WqpOIbp4sz9wLyXyjNfh3rBBRfk7zs/6aST8vxZbkwsh2OedtS9jwDOvLhnmq7jLI9qNV26999//9ztOubpswKDIWBAHgxF56GAAgoooIACfRbgJJtHVJSpRkVY5oSZqjIhmQoV4TkG8+L7VOl2TRDgYUW5z+S+cRQJMNAdg1Rxa8Lqq6+eK7d83zE/M1H1pZs04ZavaSLY7rvvvvnrzuL2BN7Ha1SKGUiPym/Mg4tXhGzmQRhnfnRfjgfhl2OPe5t5L+1gYC8CM923OUa5J5jPzZw5M3d/Puyww/L8WW5MLJfP0o6693H7BX8LuGf61FNPzX8rDj/88LTnnns6OFdg+jyoAgbkQeV0ZgoooIACCijQXwEryv0V8/0lCxA8H3300RwUqdpSFa4OUsUFJd7DbQtcbKLa22mUZy5CUWGmyzRdr6vz4IIVnyf4EmK5t5mJ0a/p3kxA5oIVE1VkAjX3BxPGeZ1u3XyGkE0op7LM/KsTy40Bvzq9Ly6kcTsG3ay5KECXbbpvT5s2LVeQ6U1CTxInBQZTwIA8mJrOSwEFFFBAAQX6LRAnwlaU+03nBwoUiGDJ8UJ3ZwJojPIOB5Vc3kNgJSxzfy7BlfdUJ15noCwuUBG0q/Ng3rxO9ZZ58DMT7+ERYwDwO6rIVIOZT1SZCdL8mwDMvcExEj3vj4nXYzmd3sfrrAtBfvbs2fkeZLpZ02X8xBNPzCNnU8Vm/Z0UGEwBA/JgajovBRRQQAEFFFhoAU6Mu9+jTDUr7lGmu2Xco8zJOpWsMWPG5K6d3P8Y9yjze0a35WSdIOEgPgu9aZxBgQIRuFn1ahftoaLg2CeUE7qpHtOlnPuhqWZz/zHjEBx55JF5dG0H5xqqrVD2fA3IZW9/114BBRRQQIHWCXSvKEcli5Njvh4q7k8mNPPgJJpKFNUkBvPiHkjuheTByLrcmxlfD0X3TCcFFOi7AMcjF62YuMg01McQF7/oGs4FMcIxD35muRzPDErGiNx08+Z3Q92evkv5ztEiYEAeLVvS9VBAAQUUUGCUCkRXTCpKdAklKFNF5qSZ0W25P5Hf0a2ULp7ck0hFmYA8YcKENL6r4sSgXnQzteI0SncSV2vUCMSo1dyXzL3WXASjqzcXurbffvs82FeMqj1qVtoVaZWAAblVm8PGKKCAAgoooEB3gagoR1dPKsqEZUIx4TiqylSWeVBR5r0EZU6kt9xyy/wVMwTl6G7dfRn+WwEF2iHAoF9ROX7qqadyOOZWCgb5YqRteohwbHvvcTu212hshQF5NG5V10kBBRRQQIFRLNCposzXQVFR5j5FQjOj+NL1kgF96JI5ZcqUXE1mcCHuR3ZSQIF2ClAt5nhm9GyeuX2CQMyxHKNn0xPErtXt3H6joVUG5NGwFV0HBRRQQAEFChLoXlHm62SoKNM1M+5Ljm6ZnERzUs09i1STrSAXtKO4qiNSgEDMMc0tEzxzQYxbJ6gYx+jZhuMRuWlHTKMNyCNmU9lQBRRQQAEFFOgkwAk0Xarpes0APwRlul/zM7/jK2YmTpyY70vmRJvqk5MCCiiggAKdBAzInVT8nQIKKKCAAgqMGIGoKBOU+YoYqk7x3a1Uoagar7rqqnkka7tmjpjNakMVUECBYREwIA8LuwtVQAEFFFBAgaESiIoyVWW6a9Idk+6Z3Hts18yhUne+CiigwOgQMCCPju3oWiiggAIKKKDAXwWiohzP/Jrvb+XhpIACCiigQJ2AAblOx9cUUEABBRRQQAEFFFBAAQWKETAgF7OpXVEFFFBAAQUUUEABBRRQQIE6AQNynY6vKaCAAgoooIACCiiggAIKFCNgQC5mU7uiCiiggAIKKKCAAgoooIACdQIG5DodX1NAAQUUUEABBRRQQAEFFChGwIBczKZ2RRVQQAEFFFBAAQUUUEABBeoEDMh1Or6mgAIKKKCAAgoooIACCihQjIABuZhN7YoqoIACCiiggAIKKKCAAgrUCRiQ63R8TQEFFFBAAQUUUEABBRRQoBgBA3Ixm9oVVUABBRRQQAEFFFBAAQUUqBMwINfp+JoCCiiggAIKKKCAAgoooEAxAgbkYja1K6qAAgoooIACCiiggAIKKFAnYECu0/E1BRRQQAEFFFBAAQUUUECBYgQMyMVsaldUAQUUUEABBRRQQAEFFFCgTsCAXKfjawoooIACCiiggAIKKKCAAsUIGJCL2dSuqAIKKKCAAgoooIACCiigQJ2AAblOx9cUUEABBRRQQAEFFFBAAQWKETAgF7OpXVEFFFBAAQUUUEABBRRQQIE6AQNynY6vKaCAAgoooIACCiiggAIKFCNgQC5mU7uiCiiggAIKKKCAAgoooIACdQIG5DodX1NAAQUUUEABBRRQQAEFFChGwIBczKZ2RRVQQAEFFFBAAQUUUEABBeoEDMh1Or6mgAIKKKCAAgoooIACCihQjIABuZhN7YoqoIACCiiggAIKKKCAAgrUCRiQ63R8TQEFFFBAAQUUUEABBRRQoBgBA3Ixm9oVVUABBRRQQAEFFFBAAQUUqBMwINfp+JoCCiiggAIKKKCAAgoooEAxAgbkYja1K6qAAgoooIACCiiggAIKKFAnYECu0/E1BRRQQAEFFFBAAQUUUECBYgQMyMVsaldUAQUUUEABBRRQQAEFFFCgTsCAXKfjawoooIACCiiggAIKKKCAAsUIGJCL2dSuqAIKKKCAAgoooIACCiigQJ2AAblOx9cUUEABBRRQQAEFFFBAAQWKETAgF7OpXVEFFFBAAQUUUEABBRRQQIE6AQNynY6vKaCAAgoooIACCiiggAIKFCNgQC5mU7uiCiiggAIKKKCAAgoooIACdQIG5DodX1NAAQUUUEABBRRQQAEFFChGwIBczKZ2RRVQQAEFFFBAAQUUUEABBeoEDMh1Or6mgAIKKKCAAgoooIACCihQjIABuZhN7YoqoIACCiiggAIKKKCAAgrUCRiQ63R8TQEFFFBAAQUUUEABBRRQoBgBA3Ixm9oVVUABBRRQQAEFFFBAAQUUqBMwINfp+JoCCiiggAIKKKCAAgoooEAxAgbkYja1K6qAAgoooIACCiiggAIKKFAnYECu0/E1BRRQQAEFFFBAAQUUUECBYgQMyMVsaldUAQUUUEABBRRQQAEFFFCgTsCAXKfjawoooIACCiiggAIKKKCAAsUIGJCL2dSuqAIKKKCAAgoooIACCiigQJ2AAblOx9cUUEABBRRQQAEFFFBAAQWKETAgF7OpXVEFFFBAAQUUUEABBRRQQIE6AQNynY6vKaCAAgoooIACCiiggAIKFCNgQC5mU7uiCiiggAIKKKCAAgoooIACdQIG5DodX1NAAQUUUEABBRRQQAEFFChGwIBczKZ2RRVQQAEFFFBAAQUUUEABBeoEDMh1Or6mgAIKKKCAAgoooIACCihQjIABuZhN7YoqoIACCiiggAIKKKCAAgrUCRiQ63R8TQEFFFBAAQUUUEABBRRQoBgBA3Ixm9oVVUABBRRQQAEFFFBAAQUUqBMwINfp+JoCCiiggAIKKKCAAgoooEAxAgbkYja1K6qAAgoooIACCiiggAIKKFAnYECu0/E1BRRQQAEFFFBAAQUUUECBYgQMyMVsaldUAQUUUEABBRRQQAEFFFCgTsCAXKfjawoooIACCiiggAIKKKCAAsUIGJCL2dSuqAIKKKCAAgoooIACCiigQJ2AAblOx9cUUEABBRRQQAEFFFBAAQWKETAgF7OpXVEFFFBAAQUUUEABBRRQQIE6AQNynY6vKaCAAgoooIACCiiggAIKFCNgQC5mU7uiCiiggAIKKKCAAgoooIACdQIG5DodX1NAAQUUUEABBRRQQAEFFChGwIBczKZ2RRVQQAEFFFBAAQUUUEABBeoEDMh1Or6mgAIKKKCAAgoooIACCihQjIABuZhN7YoqoIACCiiggAIKKKCAAgrUCRiQ63R8TQEFFFBAAQUUUEABBRRQoBgBA3Ixm9oVVUABBRRQQAEFFFBAAQUUqBMwINfp+JoCCiiggAIKKKCAAgoooEAxAgbkYja1K6qAAgoooIACCiiggAIKKFAnYECu0/E1BRRQQAEFFFBAAQUUUECBYgQMyMVsaldUAQUUUEABBRRQQAEFFFCgTsCAXKfjawoooIACCiiggAIKKKCAAsUIGJCL2dSuqAIKKKCAAgoooIACCiigQJ2AAblOx9cUUEABBRRQoN8CH3/8cfroo4/y48MPP0yLLLJIWnLJJdPiiy+ef+5thp988kmKebz//vv57XyWx6KLLpofvc3D1xVQQAEFFBiIgAF5IGp+RgEFFFBAAQV6FPjggw/S/Pnz8+Ott97KwXbVVVdNyy23XFpsscV6DcmEa+bx9ttvp3nz5iUC8worrJA/v9RSS/U5aPfYQF9QQAEFFFCgBwEDcg8w/loBBRRQQAEFBiZAsJ07d256/vnn05w5c9LSSy+dttxyyzRu3LhEwCUk101UjQnWzz33XHr44YdzJXr8+PFp7NixaZVVVknLLLNMriJTmXZSQAEFFFBgMAUMyIOp6bwUUEABBRRQIL300kvp/vvvT3fffXeaNWtWWmmlldLhhx+ettlmm1wJprt13RQBm89ffvnlicA8adKktNVWWyWCMtVoQjbdrZ0UUEABBRQYTAED8mBqOi8FFFBAAQUUyJVfgvGNN96YZsyYkQPt9OnTc8glLFNRrpveeOONXHnm8+edd15699130wEHHJB22WWXNHHixDRmzJgF9yPXzcfXFFBAAQUU6K+AAbm/Yr5fAQUUUEABBWoF6BptQK4l8kUFFFBAgZYKGJBbumFslgIKKKCAAiNVwIA8Urec7VZAAQUUMCC7DyiggAIKKKDAoAoYkAeV05kpoIACCjQoYEBuENtFKaCAAgooUIKAAbmErew6KqCAAqNTwIA8Orera6WAAgoooMCwCRiQh43eBSuggAIKLKSAAXkhAf24AgoooIACCnxawID8aY9S//XJJ5+kjz/+OPHMIya+v7r7I14bTc8fffRR+uCDD7IB68XXki2xxBK9fg94WwzYdh9++GFuPz+PlPZHu/Gn/bSb719ffPHF20LbynZU91fMeGDGc2mTAbm0Le76KqCAAgooMMQCBuQhBh4hs48T7ghZ0WzCMSfefJf1aD4B5+vJXn/99fTee+/lVSek9eVrzsJpuJ/5/nG+k5z14Ge+v3yVVVbp9Wva2tJu2s6DdvPVcMstt9xwN63Vy2c7v/baawu2NV/Hh1lv31vf6pUaYOMMyAOE82MKKKCAAgoo0FnAgNzZZbT/lipxVO0IVO+8804OKFRRo4LMc1SmCIzLLLNMru5xEk5YjsrySLaigokDYePJJ5/MBoQNwuXaa6+dVlhhhRGxem+99VZ6/vnn06uvvpr4efnll08TJkzI32ve5hWIdr/wwguJB+3ebrvt0tixY9vc7GFvGxdznnrqqcT30HMcrrjiinl/5ZmLWfyulMmAXMqWdj0VUEABBRRoSMCA3BB0yxZDpZhq6ZtvvpleeeWVHKwIV/yOE2wmwmNUkJdddtkcGlddddUcuqhWjYaKMhcEuDhAOL7llltyFZlwNn78+LTpppum1VdfvWVbrnNzXnzxxXTfffelJ554IvEzVdgpU6akDTbYoPMHWvLbaPe9996b7r///rTGGmukqVOnpi222KIlLWxnM+bOnZvuvvvuNGfOnDR//vy02mqr5QsL6667bnFd1A3I7dxHbZUCCiiggAIjVsCAPGI33YAaHhVTKncvvfRSrtpReSQk8ztep1JM5ZjKKg9+x/24VFMJMJyEr7nmmmnllVfO7x3J1SouEHAMPPDAAzkgE5i32mqrtNlmm6WNN9649RXY2AkISjfffHNeD35eZ5110hFHHJE233zzeEsrn6PdXJzgQbu/+c1vpl122aWV7W1Lo+LCwkMPPZQef/zx3L0as4kTJ+ZjtKQu6gbktuyVtkMBBRRQQIFRImBAHiUbso+rERVTtjtVu0cffXRBFYpu1HRx5d5bulFTZaY6RTdOqqwEZboe03WXE3EqrARmwvRIDcnPPvtsuu2223L1lSoylbj99tsvVzBH0j3IdLe9/vrr0z333JOefvrptN5666Vjjjkmbb311n3cM4bnbdFu2s5j/fXXT9///vfTHnvsMTwNGiFL5X5tLnCxva+44op8cWvbbbfN23vLLbfMPQhGyKosdDMNyAMk5A86f9i5v4QdinttuCLqpIACCiigQOkCnGTRtZHuerNmzcrh6PDDD0/bQYCOhgAAJM9JREFUbLNNrhj2NugL/1+N7n6XX355/n/spEmT8oka3VQJVHG/ap013XqpUlL5oDJJl96RHLzq1nU4X6NKzL2eVJ6oOBKmCMJ407WYgEgwZFtEQKbr9csvv5wfnFOxfQjIhBiqrFSc2ca8RgDnPIv7l5kHz/yb38e9zYRpXuNeX/av6nbmPTyiCzif45yt+tnYV2K0Y+bX34AebcXhkksuyVU42rTJJpvkgMx6xX4b7431iKo625G2R3tYF+ZRXR/eS7d15sHvmfiZ9Yt143fVebBe/Ls6xXxoA5/l30xhyQWPG2+8MV/0IHSO7zr2TjjhhERo6m0Kb+bNg3nH/PksbcGC9eOZR6xLtKu6fjG/6vrRzlhHtjtO/I6LEtdee21+zJgxI43vavcpp5ySdt999zzgGPOPZYZtdX1YLu/BhLYzz+r8q+/t/nO0czjWO9rSvf2xbWlbmLH+rHt1v+B97Fd0q7/44ovz/cj8raXnQ3StZ3uVMBmQB7iV2YHoPsT/+OmGQFBm9DcnBRRQQAEFShcgMNFdjxNsujtyckkFYty4cX26l42TS7qp8v/Zhx9+OJ+ocpJL2OJ+1eiuy8le3cRyCWbcM8kgPXS1rJ4Q1n3W1/ouQDiOiyEEZEIMXYrpiks45N7VCC+cpHMOxT7CvsGFlEceeSSHGrYvF1J22GGH3N2a7cd72RcI04QWgjQBgH/ze07qmTjhZ1szD95T3c68nzaxTD4X1Wt+x0Tb2KcYjIj7g6l4dwpO+c01/4m2cm547rnnpnnz5qXddtstrw/3v+LAPkt74r20h8GRKLpU14X2sD60h27o1fWhAs/nmAe/Z+JnLiyxTH5miv2fY4b5cMGiOsV8OIfFkvNY2sa6Y0G76BHA9uGiB8dRXwIy25j50B7aSZv4mXbxe4Iw7caZtrGs6mjJ0a5YP8zYVvw+rJgP4RgnQhzbnfkwb8J8p4D8mc98Jv9NYb4sD9ewrbqwLLYHJtiwnOr8e/q7M9zrHe3q3v7Y3zHjOGG/iF4d1f2C9nOMcVzSNZ1KMtuedT/yyCNzDwi2VwmTAXmAW5kDh2D8l7/8Jc2ePTtf6ebgd1JAAQUUUKB0AU5AObnkxIyTY064CcecwHKCFpWinpyiksHnCdqc2MWJNCf5zI+TwTgh7Gk+vJfuuoRzKiB04+WEms87DZ4AXaovvfTS3K2YAZ2oGB9wwAFpxx13TBtuuGEOMNWlxfblAgj36d56663pqquuyvvGwQcfnOgtQNWK8MJ+RJflBx98MFfzuMjBdieUE5a4mML8OLlnH6EKzf3MtIFtzRQ9/uiVwMl/DBxWDaQENj7P/LkXmtAVn6+2ve5n9tdnnnkmV9HPP//8HKy+/OUv53tfmWfcwxkBkPUneNIe1oNwwroRyKjU0QbWhWOH/TgCLqETN44t2shnWBcuAHDfN/PnmGEehOy11lprwX2kse8ToujpwQUoLmTxWdqAI/Nk2XGuyzphRwX8hD5UkJkP58Qcu+wPLId58XvaxfFPO9i+rBcBDHfayrqwDqwf25e24MHnwo220n4m5sPnOcYZIZz3s407BWT2Kc7ZmS9/i9gmdL9mudWJttNmtg/zYp50K2c70Jae/n4N93rTNrYfxwxtx5/1iIsKvIYXAZl1wp6LHjyz//O3mYmLAmw3QjKVZPYj9mOM237/eXU7LszPBuQB6sUfDQIyV1jYCTlgnRRQQAEFFChdgBNFTtI4MePBSVkE5LoTzHAjKBCy+SwneNWAzIkdJ2ycSPc2EUg4+aN6t/feexuQewMb4Ot33HFH+uUvf5m7ZmLOifTnPve5/My/2V7ViRN1tjGBh5Nx7tel4sq5FJ/deeed0+TJk/O2I5gRaq6++uq8T3GCTvWLkMg+xn5CoCEsEnCpPlO9pnJNSGaKQEmQJ5CyXxFyIuiwf/EgKBGYCIIDGW2aUHLnnXfmwE/XZPa96dOnp5122ulTAYR9mm6sdMWmTbSHcBIXj2gL60WA5AIDoZ91ogLNRIGGCwqsC8GG44vPEhqZFx58nvmwjuO7el/stdde2YR5MmFHdZB7dKm48l6OKeZFEKcKzzwIiPhxjov9CX0IyFwo4KIG60bPArYr7Yhjlu3P8tgvWM5GG22UL6ZwMYDlP9nVRZr1I5hzvBPoeC/rx8UE2s55eDz43D777JP3HSqiLO/aDl2seR/31rJOBGSWyyBUhPPqFPsL24cLCOxXBx10UN4OtC/2m+pn+Hm41xsnjLBnP8SR4wKn6vZlO/Bv9idue2Efq17AYbuzH7EPn3baaXnbH3rooXn/OeSQQ7qv9qj8twF5gJuVnYcrbrfffnt67LHH7GI9QEc/poACCigw+gQ4QSfYRAWGEzeCDyGZE3pCct1EwOaEnM9372Idlb3qCXdP82K5nIATELbffnu7WPcENcDfR9CZOXNm+slPfpKDGyfcVID33XffHEDqZs1JOpXPu+66K5155pk5MBJcuMeV0ZIJLoSZm266KVGR5aSdsElFlCk+T+Ak7HHiT5hkW3MvM4GIIE6gvOaaa/J76EZMmCT0sH8w8TuCBOGC3xGQ6XFAcOjLBZ08k67/RHBlfaJL8rRp03L3/ngPz7x2ww035O7l7OM4EqYJ/rSN44eQw3GABxd4qMjTLia6pf/ud7/Lz/yb92DC5zHhc1x8oBKLH/Pef//9czuosrI82kB4JUgSCKnCcmxxQSNCN2GUyj2+fIbt0ltA5n2sExdNuAhASKY9zJ9wjifOhFyOcdaVwb8YxIwAzns4r2b9qCLzfo7hWD8+y/aKvzHMn3bzeXosYERQ7RSQWfc///nPeZ2YD+8l+HExhH0nAnwM8kX7OddnP2J/ZDvERQzcq1Mb1pttx7qzzbigxLbndzy40EC4Zwo7LjpggDsVckIyUxxXVJD/67/+K29PLlpxPJ500kn5PaP9PwbkAW5hdh6uyHDlkwOcA40/wk4KKKCAAgqULsAJ9VAM0kUVjbBLuOlLcOE9nBRygshJNpWxvgTr0rdfX9c/Kv3XXXdd+tGPfpQrdwceeGAOp1RyI8j2ND9CBQ+C0B/+8IcclAmqdIUlWBJQI6ycddZZOSDvueeeOajxGvsB25P3EICpmDGxnxx99NE5LHOuRljj84QdwhAhulphJggStLgYQyjiQg6jNRO0q8Eiz7zmP6zHhRdemAMKb2NZX/jCF/L6VD/Gshh8jkBN+wkmtJkQyf5KwKSqzvyoonJrwN/+7d/m6jjzoeci68O9zpyD0l4uCBB0mBchjgBK5f1Pf/pTDqgEfi4usBwuStCtnSIPIZl1nNxVscedsElQ5GIEFrQTX44dAugJNRVktiXnx7E9CWpMBFOWzbFL+Ca8cwGA+5u5uMK8P//5z+f58162I+tH+9h+rB8DbLHd6BUQFxFoH+tH4GP+hDgerF+ngEzFmOUxXz5L4GN92FerlWH+dnFBhosuXDDBhQoy+0w1SOeV6/pPW9abiwvsL+w7uGCHG/sFrjhT4OPiCNuf44H9j/30sMMOy76sUxyXXOg544wz8rHBvskFmJ/+9Kex2qP62YA8qjevK6eAAgoooEDzApx4cfJOFz1GkSXI0NWUyiLdWKNy11PLqIJQ/eDz5513Xq4YUUGL7+Ska2BPlZye5unvB1+AyiDhhG1MQGa7HXXUUTlsEWbo7tqXKQIjJ+2EEqpaX//613MgISwRdjhRp3LIiTwn/YSW2A8ImpdddtmCe6AJMt/4xjdyrwWqqFRr6SpK+KayTdAjdEYXbIodzIN9lvlQkT3xxBPzAFtUXwkWfZkiUFAB5eIA1XQqmwSz6hTrxD7OsUAAjHDLRR2OH6p3PDDhPtHvfve7eb2ZD8s5/fTT82v4c7GAIB7VdUIov+fzv/jFL/KFiwiQu+66aw5O3DNON1x6elAh5fNUiDk+CUi44UEll67GtJNBrgiUPY1iHRdMCGi/+tWvchDDmQHy2Ga0k7YR3FhHegb89re/zf/+7Gc/m2gbAZ4LBKwf7Wefwu+LX/xi3m5sc9rCvkD72C8IfCyH7UqlHMNOAZleLIR3BpJjOxMo/+Zv/ib/XWG9CckUvLig8utf/zqHeKrGBGj+duHUaWrLenMhkG3K380rr7wyd0uPCw/sj1wIISBzfzEXCrgQgDXHC3+fuSBUvYCI1QUXXJDfx4UP9gv+HpcwGZBL2MquowIKKKCAAg0KGJAbxB7GRRFSqDQSkOliTfCh8ko1klBDNbIvEyfs3HPKiT0n+ATC73znOzk0RpgkCBFgvva1r+X7aQm3BAIqegRNwhZBmLYQZL73ve/lgExY5XfnnHNOrqRyDyXdSelRQFhjIhRRiaXi+sc//jEHLEbtpSpbDdK9rQthli6pBDaWQShlHtzXXJ0In1SrCacEFgIdYY32sD4EeUyoFHOPMJXXk08+Oa8384mAzDMTwW/q1Kk5uBKCCDlUUSPoUVXkggVBj/ZQXeaebyq8LJNwzj3jVBIxZuLiBx4EJJ5pJ+G1LiDzHvYHtsN///d/53BLF2ZG8mb5XGxgXQmU7CsE6dO7gjDtI6QRwLmXmFDM73mdoM/6EWR5nXDM+hHYWD/2CwI8F+EIeIyCjkGngMz2wJ59hS79rCMXBrjwhjGfw4bXubDAsgmYvF63P7dlvdl2VPy5AEC4JfTTo4OLSbhhjxtd6rkQxXvYthxv3/zmN/NFAObB+5g4drhnO8ZawoMLCyVMBuQStrLrqIACCiigQIMCBuQGsYdxUQQDwgxhhIDMCfSxxx67UAGZ7q9UGgnIVO+erFSQ6eJJ8J3cFcAJdnEiHwN50Q66ONPNmO+9JRjEfba///3vcziIIMhnCVrViVBKV21+T1CLimbcm1l9b6efqcpRSaf7MG2k6kgoo3srU3TFpWLNesVI3DhG112eufBAt28CDN3XCTCsD/NkioBMBZCLBFR0CfQE3eoU72NZBEDexzwI4ARQAhDVa35P5ZUQWJ0InoxizHwIloTcE2oqyGz/GCCLgEwYo2s4y2Q5XASoTgRcBndjPbmYQqWZe33xoH3sC/xM+/7u7/5uQRfzmEesHyGP/YH30bWe5bAv8ODiCOuOHxcHmB+VZyrE7DdcNCB4U31m/2LbRc8VwiLBnO1I+wiZnaa2rDf77f/8z//kyjv7FheRuCWh+wUaurhzGwz7O3bcA/73f//3+UIAFwnoncPEfoMhzryX/Zb9sYTJgFzCVnYdFVBAAQUUaFDAgNwg9jAuiiolgYOT6H//93/PwYtKJoGIamR/ulhTmaLyRVWTLtbf+ta38jziJJ1KIRWxf/qnf8rzJwwQJpkIk1TEaAeVYqqJBCLmQzddfs/8qVxyLy6BMwJplY/qJ/fbEhLoHk0VmOol3Xr7MhEefvCDH+TgS6WacMJ8uH+TieVTreb4ILizLEIHvyN8RfUOVyradPsmrBFcOwVk1pm2EQy5R5Zqd3WKAIkhIZH3sW0iIBN6CEf8nlHecalOLJ9va2E+BEcuXNQFZC6WUA3Gm+DLIFAM6sQyOwVMegsQVAlprDsB+Stf+UoO1gRkXidk0z6CKq9Xp1g/LNkfeN9xxx2X9xPawKMakBnJm/lx/zEXUvAjWHMhhu1F13rmRYCmikzFm+USnmPbVJcfP7dlvdmnf/Ob3+R9nm3M8YJZ7H/RXva3GEGeIM0+QBd29lUuuLDdmOLYYztwMYV9lYtAJUwG5BK2suuogAIKKKBAgwIG5Aaxh3FRhA1CH92Af/jDH+ZgyD23VOqozHHfY4TYTs2kosrnqSAySBcn4oRdKr9f/epXcyCLk3QCMt2iq0Ex5kkY6PQ+giVBh5BE11PaQqWU4NwpIEdw4J5jqm6ESubR167iLOdf//Vfc2WSrrkEsurowHHPNt2rqVQTkAleLI9lEE6obEdA5n2EPNpRXe8IhgRYupMTDKl4E2CrU7wPG+bB+wir/QnIdH1nPgTf3gIyFxgiIHMPMqH/29/+dl4m4ZMwWp2YLwGZUIoD7aMHAvsVAZnXmfh9p2Ae69f9fewnuPGoBmTWnSn2FT7HNiAgcmsAbeQz7I9UzFnfL33pSzlA5w/28J+2rHcEZLqm01WcCnIch9Wmx3HLxS2CMgGaKjnryz7ItmAKJyr9jBNAQOZ4KmEyIJewlV1HBRRQQAEFGhQwIDeIPYyLIuDyoPL7s5/9LFeZCLeMJMygS4RLAl9PIZkgSHdigjH3xBIICSnR1ZaAHSfpAwnI3NdKWCAkXXLJJbkyfPzxx+fA1aldrAttIsgRsgitPKgo92XiQsG//du/5YGPYjRv1oXuxUyEEYIXbWJ9uReU8EfXZYIuyySccH8uXWDpYsyFAwJMp4BMBZggzzyiMl5tZwRIDDsFZKqCdP/m852+losKK27Mh/ZQoe4UVGOZVL2pSBIyTz311LztqSBzoaCTI9s9vj+bbtHcQ0xXcS5UDGVAZl0IwfQu4AIA7lSKuVDB6M8MXIULlWUu9hCg66a2rDddoxn0jP2GgMw+1anrPOsSF6e4QEXXct7LNmLf59hgYr9hW0ZA5uIVx3oJkwG5hK3sOiqggAIKKNCggAG5QewWLCq+doiv7eHkmmBKl1/uiaUixUk3J+8EZU7MqWARRLl3k8DICT2DQfEzXZrp0kqoIrjESfpAAjIBh/t0Cch8bQ8VTUbrZdAlAll0Ja1W1AintJXqW1Q9457M3qjpDh33INO9mqocFwviHmRCC+GLrtgEQ5bFoFK8hxBGl1iMqNRRsaNad9FFF+V7qv/5n/85m9CVmIorARKbakAmBFenngIyXYLPPvvsBd87jfnBBx+cg3qEI4JTdEVmeWwrPOsCMutD21m/n//85zno8n4s+EolPJmYNyGY7U6lmUo468G9wIxWT+DsT0CmfbSboE8FGkeCHY9OFeQItIQ9AiX7JF2M2R8Y3ZtKP/sfgZ19mX2hbmrLerN/M8gcruxn7FPc083galx4iW3LsUeb2Qbs+1wAojs5QZn3sI8xcQGGCwhcyKDSTqWci0AlTAbkEray66iAAgoooECDAgbkBrFbsCiCGkGEyiihivBJBZl7Gqmeck8w1TlOvjkhj66dDJJEECTIMfIxAYXKK4GRqirBlHkTdAYSkOleyr7IST2Bi0DA11AxqnIEUvj4fYR1uggTJlg+9/fycwSG3qgZxfo///M/c5tjFGuCVgRXAgYjXGNFe5gvg1hRpeR+bS4kYEMYIbwRuGk74fH73/9+mtzVRZj2cM8unyfAVLtYd7+HuKeATDjiggQXNlgeleEIUoQsJir7VA4J0nHhg8B4Qs0gXRG8uE+V0by54EEFkwsF7Asx2Bnzpps3FVxGk+Z9cTGBiyMM9MX60X4mgm+n5cb60T7azfvYvgQ99hkenQJydHWPr4miokw4Z2IfppLKfGgL4bi3HgRtWW+OOy5O4IoNoZdBy1gPLjbFtuVCDccF24B9nwsX9PbgOOUCTfT44Njk3n32E3o70APCUazzbuJ/FFBAAQUUUECB/gkYkPvnNdLfTcChOy6VK+6tJWxSPeakm+op4Y+Td8Id1UMCGifpdMflJJxAyD5Dl2q+FohuyXyGILMwAZlRqFkOwTWCGOGb8Mp9yIQfQirLIbwS2GkLAYvPEqKrFbXethOVNiqirBPdolkPAn8MnkXllq+kIvQymBKVSwaligDDsgiPvId54Ulg4yIDozjzXcK0Geuzzjrr/wvIfb0HmeVWK4NYE2TpHk/FHxOCM8GT0b9ZHuGKENkpqIZLVOJpOxc0sKRNzDe6mjNvghbWBC++RohARuWYEb95PxcR2F6EPOZJuO603AjI9BJgmxGQqQRzMaYuIEc7udDAqM+M1s1nCIsEQfYNBvvigkC1y3GsZ/fnmN9wrzfbkXVif2cf4wITYwJQQeZiD9uWiWBM1Z5ntgf7avUCRqwf3dC5kMJzBGf22xImK8glbGXXUQEFFFBAgQYFDMgNYrdgUYQ6Aib3EFPBorJJVY1wQTWOChUBmRN2fs/76ebKZ+iSy8T7GPmaEEhI4rOE24UJyHTtJfQwMjZfV0TQI4SyLMIvYZOqNe8hLNAW7rMk1BMY6V5LmwkRfZkIagQKquiEJi4ScE8tXZOZCIYEMCp8cQ8ywZEKMxU+2hIXEGgL9wjzXn7PKNOEe+ZFhZVgR5Ck6zLBkIp9XwMyYZA2UiFm/mwP7AniBE2Wx8RxTEjnQgZutLVTUM1v7voPwZtHdM3FHVeWx8USKprMmwsozJtuwARlLozQJZ8LF2wbthOjkROAuXjR0/cvR0AmwNGtGoe670Ge/NdBuqKdsW9RSWbb4YABFwIOO+ywHOzZ9lFRjfXs/hzzG+71Zl/AlAsPXKhiP6Fqz4MQzLZlip4M2HIMsJ+zb/H56sT+wa0ArFfso9xjX8JkQC5hK7uOCiiggAIKNChgQG4QuwWLigoaQYqTc4IyXZUJuARMKsdRieO9BFLCCGGZ8MFJOlVWTtSrXw8VFVe6GxM8CdoM+sQ9xNWpt/fxFUVU1QhS/Mzy6U5KYKBdtInQRmAg7NBVmUGvCJz9qSATJAgmBDd+pms098QSLOPiABcGqMwy+BUVVoId60VbqNKyPNpEtY+uv1SQCda0Je7PpgJPV1fCJYGOCm10G6+6EPq495qKNOGHwI4dyyRI8TrdodluLJ8gSxt40Aa2Ea+xHQnubBsqtMynbuIiAOGYB+asM8E3vKlOs254s55UbOlmzjoSoLkwwGBZEVrZLzotN9aP93MBBgcubNB+9hkeXABg3TvtN1HFpns/24N24chFGtrD9uvPNNzrzUUfrKkOs97sg+zX7Hv401Wc443tSq8PrPkMtxNwcYEQzcS2Ztvgx/dZ4xSDlXFLQAmTAbmErew6KqCAAgoo0KCAAblB7BYsKipoBDcqsGx/TtI5seaEneDBSTdTVOT4DIGMcEzII4xQ6areKxkVV4IWQY73U9kjqFWn3t5HwKNNBFK6PxMOWD5hIe4xjvZQ5eS+XkIZbeM9PPoyUbGjMksYj9GRp02blqtzhMMIyQRWqpa0hwCDDa8R7AiMdIclpBNkqOIxXwIrQY+wTXsI4VQCaSMhh3BI26sTFWbCH8GN7re8DzsCOcvlYgFhnfbEBQI+TzsI0TwzcUGBbUull/DIfOom2k3lmIskeBCymQcT3lizT7CuzGt8VwWdcMxFC/YPwjs+tJ959bTcWD/WAx/mRXd1fo6ATvdp1r3TfkOVnv2U7shU9LlQwr3YhEFCI5/rzzTc681xxEUnjsEnu+7dZ//CiP2fCy/VB/sQ3rizv1crzHEcs++cdtppeRvw/eb0XqAnQwmTAbmErew6KqCAAgoo0KAA1SGqO4wuy4kuJ9t0feQ+Nyo90YWzpyZxsk644vN8fy3VDAbxoaslJ9Oc2PWnstfTcvz94ApEJZngRmhhP+BnAiyBiGBEEIwTdQISoS4ehMjqdmW7E7AJWFQJ2W/Yh6LSFa3v7X0R8AjGBAaeCQEEUwJZtIfgyLxpD/tYb4MzxfLjmSBCuCMg/+53v8vrG6NUE26ZP1N0cWW9CGn4YMP6cXxEQOZ3BHocWQeOI7oqY4gvppjR1mrAifYQlPg8htX3caGBdY/tRACnHRx3BCzawbL4TBjgRfup9rK8uin2A5ZPFZP5M2/WIS6QENBYBqGW9eXnCOThw+fZtrzWabmxfrSdbUi7uLBACMeWB39HWI/qfoMrbWQ/wIfRwumCz/Kp+PO3pnrPbt26Vl8b7vWmSsxEUMcQd/Z3fOICFfsO25ftyvu5nSD2dV7DBle6ueNS/Xo0DLlwVMJkQC5hK7uOCiiggAIKNCgQAZewQHWKE0+qD1SCqO5wMls3ReCh6kd3XU7aCcaEgDiZixPtuvn4WrMCnFzziEBKgONnth/PvBYBmYDEfsD+EA9e4/c8mAgcfJYTfkIe27xaYY616+19EVzYrwijPBMYePAay4vgwL5KewgRve2nsfx4Zr7s+1R3zzvvvBxsCRVUfRlRm/2fCQvawXrxGdaRtrB+LJs2cPGAKSrwtJPgR9ijvQRWfldtNz9XJ+bN55l/9X2sV/ftxHtjW9EO2sDywoD2xfKxqZtiPwgP9oNYx/BmvsyHsM46V5cVPny+ut7dlxvrxzMmvI4b7cc2Hqx7db9hXfgMFW7useZCHJVu/r58+ctfzoNz0S7a1J9puNc7fFg/DHGPi1P4M2HBA3/Wj6DM56rb+cm/jkrPgF8YUWHmXnq61vd2caQ/Xm1+rwG5zVvHtimggAIKKDACBeIEl7DACTonZHQF5aSTEzFOYOumOMHj83TV5CSZ6hWf58Sd+UWIqpuPr7VDgO3HNmXqy/ZvqtWD3a6YHxd1+D5duu8SQqhq8nVPVH8JJN2DV3xuuH2Guh1DPf/e9hsCI1V+HvxdIvwRjrmQR4CkuzGjjlMlHcz9dLjXu6/L54IClWfuG7/yyitzLwWq93TL55589uMI4b1Zj/TXDcgjfQvafgUUUEABBVomECdknHTyIBBHlYJg21u4pRIT86DSwxSVD+bVW8BuGUfxzYnKGhB92f5NgQ12u2J+dG2lIhkPLupwXyu9KOjSGl2tYz3jc8PtM9TtGOr5h2dPz9yLTfij2zHd1vk3Dy5a0IWbIMg2onv1YO6nw73efV0+Xc7pWk3lmMHhMOCebgaHiy7upfztNSD3dBT5ewUUUEABBRRQQAEF+ilAzwcCGGGMAaC4yMMowQykRZUy7hXt52x9+0IKcMsGXaq575iLGHQ/JgQyuBVd4AmB3H8e3dsXcnEj7uPcr004ZmAzej9QPabnAwOWVbuoj7gVG0CDDcgDQPMjCiiggAIKKKCAAgp0EqDXBN15GUjrzjvvzPclE8IYqItBqQgeTs0LRACkgsytG0wEP6r6dKumcsz90PRWKXGigkw4ZnAzuqBzIYfqMfsutwXEfcol2BiQS9jKrqMCCiiggAIKKKBAowKEsPgqJ6qSBOOSK5SN4ndYWGwPqvtUjwnCDDrFNuErxhgAreSJe7OpsvO94kzcCsDAcoysXtpkQC5ti7u+CiiggAIKKKCAAkMuwGB1dLdmgDKqb1ThSq5QDjl4LwuI7UF1n21C92rGRoiRw0utHAcbPR8YHR0nJvZX7s8u0cWAHHuFzwoooIACCiiggAIKKKCAAkULGJCL3vyuvAIKKKCAAgoooIACCiigQAgYkEPCZwUUUEABBRRQQAEFFFBAgaIFDMhFb35XXgEFFFBAAQUUUEABBRRQIAQMyCHhswIKKKCAAgoooIACCiigQNECBuSiN78rr4ACCiiggAIKKKCAAgooEAIG5JDwWQEFFFBAAQUUUEABBRRQoGgBA3LRm9+VV0ABBRRQQAEFFFBAAQUUCAEDckj4rIACCiiggAIKKKCAAgooULSAAbnoze/KK6CAAgoooIACCiiggAIKhIABOSR8VkABBRRQQAEFFFBAAQUUKFrAgFz05nflFVBAAQUUUEABBRRQQAEFQsCAHBI+K6CAAgoooIACCiiggAIKFC1gQC5687vyCiiggAIKKKCAAgoooIACIWBADgmfFVBAAQUUUEABBRRQQAEFihYwIBe9+V15BRRQQAEFFFBAAQUUUECBEDAgh4TPCiiggAIKKKCAAgoooIACRQsYkIve/K68AgoooIACCiiggAIKKKBACBiQQ8JnBRRQQAEFFFBAAQUUUECBogUMyEVvfldeAQUUUEABBRRQQAEFFFAgBAzIIeGzAgoooIACCiiggAIKKKBA0QIG5KI3vyuvgAIKKKCAAgoooIACCigQAgbkkPBZAQUUUEABBRRQQAEFFFCgaAEDctGb35VXQAEFFFBAAQUUUEABBRQIAQNySPisgAIKKKCAAgoooIACCihQtIABuejN78oroIACCiiggAIKKKCAAgqEgAE5JHxWQAEFFFBAAQUUUEABBRQoWsCAXPTmd+UVUEABBRRQQAEFFFBAAQVCwIAcEj4roIACCiiggAIKKKCAAgoULWBALnrzu/IKKKCAAgoooIACCiiggAIhYEAOCZ8VUEABBRRQQAEFFFBAAQWKFjAgF735XXkFFFBAAQUUUEABBRRQQIEQMCCHhM8KKKCAAgoooIACCiiggAJFCxiQi978rrwCCiiggAIKKKCAAgoooEAIGJBDwmcFFFBAAQUUUEABBRRQQIGiBQzIRW9+V14BBRRQQAEFFFBAAQUUUCAEDMgh4bMCCiiggAIKKKCAAgoooEDRAgbkoje/K6+AAgoooIACCiiggAIKKBACBuSQ8FkBBRRQQAEFFFBAAQUUUKBoAQNy0ZvflVdAAQUUUEABBRRQQAEFFAgBA3JI+KyAAgoooIACCiiggAIKKFC0gAG56M3vyiuggAIKKKCAAgoooIACCoSAATkkfFZAAQUUUEABBRRQQAEFFChawIBc9OZ35RVQQAEFFFBAAQUUUEABBULAgBwSPiuggAIKKKCAAgoooIACChQtYEAuevO78goooIACCiiggAIKKKCAAiFgQA4JnxVQQAEFFFBAAQUUUEABBYoWMCAXvfldeQUUUEABBRRQQAEFFFBAgRD4XwAAAP//dWw+KwAAQABJREFU7N0HkKxLeZ/xIeecw4XLJeecLjnnHEUwUSCEkAu5KNslu1QUllUqW0XZoIAQiCwyIgoQOeecL+GSc87Z59fl79aw7Dlnd2f3zOycp6vm7ITv6/B093f63+/b3Sf77YEwK0QgAhGIQAQiEIEIRCACEYhABI5yAidLIB/lLaDiRyACEYhABCIQgQhEIAIRiMAgkECuIUQgAhGIQAQiEIEIRCACEYhABA4QSCDXDCIQgQhEIAIRiEAEIhCBCEQgAgcIJJBrBhGIQAQiEIEIRCACEYhABCIQgQMEEsg1gwhEIAIRiEAEIhCBCEQgAhGIwAECCeSaQQQiEIEIRCACEYhABCIQgQhE4ACBBHLNIAIRiEAEIhCBCEQgAhGIQAQicIBAArlmEIEIRCACEYhABCIQgQhEIAIROEAggVwziEAEIhCBCEQgAhGIQAQiEIEIHCCQQK4ZRCACEYhABCIQgQhEIAIRiEAEDhBIINcMIhCBCEQgAhGIQAQiEIEIRCACBwgkkGsGEYhABCIQgQhEIAIRiEAEIhCBAwQSyDWDCEQgAhGIQAQiEIEIRCACEYjAAQIJ5JpBBCIQgQhEIAIRiEAEIhCBCETgAIEEcs0gAhGIQAQiEIEIRCACEYhABCJwgEACuWYQgQhEIAIRiEAEIhCBCEQgAhE4QCCBXDOIQAQiEIEIRCACEYhABCIQgQgcIJBArhlEIAIRiEAEIhCBCEQgAhGIQAQOEEgg1wwiEIEIRCACEYhABCIQgQhEIAIHCCSQawYRiEAEIhCBCEQgAhGIQAQiEIEDBBLINYMIRCACEYhABCIQgQhEIAIRiMABAgnkmkEEIhCBCEQgAhGIQAQiEIEIROAAgQRyzSACEYhABCIQgQhEIAIRiEAEInCAQAK5ZhCBCEQgAhE4ygn85je/mf3yl7+c/fznP5/99Kc/nf3iF7+Y+e63v/3t75A55SlPOTvtaU87Xqc+9alnPp/sZCcbr9+5sA8RiEAEIhCBfUoggbxPK65sRyACEYhABHaLAGH8/e9/f/bNb35z9uUvf3n23e9+dwjmX//617+TxBnPeMbZec973tm5z33u2TnPec6Zz6c4xSlmJz/5yX/nuj5EIAIRiEAE9iuBBPJ+rbnyHYEIRCACEdghAdbin/zkJ7Mf/ehHQxh/5zvfGeL4q1/96uxLX/rSIQXy+c53vtl5znOe8TrXuc41O8c5zjE7y1nOMjvDGc4wO81pTjPEMqvyIoEwl8cf//jHs+9973vDmn3mM595dvrTn35YryfL9SJpdG8EIhCBCERgMwIJ5M2o9F0EIhCBCERgjQmwFn/xi1+cnXDCCbMPfehDs89+9rOzr33ta0MYE82Hc7FmOT7b2c42u/CFLzy74hWvOLv0pS89O+6442YE86lOdaphVV4E389+9rMhjE888cTZ+9///iGWpSE91usznelMuyLEF8lj90YgAhGIwHoSSCCvZ71WqghEIAIRiMBJBKwl9mI1Zi0mjj/xiU/MPvaxj80+8pGPzFiOuVkLBK71xV7cp1mDN65RZt31HTfry1zmMrPLXvays8td7nKzi1zkIkPAsvaKh+v1TqzJLMdf//rXZx/84Adnr3rVq4ZgP/7442eXv/zlZ8cee+zs7Gc/e67dJ9VubyIQgQhEYDcJJJB3k2ZxRSACEYhABFaQwCRwv/CFL8ze9a53zT7wgQ8McfyVr3xliGauyxe60IVm5z//+YfA5TZNhHKb5s7MojytUeaCTWCz7v7gBz8Yv7PqXupSl5pd4QpXmF3talcb1mQi2YZeO9nE64c//OFM3t75znfOXvSiF81YlG9605uOuC9+8YsPYS5frX1ewcZWliIQgQjscwIJ5H1egWU/AhGIQAQicDACk+WYkOVCzVr8hje8YfbRj3509o1vfGOIV+KW6/IlL3nJ8df6YpbhSSCzIrMYzwtk4vjTn/70EMmELAFtHfLFLnax2bWvfe1h6b3oRS861ifvxOVafgnxt73tbbPnPOc5QyDf8pa3nF3rWtca+ZTnBPLBar3vd0rgV7/61Whr/m4n6CPTru479ZrYTnpdG4EI7C2BBPLe8i32CEQgAhGIwNIITJbjz33uc7M3v/nNw3pszTELLRFM0F7jGteYscoSxpPV12Zb8y7WhDaRzA2bm7b7bZ4lXtZo7tqs04QCYXzlK195dsMb3nB2iUtcYqwXFtd2QgJ5O7S6drcIWH9vIsnf7SwNON3pTjfW5FubP/Wb3cpT8UQgAkeeQAL5yDMvxQhEIAIRiMARIUDMfvvb3x5reV/xilfMPvzhDw9hSwhbz3uVq1xlds1rXnOs6+Vmzdq7lTAJb2uXxfne9753uEOzJouD4L75zW8+hPIFL3jBYV0mnrfqEp1A3kotdM1uE+C18I53vGN4L2xHINucziZy2rq+ZYKpEIEI7F8CCeT9W3flPAIRiEAEInBIAja6ImCt5X3jG984xLJ1xtYLE8b+OrbJoH47AnZy3f7pT386XK8/9alPzd70pjcNa/JnPvOZGYva1a9+9bFm+KpXvepY3+y7rQrwBPIhq7Uf94jAe97zntkTnvCEmb/bCZYn3O52txvtXf+yy3ohAhHYvwQSyPu37sp5BCIQgQhEYFMCLLzOEiZWX/va1w6B/PGPf3xYtqzjtZHWla50pWHxspGW9byLBG6pjmOyAdhb3vKWIcTPe97zjk27bnazm42drs961rMO4byVdBLIW6HUNbtNwHKBpz71qWOi51Bx22XdGn5LDaxXdtTZAx7wgNn1rne9mXbP1boQgQjsXwIJ5P1bd+U8AhGIQAQisCkB64W5Vzsm6XnPe96wIls/7BimW9ziFsP1+QIXuMBJrs/bcSfdLMHp3GLWascy+fvd7353uG7f8Y53HIKccGBZ20paCeTNKPfdXhOwrv7EAxvQ+XuoYO396173utknP/nJsV7ZcoWHPOQhwytjNyacDpV2v0UgAntPIIG894xLIQIRiEAEInBECdhkyPpgFl0C2dpK6yNZjR2XxLWaWN3ttZKEw+tf//qxjpNFWRq3uc1thnCwLtnxUVy5DyeSE8hHtLmU2BYJmGTSNlmaX/jCF84++9nPjuUJ+tWd73znsQ5ZVJYg8OKwBIHYZmk2YeV+Fmdr8QlplmaeFf7OC2v3Oa/c7vA2/RKfSShx6Nv2C3AeuHuFaYJK3vzus3T0M/db3iAN/XEna6Sn8khfvqTjvfwpp/JIx7Fw8iSd+T0NtlueUai5f3Y7fVzwkS9lwUs5PJvUgx357ZSP2fyu5O5xLcbqdWLtXl44nqfKjbFTAHAv7E8CCeT9WW/lOgIRiEAEInBQAlyeWY/f/va3DxdrA7jrX//6Y8dqZxVbd2wwZ0C4m+Fb3/rWsKpZ8/zKV75yDKK5c1uP7OWs5a0c+2TQ2jFPu1kzxbUbBL75zW+O88Nt5PXqV796iKdb3/rW4/gxO7abABIsbyAev/zlL49+yNJsl3f3E1XEJI8Ku8hzz/Z33jXbfSa3iFFCS3z6tDgsm9CP7ne/+40JL+n5bTrb3O8+S0f/dj9vEWlYK20zMZuKbSdM5ZH+u9/97sHA+3kRLx0eKsojHXkkNIXtlmdj3nY7fVzwkS9LT/BSXwSteuARcKMb3WgwU1fTc9I9rnXEneerv9O9xDSuyn2Zy1xmPO9wL+xPAgnk/Vlv5ToCEYhABCJwUAIsudYeE8gGcmc729lmd7rTncZA3gDO53nLyEEj2uYPrEp2zTa4d37xF7/4xTFgtFs2y7WB87yl7GDRJ5APRqbvl0FgshyecMIJw7XaEgLCyPnhd7/73ceSBQKJmBJYjO3o7vgzgvLzn//8sDyyPnqxYLI0OmrtmGOOGaLVRBIvD5ZI/ZcA99dnSyb0CX3Lxns8QB760IfOLne5yw1LJgFukzyb5UmbZVSeCTvpyBurJi+O61znOkP4zef3cEyn8jg//a1vfeuwnCuHfJl8Ux759FxRHvk6/vjjBx/f4/aSl7xkuK/LB4swC6wJtfnyYLBZ2O30PYM8/zD1jJIPzy7lEUwieF7aYFAduR5Pk3Y2cCOq5+9THtdMr+OOO25wVk/uVweF/UUggby/6qvcRiACEYhABA5LwADuBS94wRCqBupE8V3vetdhQXbescGxQe1uB5YebqTve9/7Zk972tNmBtQGjSwyXFBZr7lhHm436wTybtdM8S1CYLIc8oywZOH73//+WDbAK8LkD0shIUh0CQTxtKs7N2xt3uZ4xx5wi9YfCD7fs0ASj+6/973vPdbq65ssm9Y4Oz6NRVifYp3Ud1k4CS/xSZPlmAh/29veNsTqdK45YaaPs/JKx6QVrxETVYQoizKr71bCVB7LJsRF8Emfxdh75ZnKojyE/n3ve99hRVUeAv5Zz3rWyCsRqv+zLsvjfHnct1nY7fS5gZss8FzkSo2jZ458vuENbxgTC46pu/a1rz3Evuu1AeL4mc985qgf92NIDHMpN2Fw4oH167wLiG2/cb2/7nWvO9LZrFx9t7oEEsg7rBuzRQYCOrpZJTNovitEIAIRiEAElk3gIx/5yLDgfuhDHxr/R3H/JFAN5g2K93ptnHSf/vSnj4G7wbPB4maWtoNxmixGBvXWehp8TgN7A1NigXVsEiQHi4dAcI1rJ1fJvZgYOFj6fb+/CRjXGd8RrMQRgcwrg7i7xz3uMUTivGv0VFrt/xnPeMZMPyS+CNrb3va2Q2wRjAT2xz72sbHj+0tf+tIhXAlkYopIJGoJNTvCS1MbZvkluPQlwk668sUyK28mwgjt+U3x5IelWxzPfe5zR7zT2edbEW5T+ZWHwDXhdajyvPnNb569+MUvHuUhkO3qrTwmA57ylKcM8ajsnkGssyzN8+XBZj7sVfo42V3fBIf0pUsAe97Ipx3KTSIQyJamEMhcypWPQOaOfYc73GGUjzu19uB+9f2yl71sCG3tRvnuda97jQnC+XL1fvUJJJB3WEcaPhcWu3Ta7p9QJpgLEYhABCIQgWUTYEF+0YteNCwaBncsuLe61a3GgM1gjhVrL8NkweaOyU2U5YvLovWJBqOTK+rB8mCwaZDKPdxaZgNSLpss0KxwBthbEciEhbRYuXDw13eJ5IOR7/t5AtPaV5ZTwoh1lBux/nTLW95yCF99iWicD6y5f/M3fzNccgnb6Wg1YtG1xowsloQt4cl1miCbXtr7JJBZJFk5H/zgB4949B/tWLry9Xd/93fDesuSeeUrX3l2wxvecIi+qY+bXOISbqKJC7b+IP88Soi7Q4Wp/MrzuMc9bmz8d6jyEOIEpvLor85aVyZ92ffKwrXahN197nOf8dt8eTZy3Kv0uVA/8IEPHPmTvnQZu3i+yCdBr66IeGvMscRA+dSZ+rj//e8/7ucyziI+74LNou8ljkc84hHjukNx7rfVI5BA3mGdeLhZs2B9iVk7s91cYAoRiEAEIhCBZROwPo44JTS5QU5rgFmyuAPu9u7VG8vLVZFli8WFVUV6rDHywnp9OBdrg3oDaS6LBq0Gn/JOHBucKsNWhC4xYABsUzKDcvdKm7guROBwBKY2yGpswkm7tHmTtsyay4o7H7RT1xC3f/3Xfz2st45VIxK1XZM084FgZXG0DpdVWD/l2qt9ikO62r97/+zP/mykO3+//vU//+f/HMKVYGexFYf2Ph+mdAhqYlVfIBAJ6kMF41pCXl4e+9jHDtdhlmEinCA3WTAfuIT/4z/+4xDsykNgypfnEOHJQus9dn/yJ38ylnzM37/x/ZFOn7u6fLLue27Ip4kE9eF5Jv8sySzQm00wTO0FZ7v5n//855896lGPGvVChHtmFfYHgQTyDuvJ+gIzia94xSvGDJ7jNHT6QgQiEIEIRGDZBKbNsghJ1iKWnBvf+MZjYOy7w1lwF83/RoFskM1yzfJlsHk4Cy7LkYloHloGnby2WGomy5nB5uHiUAZrP1mvWa4JFSJbHIcT6IuWv/vXgwAjyL/+67+OtcCEJaFqqQDhR+xOVtqptMaBXJoJyic84QljgkebY0nc7PppfbC2TtRaP2wphEkkcRCcxK10nbMs3fnwxje+cfaYxzxmWGy5fN/gBjcYfXzaTXu6lkX0Na95zYiPRwdx+4d/+Ie/F990/fR3WuogL0984hOHwHvYwx42BLLJJv1rPhCGT37yk8ekmH5GgN/znvccE1yE5zTZRXiyiBPzhwpHOv1JIHMp94yRT5ZuzxqWflZk4331w30ag/kwTexxfVdvJiIe+chHjnohuPf6uTufl94vRiCBvEN+8wJZh/dATCDvEGa3RSACEYjArhKYBLJBmYHcJJAnC/JeD9QmgWwNpXWLBDKBa2DJinI4S8pWBDJghxPJCeRdbVZHTWTTub3cZJ/97GcPV2ki1ZpVLrfWwW8WJgsiQfnUpz51WButcZ3WKW/sd1ypjR2JMaLWEgIWV5/FQbDxopD2/Q+49BJs88E1j370o8ckkmOfbnjAsuvajZZqcbhWeSx/cA2hqzyHChvLo/8SfNLRnzd6okwC019BfuVbIJA3fr+xPOPCuX+OdPqHyz+LvqWVJkY2s6BPLuHq1OSHuv+DP/iD4UGwGa+5ovZ2xQgkkHdYIfMu1maKcrHeIchui0AEIhCBXSfAxZq1w4Y4rFcsNQbel73sZTcd2O52BiaBzM2bFc5AmnXMsTgGlwTAoQJLjLyzdrFKbXSxJvy36mLNYp6L9aFo99tGAsZ13GmtObVuVnuz+ZWJJq7DvCE2CxsFHZFkza6Jqc2O++EZoW3rD9LgkutaAougJdh2UyArD+sogfynf/qnh10bu7E8Jpy4DBPIm3liHE5gLiqQ9zr9w+WfRd+khgkPzzOu1vNh2lRMnbpOnZv08AzejNf8vb1fLQIJ5B3Wx/wmXR5kBLOZo0IEIhCBCERg2QSIUmsmHREzWZFvd7vbDVfjzVw9dzu/0yZdLC7W7BlQ3v72tx/WbIPcjZa0jelzrbYu0yZdr3rVq07apIu7uMH9Vjfp4s7NnVqaym2QuhVhvTE/fT46CBjL8b7g9WBtsH40Tc5Yc6r9abva1WbBeHDexZrnxG1uc5thQSSSWBE3C+ITr76qbWv7WxHI23WxJvqVifVzK2uAN7o4y+OhLMiHc7HerkA+0ukfTCCrHy7Wymfyzl4Kh/IkmOqYxV19qtdDtZvp+v6uDoEE8g7rwizR5ALm4Ukw+64QgQhEIAIRWDaB6ZgnAtOg31q4u9zlLsOSzJXTwG0vAyuVY57s+Eo0cDW8293uNlwup8HiodKfBsYsXtPmSPPHPLHMsLodzlWbC7ZrJgHi7+Hcsg+Vr35bbwK8FkzomNhxjjgxdJOb3GTsHm2pgvXsh5pgMR50D3Frky4WZP3OkUr6ALG0WZjaqTZNSPEAEQfBdigL8nY36ZqWBHoebGUN8MZNslhFrV1mQWbt5p0xHw63Sdd2BfKRTv9gAtnz0iZdymfy4qIXveg459neBocK03Nnelb17DkUrdX6LYG8WvVRbiIQgQhEIAILE5gsuCxGNpU55phjxq6r3AIN8onUvRisTQLBQJJAthuswSXLm82HuBuy5h5ukyyWty996UvDTfw5z3nOEB1cxB2Xc8lLXnJsjjMNOheGVQRHPYFp7ShxPLlWm5yxS7M1pPoNcXuwiaWNAte988c82fVaHKzIBDaDir6inbM4M7KY9GFhtgRB29+KQLam2DFPPEUIcLtlm0gi4KQjXqLWMU/Pf/7zx/m8BLj+uNkuzBsbwsTFXgJ2sXZ6i+PiCH592bNEkIaJMOW2SZfrNjvmabsC+UinPwlkvHCyRto5xurlTW960yifSUdLNh7wgAcMF/X5CT/eB8qOhfrlsTKtP9/Its+rTSCBvNr1U+4iEIEIRCAC2yZg7e5rX/vaYQkzoDPQdw4xgWkNpc+HsoRtO8H/f4OBIUFOZLDAOQbRumNroA3cidutrEFOIO+0BrpvJwSmTblYWHksOKVEOyU0r3/96w+X5EO5yLIUmvQhlghp9z/jGc8Yuzn73tp//Y8VWjyEn75iAmlaQmCtsnOJCSoi6w1bsCBPa/25/jp7mEi+973vPXaPlg7hyopNuDrH+Zvf/Ob4zVpqItez4FBhWlPLE2Q6vkl/JsQJ5WmzMml8+tOfHse6Pe95zxveHY6DcuyUSQG7aD9lB5t0Hen0J4GMq3okkC0N8V5dsdi/+MUvHh4pPGKUb94zwASLyQQs1C++JvZcU9hfBBLI+6u+ym0EIhCBCETgsARYpQhjrqKEsgG5wRwrFsuPzWVsnGVgv5uB+yHry5QuF0lpetkx14CRYDhcugnk3ayV4jocATsTE3EEEI8FLs7aqrWm8wLoYPHoS9yNiUEilyWRxZHgJpYJ50lMsSqy7GrjfrORHcu0PQIc47QdgWwySho8NryIYkc9yTOBTyAT244cIpLl82Y3u9noi1sp11Re+XSsqb7NDf1c5zrXOJOZWObJgZ80CEsvzxcCWZ9XduueTRgQoCyrnkH332RX7im9jX+PVPqTQFYWFn0C+ba3ve1wJ/dMZbE3gWKiwWQfV/V5jtPmbq5VF9oCge3awv4ikEDeX/VVbiMQgQhEIAKHJTBvyWXRYdngDmnA5zzgvdrNmuWERcwO2tZB2xjLwJ/lmrXJ+mfi+HDu3Qnkw1ZxF+wigUnY2PRK+/385z8/3GMtB5h3oT1YktNO6SyrBJH1ubwnrMV/3eteNyyK9gIgJrnr8t6wEZ1+IH790aZPl770pbflYi0O5zNbUsFySdgRsEQogUyIexYQa/o/12rnoRNsWynXVN5pbbZJtzccsGzzUGHdnazmJuBYsPGyC7fzj7lYTwKaQObiTYDKD+G4HYF8pNKfBDJrMT6el1zRCWFry7UL3jE4KJPnlLrHV8AEC5McvGZMBCirCYXC/iKQQN5f9VVuIxCBCEQgAoclMO3GayBHIPtrMM0qRiCzVBm8crUmWA3YFwkGj46Ekc5LX/rSYWmy0Zbdcq09JhwMGg0mDyeO5SOBvEhtdO92CbD4EUde2rDP2wnE1DQBxaWW5Zn1lpAkXFleWaVZllmQ9Tl91AQSCyThystiOjZoyo8JJ+/1nc1cdYkx6RD48i4dYplYJcYFYvnc5z732MGe4PMS33bClI78EPzS4S3CQ2S+PCzoXLeVx7NmOg5rUdfjI5W+8r3yla8c9Ub0qhsTCupTmIS68qtXgpkoFjxDsfBMdZ/6nKzLB1u7Pm7sn5UkkEBeyWopUxGIQAQiEIGdE2A5Mqi0eQ8Xa+6Vjq4xiLPzKsHKqmvgZ1DHErRIMIi3DlI6XEutSTQIl9bNb37zYUUhBrY6UEwgL1Ib3btdAtMEj0keL5+3E4hRFlttXLtnSdUHTUpxcSasiGNi1vcmiaZ7iGtCcn4TsCk/rK3ei1u8rp0P0xpda6jlWzr6js+EsSAdfVzeppf4thOmdOSHxVo68kXkz5dH/rgmK8/8c2XRzauOVPrK51mm3jwrlcfkgvoUpolH5VevJgHVqUBQTy/3qU9/fXe4JSUjgv5ZKQIJ5JWqjjITgQhEIAIR2D0CBrNcnbkFvv71rx+DP4NkLpY2BbJpEKuV74hkg8KtWHgNWL0MfA3MrTtkUWF9O/HEE4cQZqWeXqxJxPFWhXgCeffaQDGtDoHJEipHeymc1i2dg9XgkSrnqqZ/sHz1/eIEEsiLMyyGCEQgAhGIwEoS4ALJ2mEtpHM8WXlZPlhErHvkbskVkCs0qw/LEoF8OJHMasSa4jgamwR52elW3CxH1uxxTZw2BBP3dly5E8gr2ZzK1IIEJkuoaLY6GbWTJNctnYMxOFLlXNX0D5avvl+cQAJ5cYbFEIEIRCACEVhpAtZCsiBzgbZ+jtXXZkHHHnvs2EyGoHW25+QWaLdbrpmTWCaIWWuIYqKbK6I4uHCzTrMg25SIwLYpjQ1qWKgdk0OMs5ZtJySQt0OrayMQgQhEYDcJJJB3k2ZxRSACEYhABFaQgLVyBKx1yI6V8dfGPgQv92ri2IYy1iQTzXZdndYQEsnWM3KnZo3mts1yTBxzp/beOjzx2MHWMTMsx9yqfUdos5ZtJySQt0OrayMQgQhEYDcJJJB3k2ZxRSACEYhABFaQwEaXaC7X1ibbXdYZptyfbQJkPbLdrW20QyCz/BLIhPS0EZAzQJ2/SmCzJLvX9Y5x4rJt8y8u2zuxHE/oJkHP4v3CF75wWK1vcpObjHNVpSO9nQjvKf7+RiACEYhABA5GIIF8MDJ9H4EIRCACEVgTAtbqeU2bahG3jjRhSbYumVAmgF3DTXraQGhaJ7nRxRoW1xHVNvzy4qbNauy4G8c5LSJg7SLrGBmbfjl2hYXauaos0yzcXMG3s6Z5TaqxYkQgAhGIwBEgkEA+ApBLIgIRiEAEIrBKBFh+WYFPOOGEIZCJZYKUNZk4tc6YWzVhLLAiE7x2obY+mes0ccxSbCds7tnHHHPM+H7aDXuR8k7H3HDhtgGYvHDfJo4du0KAT+J9kXS6NwIRiEAEIrCRQAJ5I5E+RyACEYhABNacAMFJhHJlttmWF3HMfdqa4m9/+9snndvKqkwcc7kmjK1PJlK5OZ/jHOeYne1sZxuC1TFOk0s2Qb1ImDYEI9bljVC3qZg8sFzLz6JpLJK/7o1ABCIQgfUlkEBe37qtZBGIQAQiEIEtEbDGmPv1d77znbGZF4FMnPp+XiA7rok45uJMsBLFWXK3hLiLIhCBCERgnxBIIO+TiiqbEYhABCIQgb0iMK0xttbXWmR/WZmJYy8i2JrfycWapdh732XJ3ataKd4IRCACEVgGgQTyMqiXZgQiEIEIRCACEYhABCIQgQisHIEE8spVSRmKQAQiEIEIRCACEYhABCIQgWUQSCAvg3ppRiACEYhABCIQgQhEIAIRiMDKEUggr1yVlKEIRCACEYhABCIQgQhEIAIRWAaBBPIyqJdmBCIQgQhEIAIRiEAEIhCBCKwcgQTyylVJGYpABCIQgQhEIAIRiEAEIhCBZRBIIC+DemlGIAIRiEAEIhCBCEQgAhGIwMoRSCCvXJWUoQhEIAIRiEAEIhCBCEQgAhFYBoEE8jKol2YEIhCBCEQgAhGIQAQiEIEIrByBBPLKVUkZikAEIhCBCEQgAhGIQAQiEIFlEEggL4N6aUYgAhGIQAQiEIEIRCACEYjAyhFIIK9clZShCEQgAhGIQAQiEIEIRCACEVgGgQTyMqiXZgQiEIEIRCACEYhABCIQgQisHIEE8spVSRmKQAQiEIEIRCACEYhABCIQgWUQSCAvg3ppRiACEYhABCIQgQhEIAIRiMDKEUggr1yVlKEIRCACEYhABCIQgQhEIAIRWAaBBPIyqJdmBCIQgQhEIAIRiEAEIhCBCKwcgQTyylVJGYpABCIQgQhEIAIRiEAEIhCBZRBIIC+DemlGIAIRiEAEIhCBCEQgAhGIwMoRSCCvXJWUoQhEIAIRiEAEIhCBCEQgAhFYBoEE8jKol2YEIhCBCEQgAhGIQAQiEIEIrByBBPLKVUkZikAEIhCBCEQgAhGIQAQiEIFlEEggL4N6aUYgAhGIQAQiEIEIRCACEYjAyhFIIK9clZShCEQgAhGIQAQiEIEIRCACEVgGgQTyMqiXZgQiEIEIRCACEYhABCIQgQisHIEE8spVSRmKQAQiEIEIRCACEYhABCIQgWUQSCAvg3ppRiACEYhABCIQgQhEIAIRiMDKEUggr1yVlKEIRCACEYhABCIQgQhEIAIRWAaBBPIyqJdmBCIQgQhEIAIRiEAEIhCBCKwcgQTyylVJGYpABCIQgQhEIAIRiEAEIhCBZRBIIC+DemlGIAIRiEAEIhCBCEQgAhGIwMoRSCCvXJWUoQhEIAIRiEAEIhCBCEQgAhFYBoEE8jKol2YEIhCBCEQgAhGIQAQiEIEIrByBBPLKVUkZikAEIhCBCEQgAhGIQAQiEIFlEEggL4N6aUYgAhGIQAQiEIEIRCACEYjAyhFIIK9clZShCEQgAhGIQAQiEIEIRCACEVgGgQTyMqiXZgQiEIEIRCACEYhABCIQgQisHIEE8spVSRmKQAQiEIEIRCACEYhABCIQgWUQSCAvg3ppRiACEYhABCIQgQhEIAIRiMDKEUggr1yVlKEIRCACEYhABCIQgQhEIAIRWAaBBPIyqJdmBCIQgQhEIAIRiEAEIhCBCKwcgQTyylVJGYpABCIQgQhEIAIRiEAEIhCBZRBIIC+DemlGIAIRiEAEIhCBCEQgAhGIwMoRSCCvXJWUoQhEIAIRiEAEIhCBCEQgAhFYBoEE8jKol2YEIhCBCEQgAhGIQAQiEIEIrByBBPLKVUkZikAEIhCBCEQgAhGIQAQiEIFlEEggL4N6aUYgAhGIQAQiEIEIRCACEYjAyhFIIK9clZShCEQgAhGIQAQiEIEIRCACEVgGgQTyMqiXZgQiEIEIRCACEYhABCIQgQisHIEE8spVSRmKQAQiEIEIRCACEYhABCIQgWUQSCAvg3ppRiACEYhABCIQgQhEIAIRiMDKEUggr1yVlKEIRCACEYhABCIQgQhEIAIRWAaBBPIyqJdmBCIQgQhEIAIRiEAEIhCBCKwcgQTyylVJGYpABCIQgQhEIAIRiEAEIhCBZRBIIC+DemlGIAIRiEAEIhCBCEQgAhGIwMoRSCCvXJWUoQhEIAIRiEAEIhCBCEQgAhFYBoEE8jKol2YEIhCBCEQgAhGIQAQiEIEIrByBBPLKVUkZikAEIhCBCEQgAhGIQAQiEIFlEEggL4N6aUYgAhGIQAQiEIEIRCACEYjAyhFIIK9clZShCEQgAhGIQAQiEIEIRCACEVgGgQTyMqiXZgQiEIEIRCACEYhABCIQgQisHIEE8spVSRmKQAQiEIEIRCACEYhABCIQgWUQSCAvg3ppRiACEYhABCIQgQhEIAIRiMDKEUggr1yVlKEIRCACEYhABCIQgQhEIAIRWAaBBPIyqJdmBCIQgQhEIAIRiEAEIhCBCKwcgQTyylVJGYpABCIQgQhEIAIRiEAEIhCBZRBIIC+DemlGIAIRiEAEIhCBCEQgAhGIwMoRSCCvXJWUoQhEIAIRiEAEIhCBCEQgAhFYBoEE8jKol2YEIhCBCEQgAhGIQAQiEIEIrByBBPLKVUkZikAEIhCBCEQgAhGIQAQiEIFlEEggL4N6aUYgAhGIQAQiEIEIRCACEYjAyhFIIK9clZShCEQgAhGIQAQiEIEIRCACEVgGgQTyMqiXZgQiEIEIRCACEYhABCIQgQisHIEE8spVSRmKQAQiEIEIRCACEYhABCIQgWUQSCAvg3ppRiACEYhABCIQgQhEIAIRiMDKEUggr1yVlKEIRCACEYhABCIQgQhEIAIRWAaBBPIyqJdmBCIQgQhEIAIRiEAEIhCBCKwcgQTyylVJGYpABCIQgQhEIAIRiEAEIhCBZRBIIC+DemlGIAIRiEAEIhCBCEQgAhGIwMoRSCCvXJWUoQhEIAIRiEAEIhCBCEQgAhFYBoEE8jKol2YEIhCBCEQgAhGIQAQiEIEIrByBBPLKVUkZikAEIhCBCEQgAhGIQAQiEIFlEEggL4N6aUYgAhGIQATWmMBvfvOb2a9//evx+tWvfjU72clONjv1qU89O+UpTzne71XRp3R/+tOfzr7//e/Pfvazn818d9rTnnZ2trOdbXb6059+dopTnGJP87BXZSveCEQgAhE4MgQSyEeGc6lEIAIRiEAEjhoCv/zlL2c/+clPxutHP/rREMZnP/vZZ2c4wxn2VKBK98c//vHsy1/+8uyjH/3o7Gtf+9rsF7/4xew85znP7GpXu9rsQhe60Ow0pznNyM9RUxkVNAIRiEAEtkUggbwtXF0cgQhEIAIRiMDhCBCpX//612df/epXZ1/60peGBfdyl7vc7HznO98QqKy4uxE2Woy/853vjHQ/+9nPzj784Q/PvvWtb81OdapTzS5+8YvPbnGLW8wufelLDyuy7woRiEAEIhCBzQgkkDej0ncRiEAEIhCBCOyYwDe/+c3Zxz72sdkHP/jB2Xve857ZWc5yltmd7nSn2RWveMXZmc50puFuvePI527caDGW5sc//vHZF77whdm3v/3tkc4xxxwzrMe3vvWtZ5e5zGUSyHP8ehuBCEQgAr9PIIH8+0z6JgIRiEAEIhCBBQh85StfGcL4bW972+yNb3zjjHv1gx/84Nnxxx8/xLI1wTsJh7MYf+Yznxnu1dYgc+c+73nPO6zHhPm1r33t2UUucpFcrHcCvnsiEIEIHEUEEshHUWVX1AhEIAIRiMCRILBXAvlwFmObgZ3jHOeYXfjCF55d/vKXn13sYhebXeACFxhrkM91rnPt+RroI8G2NCIQgQhEYG8JJJD3lm+xRyACEYhABI46ArslkHdqMeZKzWpMKNu9+nSnO93YuZqALkRgImCndZu42WldW/vtb387fjr5yU8+NnKz67qXz4UIRODoIZBAPnrqupJGIAIRiEAEjgiB3RLIO7UYn/vc5x7CmJu1Dbk62umIVPu+S4Qrvo3d7LSurRHMgiPJtJ0znvGM4+VzIQIROHoIJJCPnrqupBGIQAQiEIEjQmCnAjmL8RGpnqM2EZZiZ2P/4Ac/GDuc20zuG9/4xjiObNpZXRtkMTaxYkO5c57znCe9COYsykdt86ngRxGBBPJRVNkVNQIRiEAEInAkCOxUIGcxPhK1c/SmwVLsbGy7nb/1rW+dffKTnxwWZILYGnWbx3G5dob3D3/4w7Gh2wUveMGZI8quc53rjDXtRHIW5aO3DVXyo4NAAvnoqOdKGYEIRCACEThiBLYqkLMYH7EqOaoTmizHzuT+wAc+MI4fm87JJnYdQ3ae85xnrFUnkFmYWZe5YLMYOyrs6le/+ljXfqlLXWqIaaK6Ne1HdbOq8GtMIIG8xpVb0SIQgQhEIALLILBVgZzFeBm1c/SlOVmOncn94he/ePbFL35xiFy7nF/lKlcZApj1mJu1SRsWZGuTHRvmnq9+9avjNzuj3+Me9xhCmbCe3LKPPqKVOALrTSCBvN71W+kiEIEIRCACR5zAwQTyta51rbHpkd2Cv//97w8R8vWvf3322c9+dsaid7BzjNuV+ohX4VolSOC+733vm73lLW+Z/fu///sQwTe60Y1m173udWfXuMY1xlFg8wVmRSaqTzjhhNmb3vSm2bve9a7RPs9//vPPHvCAB4z7bAQ3uWS7lqAmrs985jOPvz7/+Mc/Hjtki5sl2ppm97lmXmC7j5Xb9e7j3m2ttO+me6XlfmeK20BsO2uh9bd54c9CbhJAOX3PGi4/4j3rWc860jn96U8/1mFLf9rMzPWuE5/8iUPZXXvssceOe0eGD/PPNGGhfNJjiZcn34vTZmnzvDZydo18ywuW4sDFbvXzQR6/973vjWeN+H12n6DM4nU/DwJx+CxMu5tP9eo78bvXmnX1M183G+v15z//+Vjj7q884iOd05zmNKI6KWxMBwdr3lvrfhKipb1JIC8NfQlHIAIRiEAE1pPAwQTy1a52tTHo/va3vz376Ec/OtaCfvzjH5994QtfmPnOAHGzc4zblXo928mRKpW29tznPndYgwnQ4447bnb3u999pj1uJqwIIQLIJI62/La3vW32rGc9a4i3m9/85kMgszwTVeL79Kc/PXv3u989BOelL33p8dfnz33uc0P0KSfRc8lLXnJGmJvwmU93EuSud5+10dZKE2jTvec973nH/Vy9L3KRi2xrd+1JiOln4rcG23t5n0Sv/IjX8WjyeaELXWgIR+l/+ctfHpMErned+ORPHCa1XHu/+91vdqUrXWnk93D/4PWqV71qlE96LPGeA74XJ0E+z0vZ5zm7Rr7lBUvp4uLM8/kgjx/84AfH5IYy++w+gXAVr/t5BsiHz8I0ITDVq+/E797Xv/71o37m62ZjvXLPNxnjrzziIx3r3OfDxnRwaK37PKHlvU8gL499KUcgAhGIQATWksBGgcyyc5e73GV28YtffFhx/J7FeC2rfiUL9c53vnP2f//v/x3CkBX4mte85uyud73rEC2HyvAkLN3/D//wD0PwXuISlxj33/KWtxzrlqe2/tKXvnRYFq961asOSyThyDuCtXN6Wct8k5vcZFitrWVmLRS+9a1vzT7xiU+MSSP9QpzEmPQFwomgk3di7rKXvexs/v5x0SH+YfEUp4kCm5Px2GBNtcTBZICJKRZbZ4bLo03Jjj/++HGOuO9Z0l/ykpfMTjzxxGEJZUFmmZVvZZSXhz70oWPC4RDZOOknbutPeMITRp7wYsGddhRnoRU3ZgTrta997dn5zne+kV+/zXPFxSTFFa5whdltbnObwYW1Vv4IWBMNBC1xTGATpMJkUWcxJmAxvcUtbjHK4TvXzdcrVte73vVGvaofa9nlz3V+s5HbDW5wgyGiCeHvfve7s5e97GUjr+pNmzGxctGLXvQkBt5Mov/973//7M1vfvOYFLjb3e42u/KVr7ytCZDfibQPu0IggbwrGIskAhGIQAQiEIGJwDS4ZHl74xvfOAaRLDRcOFmjDKqzGE+0+rvXBIiPv/qrvxrWSULHi3s1y96hwiSkiKJnP/vZQ2ByzSWo7nnPew4xyZrJWvgv//Ivo11P4tX6Zt4QrncNV23CiZhifSawXSN85CMfGfGzok5CmOizcZigv3zoQx8aoo2oZaW2FpqQ3Ur4/Oc/P9InxFhFiUjLHViMvSegfU8Ie8njfe973yH4WHIJTRZ0G5xJ3xFYRC2BT8QSyOJz31YCXn/91389ysTqa+JMedUHV2SWXrwIcnXguYGF3zHzmcu0fHm+KIMJOGLaNSYWJuvvq1/96jHZQPBLh6D2O7FtUuLtb3/7KAueyqA8fp+vV/nBXDmJXeVWr55l73jHO8ZEgckFz7jb3e52g89rXvOaGd7Wu/NY4JpP+M6HKY33vve9Q8Tj98AHPnBm0mA7LvTzcfZ+dwgkkHfIUeexVsRDy0yXdQbTeoQdRtltEYhABCIQgbUgQPwavBr4c3E0ADfAZa0yqPT/poG2wfCFL3zh4dJpgOy9gSaLM6uW1yLBINO6P+lw0zbYZ3UyuC2sPwFjNZbYN7zhDUMga5eE1A1veMMhLrWJrYRPfepTwyJIyJj8IZIe8pCHDIsgESf+pz71qWPSh0gjxryOPbAul+B1/wtf+MIhCFkeCVtCiNBmgTSR9PjHP370DWuiWbjnBefk4syS7cWS/PCHP3ykweKpnW8WJoFPXBO4LMiuJfRue9vbjnzoE1zJWVlNJNjETJ8hkE0kEG0szk95ylOGGHQtqysRpxwEK1FKWIprKwGvRz/60TM8WYe5ut/+9rcfcYoHYxZY+TE5IT9cjzHFRb2xEBO3T3ziE4dYvtWtbjUmPTxH9HHil6AnYAlq8XPFlnftgugl1NWbOrjDHe4w7scGo/l6NdYnbqV/4xvfeJRZvXKJf+UrXzmEsHXuXK1Z0tUPK/k0QejZ94hHPGLc7z75E0yIaBfKKA9E+L3uda/RLrbCsWv2jkACeYdsuVV4YNjsQcPWeQjmQgQiEIEIROBoJ2DSmChm5SGGTSBPG9T4/5NoMXg3EDV4tckNi5T3rFMGkIuKY3XAsmTdn4G8tZ8sSMS3NArrT0Bb48ZKkD3ucY8bLrH3vve9h0Am7IilrQTjPRZBgsyYj0XwkY985BA080JKmyYsr3/96w/RyFppMsb9LJkEk/ul/ahHPWpYHCdr6ZOe9KTRJ1gaCdN5wTmVg2Dkmmyi6UEPetBIZ/66jWWZJgikq/xEHKFJZBKlxK8+aLJKXyW+CWETCcQgoe461lbfE5v6swmC+9znPuM3olg/O5RQ35gv9UEgE4gmCVjzb33rWw+e4pEegck6/G//9m/j+TBfXul5phDYT37yk4egJozlVb5NsuE6vfR5rs9YEajqiSCVhnK5jnh2PzbKNF+v+HB9Vq+bWZC5rasb7un/+T//52EN54bNCk6Ae9487GEPG/drc/IjyD+Bz8JPXJt0kIaJwsJyCSSQd8ifGJ42ffDA1BE8XAoRiEAEIhCBo5nAZLUyqDRA9/Kdl0D4EsBeBueTGN4NQbyRO+HNmsMqd+c733kIEiLcILmw/gRYa62TJcj+9m//dkzM2EyKBZl1l4DdSpjEEosjEeleQsjEy/QbIUS4/af/9J9G/ETW1M6MEYlL+bA5FWH6F3/xF0Mcsi77nou2/kAgE2rzlsYpj5OgIu4INuteWTyntczTddNfE1XGpuJ/7GMfO9bNEvDKT+QTkvNB/P/4j/843JNZhQk2ruCstYSk3by9Jyb/5E/+ZPSr+fu3+l5+CGTriVnc5Wd+jS6BPs9FPf3X//pfx3XzXFiI5UsdqBP5Epc+L5/EvPr3LFI3+JpcmJ5FvFysrXYN4au87pfefL2a3GMB9tu8wCXkeckozwte8IJh2VavRLr0Cee///u/H5OFLNQmJ6QjfpOE9IN2KZ/WUGPhd675heUSSCDvkL+HrnUaL3/5y09yrdAZChGIQAQiEIGjmYDBpwE8C7LJZO9Ze6ZBKUFswEmoGrROFt29EMhECndMawMN9IkJaWZBPjpaKBFibEbA/M3f/M0QiIsKZEKXGPsv/+W//J5A5sr/53/+50NIEWOTKz8BxuVXPp7znOcMQUtIsRo6fsr3NvmSV5M5BLR7N/aJ6bgqVlYeESzN867YG2tVH+SuLH6WSnGyZN7wgNDTL/TB+WDNLIss0aefcCu21lr/JUTl1XtC9MEPfvBYSz1//1bfyw+BzEVZGeSH67I10YK12qzurnv6058+BOV//+//fVw3z+VgApm4l0+WYcYsFlqeBPhqEybtBBuDcS1XV8o6ifWNAtlE22YCfdpkSz6f+cxnDvGsXlmBpY/n0572tJG+NiMN5WTJdi8B/U//9E8jL3gS0PMCfPzQP0shkEDeIXazch46ZtvMgOnMBgGFCEQgAhGIwNFKgAj2MjC3btKA3iDV/5kG3Ab80/+VBvm+I2IJC4NSf30moF27USBsl6s0xGtwamMkwkPcRHph/QlMLsYEjE26WOr+4A/+YAit7VjqjPO4SLP4EY92I/6zP/uz33Ox1tYIJIJvPkj3xLm1ytN14uH+LH+W7JlQIj4JqM3C5Gqtn3BNJrhYm1lMNwsb0zUZxTVc/sShL8yHSXD6K8jL/e9///GeQN74vd93EpSXQLZJlV295Wd+07SN+Z54uW4+TPnFVh+XH9dY8zuJV8daSYcwJlpZkIlslmhjdxMXJswOJZAPlv7h8jmtXedWz5KvzVljbGMym4jxRnjFK14xlpf80R/90XBpn7eQz5e190eWQAJ5h7x1MA8qncuM1ORKtsPoui0CEYhABCKwFgQIZK6HLDc26GJ18v8l6xDBa7DKhdKAlVBlnSFcuauy8BpEWjc8b4HbKRjxG/yylBnkEuTzFqidxtt9+4OAtmi8RpA95jGPGZM1dhkmokyY2CBqK2HaTIlRhDXYZkqbbdK1XSGlT1inKn+OIyJYueLqB5uFSfBrx0QxoaXvELubhY0CTj+w9ln5xbHRk2ISnBuFsLj3QiAzNHEtlp95ob8x3wfjOuV3o0BWLu7g1hh7/mgD1ihjpdx4sdSaxLPJlrG8587BXKwPlv7h8ql88kAIm1xRZ1y1tTvu+oSz56G1yyz1Jj16Pm3Wko/8dwnkI8+8FCMQgQhEIAJrTWAaGE67uBrYW5dnIy7Hnvjd5pYszSaYDVaJAsLDy4DROjzXE9C7ZVFea+gV7qAEtEMu1izBRAhX2pve9KbDEnwoQTIJUq6yz3jGM8bO7MQVa6NzlAke4ozAtQZ5u0LKZl3za5O19z/8wz8cYvFQ+WJl5GkxvXzeLGx0sXbdoSzIh3Ox3iicF7Ug75VAtgzy+c9//hDJPFhY5C2xsFHXvMcK6zHhb4245w+RTqyrx0XqVRyCHb8JYK7UXOtZ8Lm4e97xSCDQpeWZN+9iPm7un6USSCAvFX+JRyACEYhABNaPwEaBzHJ197vffQwEuTmyMLPKGaDaKIcFh8WY+LA2kmWNkDFw3E2L8vqRrkRbIeCYIwKXADQh46xiu1kTuodyaZ1cmgkcu0xbs0pcWyvKJVh7XURI8ZqYX5tsMoiAFfeh8kU86y/Ty+fNwsZNunhtEOAEHHEvvflwuE26dlsgE4974WLt+WLzK+uLuVsT8gSyZ8m8Z4rJif/zf/7PEMh27MYdm90SyNoasc56/A//8A9jQtBxU+qWxwAPBxutsVzLW5tzzbfG5b5PIC+Xf6lHIAIRiEAE1o7ARoHMYmITGoNQLo4sW9bnEQfWdNqsJ4vy2jWDlSmQTZq4MhMqRCBL7Z3udKdhMTQh47P16lzyueMSNtbKE1rWinLXtfs0YeMcZUKK9ZcwXUQgs1iycMrb/DFPNnmaF7AmleSHRVKe5JO7sHwfytI8WcC589rFmnv4/HnBxKNAOFsuyBXYJl2u2+yYp90WyNgRiESpl3XEwuFcl8dFB/45mIu15w+PAc8YG6Epi3OfHfOmfj1/5rkrr0kPeWHJtbv3IvWqLPOBm7fNuMSp3eBt+Qn+dhW30Zpn5HT80/y9vV8OgQTycriXagQiEIEIRGBtCRxMILO+sboJBuQGwtYjsyRlUV7b5rD0gk2uxizBLMlcWwknFlxrkQknYoVAIV4IURM2LJDEpR2VWZO56M6f/8s6uIiQIrQJXy7gj3/840e+TCIRdHZ3ns7D1VcIOmtWWR7lk1DnZXEoS/O0Bts62On4JnES5oSycgvThlbO8n3e8543rKyEmzwQ4srPFXm/CGSTCHiqP+t97QyOlzpXvyZMTAbgrswmIDBRXsdNseQuUq8bBfK0WRd+nnd485pRf3/8x388BPKh6nHpHegozEAC+Sis9IocgQhEIAIR2EsCBxPI0zpk1jqBhYu1jutqFuW9rJGjO+7JksrV+rnPfe7MX+2OKy3XVscC2RhOuySg7DisTRJSvBwIKMLy6le/+uzWt771ScJyq5bOw11H+D7rWc8aG9vZYMoafGn5yyWYECeQHS/KTZyYd1wV19ytCCv32S1ZOsS/spqsUibxE2v6n+UOXjb/IpDlwZpdDEwsEHhY2PDq/gd2t97pGmQW87/8y78cIpTllsV8Ny3IdgNXz/JrYoPIdyyWela/6tZ6dJ4r6pgrurZgHbJ8KD/mdsDeydpyccyHjc9Dky+s1J6HD3zgA4er//z1vV8+gQTy8uugHEQgAhGIQATWisDGAeHkYr1RIE8WLgPULMpr1QRWqjBTO2O5Yw1lWeT2ykpIDBNN3JYFLrheRLW18zZ44hZLDLJAEllcm4XDCd9x0RauI5iIduKXtdfxaPJjczoClRs1ocdyzPWa5ZEIs1b/UC7WU/rTZlHcet9wYEMxwhATYlz8ysqyqbxEorXZ+uokoAlkm14RnPopS/oiApnl9n//7/89+LPcSkt5dsvFGjf1a40xMc6F2qSC5R3KSpyqU2uwCWEbB2IjODPd3gfHHXfcEM+7IZC1MRuByYv4CHSTDyYGWKwd91VYLQIJ5NWqj3ITgQhEIAIR2PcEtiqQNxbU4DWL8kYqfd4tAtoXMcyl37piQtl74tAkjd8JTlZV4pE4Jganl8/zFtvJ9ZlwtEaZ2GTZ3WhZPdx102ZgrLdcuqeN61hriTppOiKNu7C45YfAM/G0lTCV23rq173udcOSTJQrs/iJcf2OpZXbNwE+PxGAkXy5X1n8ZtMredhJwJ3gZhUXh/IoF77C4XhNacqPY5rEMz+RoR4ml3TlZS3GQFBWlnlu1yzFgvJxvzeR4LcpTz4vUq8j8gP/cKM3mWJywqZgBDOXb5MC3Pytgy+sFoEE8mrVR7mJQAQiEIEI7JjpqvAAADVHSURBVHsCOxXIk6Uvi/K+bwIrWYCpfbEasiYTKt4TqESM34nRaadjLtfWzE8vn+cttgTsJH4IMvexgnLXnQ+Hu24SsNZKs3b6S8i7jzVbmvLFwitu+SECfbeVMJWb8LQ+l/CTb6JY/MS3vIvznOc857CQE84mCQSM5Mv9k2gnSF2/kzBZVOVBHMqjXNPSi8PxmtKchLR43Csu8SiL75RTebmQu1ZwDQ+A+U2xpvLhodxTnnxepF6nfMrLvEDG/OEPf/gQyHhLs7BaBBLIq1Uf5SYCEYhABCKw7wnsVCBvLDjhYJDaGuWNZPq8mwQmgSpOonNyt97NNHYS117na6/j30mZ9+Iekw3zAnmrEwuL5mWamOChwNptF/WXvvSlQ8Q/4hGPGK7lq9TeFi3vOt2fQF6n2qwsEYhABCIQgRUgsFsCeRpgZlFegUpd4yxM7UwR5y3Eyy7yXudrr+NfNr8pfRZbVmlh8g6YftvLv9MEhB36X/7yl49N2GwgZp33ve51r7HZ2Sq1t71ksd/iTiDvtxorvxGIQAQiEIEVJ7BbAnljMQ04t2NRntaO2gRnOjeWddCgtBCBCERgLwhMLtUsx1y8rbl2nBQrtqO1HC1mgy6boBVWk0ACeTXrpVxFIAIRiEAE9i2BvRLIk8VrqxZl6xEJY7vy2lSI5WZ+beW+BVzGIxCBlSVg3bKN2+xK7kUkW89t868b3/jGw3JsN3K7aBdWk0ACeTXrpVxFIAIRiEAE9i0Ba4ZZTRyd4tgam+Lc6U53GkeoGBTu1hrAw1mUuVVKm0C2a6wjXGx0tFvp79sKKuMRiMCeEZgEMpHsGWgTOLtj2x3cLuGO52rt8Z7h35WIE8i7grFIIhCBCEQgAhGYCFhn5xgZ57k6/9MOs5e97GXHGa7OKN2tTZAOZ1G2UzHLjQHp9a53vXG2qbNkrUMsRCACEdgLApOLtZ2rvUzk8VwxWWfXapN0rT3eC/K7F2cCefdYFlMEIhCBCEQgAgcIWCfs6BRC2bo7gvQc5zjHGCTu5RrgjRZlawAFaV/iEpeYnetc5xqCebcE+oi8fyIQgQhEYK0IJJDXqjorTAQiEIEIRGD5BOwaS6xycfZiLZlcCp256rUXYaNF2VplgdXa2ab+ZrnZC/LFGYEIRGB9CCSQ16cuK0kEIhCBCEQgAhGIQAQiEIEILEAggbwAvG6NQAQiEIEIRCACEYhABCIQgfUhkEBen7qsJBGIQAQiEIEIRCACEYhABCKwAIEE8gLwujUCEYhABCIQgQhEIAIRiEAE1odAAnl96rKSRCACEYhABCIQgQhEIAIRiMACBBLIC8Dr1ghEIAIRiEAEIhCBCEQgAhFYHwIJ5PWpy0oSgQhEIAIRiEAEIhCBCEQgAgsQSCAvAK9bIxCBCEQgAhGIQAQiEIEIRGB9CCSQ16cuK0kEIhCBCEQgAhGIQAQiEIEILEAggbwAvG6NQAQiEIEIRCACEYhABCIQgfUhkEBen7qsJBGIQAQiEIEIRCACEYhABCKwAIEE8gLwujUCEYhABCIQgQhEIAIRiEAE1odAAnl96rKSRCACEYhABCIQgQhEIAIRiMACBBLIC8Dr1ghEIAIRiEAEIhCBCEQgAhFYHwIJ5PWpy0oSgQhEIAIRiEAEIhCBCEQgAgsQSCAvAK9bIxCBCEQgAhGIQAQiEIEIRGB9CCSQ16cuK0kEIhCBCEQgAhGIQAQiEIEILEAggbwAvG6NQAQiEIEIRCACEYhABCIQgfUhkEBen7qsJBGIQAQiEIEIRCACEYhABCKwAIEE8gLwujUCEYhABCIQgQhEIAIRiEAE1odAAnl96rKSRCACEYhABCIQgQhEIAIRiMACBBLIC8Dr1ghEIAIRiEAEIhCBCEQgAhFYHwIJ5PWpy0oSgQhEIAIRiEAEIhCBCEQgAgsQSCAvAK9bIxCBCEQgAhGIQAQiEIEIRGB9CCSQ16cuK0kEIhCBCEQgAhGIQAQiEIEILEAggbwAvG6NQAQiEIEIRCACEYhABCIQgfUhkEBen7qsJBGIQAQiEIEIRCACEYhABCKwAIEE8gLwujUCEYhABCIQgQhEIAIRiEAE1odAAnl96rKSRCACEYhABCIQgQhEIAIRiMACBBLIC8Dr1ghEIAIRiEAEIhCBCEQgAhFYHwIJ5PWpy0oSgQhEIAIRiEAEIhCBCEQgAgsQSCAvAK9bIxCBCEQgAhGIQAQiEIEIRGB9CCSQ16cuK0kEIhCBCEQgAhGIQAQiEIEILEAggbwAvG6NQAQiEIEIRCACEYhABCIQgfUhkEBen7qsJBGIQAQiEIEIRCACEYhABCKwAIEE8gLwujUCEYhABCIQgQhEIAIRiEAE1odAAnl96rKSRCACEYhABCIQgQhEIAIRiMACBBLIC8Dr1ghEIAIRiEAEIhCBCEQgAhFYHwIJ5PWpy0oSgQhEIAIRiEAEIhCBCEQgAgsQSCAvAK9bIxCBCEQgAhGIQAQiEIEIRGB9CCSQ16cuK0kEIhCBCEQgAhGIQAQiEIEILEAggbwAvG6NQAQiEIEIRCACEYhABCIQgfUhkEBen7qsJBGIQAQiEIEIRCACEYhABCKwAIEE8gLwujUCEYhABCIQgQhEIAIRiEAE1odAAnl96rKSRCACEYhABCIQgQhEIAIRiMACBBLIC8Dr1ghEIAIRiEAEIhCBCEQgAhFYHwIJ5PWpy0oSgQhEIAIRiEAEIhCBCEQgAgsQSCAvAK9bIxCBCEQgAhGIQAQiEIEIRGB9CCSQ16cuK0kEIhCBCEQgAhGIQAQiEIEILEAggbwAvG6NQAQiEIEIRCACEYhABCIQgfUhkEBen7qsJBGIQAQiEIEIRCACEYhABCKwAIEE8gLwujUCEYhABCIQgQhEIAIRiEAE1odAAnl96rKSRCACEYhABCIQgQhEIAIRiMACBBLIC8Dr1ghEIAIRiEAEIhCBCEQgAhFYHwIJ5PWpy0oSgQhEIAIRiEAEIhCBCEQgAgsQSCAvAK9bIxCBCEQgAhGIQAQiEIEIRGB9CCSQ16cuK0kEIhCBCEQgAhGIQAQiEIEILEAggbwAvG6NQAQiEIEIRCACEYhABCIQgfUhkEBen7qsJBGIQAQiEIEIRCACEYhABCKwAIEE8gLwujUCEYhABCIQgQhEIAIRiEAE1odAAnl96rKSRCACEYhABCIQgQhEIAIRiMACBBLIC8Dr1ghEIAIRiEAEIhCBCEQgAhFYHwIJ5PWpy0oSgQhEIAIRiEAEIhCBCEQgAgsQSCAvAK9bIxCBCEQgAhGIQAQiEIEIRGB9CCSQ16cuK0kEIhCBCEQgAhGIQAQiEIEILEAggbwAvG6NQAQiEIEIRCACEYhABCIQgfUhkEBen7qsJBGIQAQiEIEIRCACEYhABCKwAIEE8gLwujUCEYhABCIQgQhEIAIRiEAE1odAAnl96rKSRCACEYhABCIQgQhEIAIRiMACBBLIC8Dr1ghEIAIRiEAEIhCBCEQgAhFYHwIJ5PWpy0oSgQhEIAIRiEAEIhCBCEQgAgsQSCAvAK9bIxCBCEQgAhGIQAQiEIEIRGB9CCSQ16cuK0kEIhCBCEQgAhGIwGEI/Pa3v539+te/nvm7nXCyk51sdvKTn3zmr1chAhFYTwIJ5PWs10oVgQhEIAIRiEAEIrAJgV/96lezn//85zN/tyN0ieNTn/rUs1Oc4hQnCeVNou+rCERgnxNIIO/zCiz7EYhABCIQgQhEIAJbJ/DjH/949vWvf332ox/9aFsC+bSnPe3sbGc72+wMZzjDSUJ566l2ZQQisF8IJJD3S02VzwhEIAIRiEAEIhCBhQl87Wtfm73//e+f+budcPazn312sYtdbHa+851vdsYznnGI5O3c37URiMD+IJBA3h/1VC4jEIEIRCACu07gN7/5zViL+Ytf/GL205/+dPazn/1s/P3lL385vve7dZrT2stTnepUM1a0053udLPTn/70s9Oc5jSzU57ylOP37biq7npBNkQ470Ir/1xiVzWvG7LexyNA4HOf+9zsda973czfQwXtSJ/QH/SFY445Znad61xndolLXGJYkvWFQgQisH4EEsjrV6eVKAIRiEAEIrAlAgb+P/nJT2bf+c53Zl/5ylfG66tf/ersu9/97hDKhDOBae0lcXyWs5xldv7zn392gQtcYHahC11odq5znWsIZb8RyKsikrnQfvOb3xwutDZjIujlldVvWj+6JUBdtJYEPvWpT81e/vKXz0444YRDlo8Ltv7w/e9/f6xXvtSlLjW7+93vPrva1a42O8c5zjHa1SEj6McIRGBfEkgg78tqK9MRiEAEIhCB7RMgdr1Yiw36CWNrMYnjL37xi78jkFnOWNBcT/iyFJ/5zGce7qUsaRe+8IWHUD73uc8943pKPLMqu27a6Xf7OdzZHZPFmNhXLmX6whe+MPvBD34w8n6e85xndrnLXW6I+2mTpZ2l1F3rQEDbeOtb3zrayGblMali8og4/shHPjImW7TpK13pSrN73/ves6tf/eqjvbMg6x+uN5nkHm1x2iFbvzEho09od/7OT9C4zmZhrNPin+Ka0nf9vCv3fDrSmtJRBvFOaZmw8vJ5q0Ha8q4cXuL2msIU91SOqZ/73XXbKccU58H+yodnFC7SEya2fpueScqoDuTNtX6bNl9zzzSxJw4eJBt5yPdUb1OZ3TcF17tXOv5O90tfevLkPsHvvp88DrwXtIEpn66Rp4mXvz5juVl9bZaOcrhWvF6FvSGQQN4brsUagQhEIAIRWDkC06DOwP/DH/7w7KMf/eh4EceEJYuZgamB2zQA89dAzeDTANEAzaB9siZf8pKXnLGsXfaylx2C+UxnOtMYLE73HwkIk8X4xBNPHOX65Cc/OfvsZz87870NlS5/+cvPbne72w2R7LMBZuHoJWAi5Vvf+tbwntiMApGjP3zsYx+bvfa1rx1rlc95znPOrnzlK89uf/vbzy596UuPNkTc6FOTF4YJGX1omlzyO+8FE0s299I3fJ7a35QPok6/Epf+p93+8Ic/HP3sohe96JiAkk+/mdT63ve+N373Wb/U19xvgkoa+qbXVl3AJyEmXVzE7/286J36vckw5Zk2KpOv7ZbDPYcKyv7lL395lA035VMfvsfX84moVMbznve8g6m8+l3+5R1LeXaNPKs/fOYDfrxlvJTZZ/cJU92d9axnHXUnH+pOmATulJ7vxO9769rlVb0I8/kUlzxpHybx/PUZS79trK+N6eBgQlIda0PyWNgbAgnkveFarBGIQAQiEIGVIWDQx9ph4GZgxsX0Pe95zxDHhKSBPeuGAaDBmoGagRtBbFBmAO1+g1CDSC+DO9dzubZxERFKLLMsGyyKY7J07DaIyVJkYD6ViVWQyyyLH8E/lUn+rnrVq85udatbzS5zmcuc5BK+23kqvv1PQD8hSohQ65M/+MEPzt7ylrcMAUgUsyBf61rXml3wghcchWU9nESl9vftb3/7pL6hv+g7+giRxsWfuLHBF4HjN+los8SZviJ98RFevnOPNc/asLSIP/nShzcKcf11EsjS0Q+Juq0Iqakc3/jGN0b8lifo476XJ0JMPPItT0QpBsqlHMr98Y9/fPRF5fW8UA59cL4cPE+2Eojjd7/73YODe5SNiNXXvTx7pKF8JhAIds8mv00CFX95lkdLQjyb5J1gFfwu355/Jgzlc4pX3MrlGeZ+/C9+8YsPt3rPRPeqI/n8xCc+MdrMcccdNzh9/vOfH/WK3SSSCXTr1jHjmo8NXsrkuStfyqE880EduIaHj3y6lieMNoTJVJb5e3q/OwQSyLvDsVgiEIEIRCACK0tgGjx++tOfHq6lBv4G5gZfBlkELZFrkHbssceOzxsFskGjAa8B6IkHLLVEtgGiQak4DNpYka93vesNC9tk6TC4NtjczWCAaRAvHyzhk8VY3ggHA1uDUYPaK1zhCsPCbQBrcCqvWV52szbWJy7ChyghQt/2trcNEUOMEjA3utGNxiTQJHCVWn/QB4gX1mYCVtvSV8Tlr89EIwuhvsUKTbARb+6dXL0J0fmJHwLsIhe5yOxOd7rTELvE9Gc+85kxsUUwuV78gjTER7x5L36TQu4navXlQ4WpHJ4Png2Esnimfisd6RFoyuE5wc2ceJWufsjSbmJKWQUcJ7E/lYOnyVaCPv0v//IvQ7i6R5rz8XnmELTK5nf92sSG9NSB8rjed8ohffVHpJoAVB588XzHO94xXO2xn+rLX/UnKJ/7b3CDG4xyKx/xq13Ip83epGXyhGeNOpU3z1wTePJC+F7xilcc4lZ+PaPe+MY3zohpjE1miN/f+eD5rG0R03ZdF/+tb33r8XyVD3kr7A2BBPLecC3WCEQgAhGIwNIJGOh5GTQStO973/tmb3rTm8agi7XEgMtmWwa8LGREssGgAec04J4vhIEda4sBMVHKeiJeg0UDQpYWFq+rXOUqw1rrM7FKlE6D7fn4tvp+XjgYHEtvM4ux+AxGiWPl8WI1JhhY1wzwF8nHVvPbdfuPgH5CNJlk4YWgn2hnrH9EzSSQ5i13+sJ73/veIWD0Ce3UenciTJgEN6FEvGmXN7nJTYY1k7gjpl7zmtcMcU0AE3S+107lxwQPzwdtWn+Trw984ANDdJmAYjl1LRFIwE75JyhZuk1Y6d+soAcL0lEOzwZLLohkApCVWF7mLab6v3KI8+Y3v/noW64hNJ/3vOcNDq7HiIDzfr4cyrOVQLQ+9rGPHfHqv7gpk7Ji6nlGOHqGeVapI4w8a6Qn//LJQvylL31p1MltbnObMTmhfjwD1K1JDfVsQkAc8+zdT6BiY1LE/USuyUT1LN63v/3ts+c///mD+7Wvfe3x/FOHfvdSp9qFPGFGRBPq6sqEAt7K4pl717vedQjo+YkJ7YMl3aQFkazO73GPe4x45tvhVph2zfYIJJC3x6urIxCBCEQgAvuGgIGYASUh+4pXvGL2zne+cwwsDRCJYQKSa/Sx/99qbCBtcD8NujeKSYM+g1KDR4Nxg0SDdpYUFg4DaANrVtub3exmY8BnAEucimtjfFsFKb2tWIwJfaLAgNNA2KBXmQzWsxxvlfbRdx0Bo6+wzGrHRChRQoRc//rXH4KEB4L2RPRN7ZhoeeELXzj6l+8IuWtc4xpDDLmXMCZyXEdMaYfWwrPumrQh4F7/+tfP3vWudw2xpI36TTvWb1hoWT1ZJF/96lfPPvShDw0BTwwef/zxQ0Br39JmqdTP3/CGN4x09WvWavmR1mZhKrf8/eu//uu433Wud9+xB54L8+XQ11m89ec73vGOw4rsWiLwGc94xpgsYE2VP67A7p8vh/dbCW9+85tnf/mXfzmeLbh7nhD8uHg+Ebcs/PLjGWSiz87inmfSdI1nBgH6spe9bIhVz6NrXvOa4xqcWW8JZAJUcL97xaUtEMfif+UrXzl+N1GBieemNuB++VRu16oPAlh9EdGErron9ol5z0sTLfe9733H79L1UveeVQ9+8INH/HiLXzD5aLd15fBslfbd7na38Yybb4fj4v7ZVQIJ5F3FWWQRiEAEIhCB1SEwWXytN54GwNNA3oDTANqgkqidH5httQSTCyBBYbBoQGegbtB805vedAw6WY24qLJIGzRuJRDik4tiFuOtEOuaRQhMSxC0X+2YFZXA4vJ6i1vcYggSQpSFUiCgWAoJnCc+8YljuQJxTBTyoDBBoz8Ri0Q3KzOh5h79Qt9zLQFN0BJ74mLBvMMd7jBE8vwED+vxU5/61CG0iT/raQk+fVe+BP1EPyTYeVe4X//mknswy638KLu0n/zkJ4/7XOu+6173ujPidL4cRP6zn/3sUS7lYDUlxFlZn/KUp4wJOP2fsCcoWVznyzHxGxk+xD+YPPrRjx4Tb/IjHRZczJSXQFZPrL9eBPtd7nKXkWfXu8ZEnnL90z/907DSErAEMtdwDLmDq2fik2AmkNW3uNQvnp6bz3nOc4Y4veENbzjqDRsTHSYF5FO9eM4qL2bKzHNGnNKQTxOTJlwI8Ec+8pFDRFviot5f/OIXj/ge8IAHDJFtEgEndeOeZz7zmcPlH0dxs9ybKCjsLYEE8t7yLfYIRCACEYjA0ggYKNtkyECMJYProUGmgda8pcqAcd61b6sZnlwZDQQN5rhpsogYdBvEc7W2JtmgVRos01sJWYy3QqlrdosASy5xzHqsv2i/hB/LJasgwTO/5IBXhjbq2sc97nFDWBJOvBe09cmCSOQQauK2VpWQ4jJMjHG1FYgsfZO4lc6DHvSgkyyJ+ot09Skux/oZkceSOb8GWDyTpwghTvQR3wS0Y6mUZbMwTQwox9///d+PyS27dBP506ZWLJXKQewTnISwfLCUKgeXcaLY937HRRn/w3/4D+MZQ2BP5Zgso5vlZf47TAhk3KThGWKiAls81BevFet4TQhwNf/TP/3TYe2fXLGJXM+jf/7nfx5WZtZbzzwilqsyqzx3+slVm9Wb8DWB6F48pf9v//Zvo0zqF3dspDcvkD07WYC54U9r1MVDyE+Th+IxEfnnf/7no0zcr9X70572tFFXBLaJE9wnga/eCXzXai/S18bkv7C3BBLIe8u32CMQgQhEIAJHnMBkGTJQZqEwcGXJmjYbMtAyYGSVmB/47zSjrC0GzSxlXLltcmRQbIB+29vedogMomFytd6YThbjjUT6fCQITEsGiB3WUS61XGe5UrPQEse8IQii+UAsEmmE3OMf//jhSkvcTH2Km+58IMQIJeKRgBIvwUcwikP/5O7LwvjHf/zHQ/zO389K+j/+x/8YywzufOc7DyFIhOrP88Fa4Fe96lWjH5oc45JLuBGGmwX5sf5WHghkwvAhD3nIjLV0Enrz9xGcT3rSk4Ylm6AkGlluCW0CWf/3Xvke+tCHHjTd+Tg3ey8/BLLnCBd3+SEQWeYFglFZXcfFmSj+b//tv43rMJ08VTCXL/WLrXyJS9k8s9SLeIhl903iWBo+e6Zhr74JU5MS7peeOKXPgmzy71GPetT4zTPOM1XQRlj/XWfTMc/Av/iLvxiCHyc85Z8rtgmHaULRde4loP3ueX7Pe95zCGgie2P7Gon1z64SSCDvKs4ii0AEIhCBCCyfAOuRAZYBKwsLdz4DN9YJFh+WMVYIA62dWI43lpC1RZrWMlqzJ11Cg0XMLrzEA7dLA0uDUK/5YKDeGuN5Ir0/EgRYdFn5eD/8+7//+xBMJo2IT1ZLrqysipPgmfLEYkrUED4sfCafiEUCjrh2z3yYhKg1v1xoxc/aKIiDUCLUiDgWZEJpPrCUEoyWNLAITxuGSWs+EJQs1QQ3YcZF+o/+6I9+T3BP9ygHESgPhK9Jrf/4H//jEHoE8EaXaBZ2FlnWW0yUWX4Ia0LU794Tog984APH71Na2/krP8pL5HteEaUsvza6EnBQVlwIVM8VwhOX+efLwQSyOlBnXKyt6ya4J2HrfmVTdgKae7TnG88bE4vyslEgm0DZTKBPS1CU5+lPf/pYmz3lEyd1xOLvuUkwez5bY0wEe2Zz8bb2nOv9/e53v2F53o4nznaYd+3vEkgg/y6PPkUgAhGIQAT2PQEDPoM/FgibvBioGZQbeHMRnDa72TjwX7Tg086uNvLhtmkdnjVz05pLAz/fGRwaEBLVLDlEisGwQSErnkG7wbtgoG59J2u0l3Kw6hnQGtBvFNuLlqH715+A9kf0aHfaG4FsUkdb4sKsnxBEB3NlnReW1u6Kh3WRxZb40jbnA0u15QisksSOta7EJfdr4omQm6yc97///YfAnL9/XiDf5z73OUkg6xvzYV4gE10E+8Mf/vCDCuTJ80MelIMotEaWCCT6uEfPB/kkkPHy7CCEbTqFJ4Hsd8H3m5VjPq5DvZcfAtnzhKWd8LUO2XNAYPHFy3XzAlm+58PBBLIJDGVQ9zY28ywSN56eT8qtDqdJEM8pburahjQ2CuRJoG9M/3D5VD7PaG2PUDehiJtJGt/xKjBx4nsWZHmYt5DPl7X3u0sggby7PIstAhGIQAQisHQCBl4sH9Ye2ySGkLTGzQCPlcLA3wB3ckXcrQxPljWDPpZr7pvT2j+DR8Lc4NOANIvxblEvnu0S0P7sKkwcsbgSIUQe4aqdmojZzBI8pTN5PBBof/d3fzcskCaCiF6TN0TwfJh2i9bfiFCCipvv5KZ9OIHMzfcxj3nM2GyKhZHbsX7FFXc+KAdLOAuyCTL97WEPe9hBBTILOiupcjzhCU8Y4osFmSAlFjdawlmIWZot3VBGEwnyY7JhrwTyLW95y1Ennl27JZDV/0tf+tIhkk0mmtSwiRcLvvrxIpBZeLlGe47thUCeLOGely95yUsGbwJZ+1DnrNwsxp7ZN77xjceEx7yFfL7ue7+7BBLIu8uz2CIQgQhEIAJLJ8ASa1MY6ypZklgknJ/JkjsN4PdioDW5WrN+cCk0wDTQtn6PgDAAdY1BaRbjpTeToy4DhKr1nCx7vBQIU+fRsqTaAMrSA0LMcgCWxI3eCdNnbZhI5ilhky5n2drVeVrbT7i6dhLGrMeskL6zrIG49LL7M3F6OIFsout//a//NQSTtbjEnHXFLItTOsqlv/EYYR2VJ8LK7siE+2bB2loijRj727/929E3CTQCnBid1l6LW5n1a5ZmG1uZTLCBFgFLaO+FQFZHnhsmLViQ1YtwOMvsVNaDWZCVebKEs8jiZLdvf00m+s6EiQkB5TWJwCouD/jvlgWZB4G8mMz0vFQfdusm0HngYK7ubKpIoHuOF44MgQTykeFcKhGIQAQiEIEjRsAaQZYPliSDf2sR73rXu44BrY19WEemwf5uZsqg0mDaAN3mMtwGBcLYoNvurAbXXEH9NfA0uDYgNCBn8SKmuYYaDLLiuYcli2DZbYv3bpa9uFafwLQpl8kZ6zsJKG62rHSED4E8CUP9Y2Mf8VkbJKC8xEFYEnKEDME4rbefRNY0IWRNvv5hgoqAJj63KpAJUxbeaZ0yyy1Brr9IR58jtvT7F7zgBWOpgj5FVNlEi0V8s4AHUUbo22yMRZtLMwFOlE2CTNxEKSFn12XXzR+bxMK6FwIZM5ZTFm3PD6JcWFQgy69648Js2Qeezqe2UZYwWdZNMHqOmtAz+WEdtDXRJv224uJ9uHxOEw+EuOclzx9u+tqMdsmybVM27vttzjWq5oj9k0DeIWoPOQ1YJ+Kq4SHju0IEIhCBCERg2QS4QD73uc8dLqQsIkSn81VZQQzuDJ73MhjcOS+VgGAhYS2TByLXIN9AkIWLZY34NfhjvZnWGLOMEfGLrjGexIzyTpvbbCZ89pJFca8OAWKQuNM+X/Oa1wxXYZ8JQUKMQNLuDrY2f1qfatLGPSZ5nFPrOCD9imBlgSbkxMGCTFxao8yrw/1EK0uoOLYqkLmCv+hFLxreIESV+IlGE1/SMQY1HnUdF2uCzm/6+7yw3FgT04QWgWYtL0HqPv2Q4OcGrg+xfiuDCS+bRulDLMdEo+tNOBDOJhzESVzff5O11BvTP9hna665lBOhNktTVlbkYw9MtAmHE57jogP/HMyCrM6dX00gswZPHi4m5vAVP/dm9+NpktHzidXeRIpJRktEWPYPtQZ6q/lk+edirV1qL9z/1aH26LgsAvlQ7XIqb393j0ACeYcsiWP/6Xs4monyYPJdIQIRiEAEIrBsAgaWBplEKPFpoGwNsoGggfnGzXd2O7/cug3oDSAJYv9HTlZrIkXw2eDUYJNFjbXYZ5Y1opllzOB8oxVvO3klHqRjzfW0w7DvxFs4+ggQHdqjNZ92DzaG0xe0D2JEW5za3WZ0TLToP4QaEWiCh/WV5ZYVWdtiAdTntDsCmSu2fmjDJ22cwCJAxTOt/yXE9FnxbiYsCWlWZOkQ2uLlEi7f8k8gW/8vPmUyGcSSLY+uk+5mQTxePDq4mhPYRJ28E/t4mKRSBoJRPghlE1hcklncTQzI07Oe9awhKDExCbBZOTbLw2bf2Tfhr/7qrwYTbs1E8m4KZCLU8Xe4axPKwPpvQsBYXhk8p4zvlc14X7uwi7ZNDk1weC7xlNkNgYwtbx/nHmubBLw8EcaWxuB8qHa5GcO+W4xAAnmH/HQuM+DcL8wcaszTf/o7jLLbIhCBCEQgArtCwP9JrBLTQNpAi0umjX1Yc/daIE8WEQNdVhEDawNP1iUDPQN4g3bC2CBcngzEFxXEG+ER2gaaRMtk2VN2lrzC0UeA1c/kDSFCEBImhKqJGe1RezlU8Du3V6KTcLOemCAVJysscSku7ZnIFIwNCUwv7tUEMmukewkwgogl05iSe7elEHZqnw/Er9/1K+kQ3PqQ/Og3rJ4moYxNiWXpEHJE/1bKJT7i2EtZxKXfyKP+Mm2qRzhKV38iWlmPpW/SwYSDcsiDdDcrx3yZDvWe5wmXcmUm8ifXdXyEiQd2XMpNqtlczKTAfJCf5z//+SexxXW6hrs4izgBjBmrvLbgmen5gC2urMeep9oOHvLjWvWs7g+V/lbzORncPC+f85znjPRYq7l0c3nHu3BkCSSQd8jbg86DxAyUB62HLJeIQgQiEIEIRGDZBAxk/Z9kEGdAZ1A4uZBOYnQv83gwgWzAyfJiAGpgbfA9CdbdFsfKZ0DLKjStMWRBN8Bn6SscfQQmC7L2aRkC4aMteGmPJm8OFViQCUfeCAQMsTyJIPEZCxKTRJb4tHVtXnvXFlkeWQO1Sd/Jj7EkF2Ui1YTR/Hm/U170Z6LVRBOjjHQIN9/rN9Ij8uRPngg4Vmpu4FspF1FL3LOCKwdL9OQViY34lUvfYUU99oClmzgmvqUvX0StcoiLhXmzckzlOdxfO3A7Tx0TaRGI87t2c/meRD0LvskIS0hcMx/kx2ZXE1t5d40yKSthT0Srh6kd+Ou5aZJBeXFwPyu7ulSHysdLwH2HSn+r+aQpTJbw+jExoK6dH889vs255mv0yL1PIO+QtRlBM0fWJnB54XKigRciEIEIRCACyyZAHBtEE58GytYKLsOCbHBqwO3/SIPL6WXATTzIH+HAAuRlgE84+M1r0WDgzELtTFuWO5Y/liGD4MLRR4DwIP68tEmftxOITaKJOCLaCCltmrgkxoiceeE6tWNtjpjkEk14aevClB9Cy3t9QbyunQ/TWmH9Wt6lw6Jp3KkvCdIy+UUUy5+X+LYSpvjlgxAUv7iJw2niSvwsrESmcnivvwrKrPzuJ9r9tlk5tpIX1ygb4YoJFvrwfHmmCQMsiFz1YiLQNfNBfojtia24XON632kDyksAmwAQPJNMgszXk/IR1MS/svldntxzqPQPl0915zU9rz0vuWxjbfdxkwwmU9Rr4cgSSCDvkLcHooeHzuXBqJOYvStEIAIRiEAElk2Ahcw5nwatLEoGj7e97W2HNWJ+YLtX+ZwsyKwrXDYNQFnn/D9pgtn/oYQwixl3TFYdQt6glKglYA0SFw3SMOAlSAzqCYbW8i1Kdf/er/0ROdNru+M2YlGbIgy1Je2UwCEkWQuNBb0XL9GpDWtv7iHKtMX5CZopP4SU964Tr2vnwySkpuulM6WlLwnSkR95m17i20qY4pcPY9tpTCvu+XLIl/6pHNKSpjCV3/2u99tm5dhKXlwjfZZ55Z24KdNUHmlMLAhd9WKywjXzYRKoE1txucb10/3K65mkTQgTu/l6mso3lU35MPD5UOkfLp9+x5jQZ2zjkcrN2jP7QQ960JjYNCGzsT3Ml7H3e0Mggbw3XIs1AhGIQAQisDQC1ik+6UlPmr3vfe8beSA+uexxNWb9MPjby8D687znPW+sr7SO0ACcJcSA2no7g18DS4PtYw+4UBLJ3J+5rrKAGSAStfJpUGxAW4jAfiEwCR/51eb3qv3udTp7Hf+q1CeRSkwLxOgk/PcqfwQ3UW5ShfXYRKb10KzZ3P49E+92t7uNZ+Jetp+9Kt86xJtAXodarAwRiEAEIhCBOQKsEdM5yASpHWnvfve7j11RWW0J070MBPo///M/j513DT6tibzhgWNaCF+7+XJLNCBkOWHJYY3h/mh9HzFvMx2v3TruaS/LWtwR2Ehgssj6nhV5N7whNqbh816ns9fxb1amZXynnCYDBJMZe1VfU9lMEHoOmjwkjr28ly4Xds8+mwryqNnL9jPlp7+/TyCB/PtM+iYCEYhABCKwrwnYmfXlL3/5sOBag8cqe5e73OWkQRfr7F4MvCZXREeWPOUpTxm77hLkjpm63e1uN3bptb7RHh6OSJE3A0VWkyzK+7rJlfkIRGCLBKZdq00UegZarsnV27OSl48lJ9Ou2luMsst2mUACeZeBFl0EIhCBCERg2QRYIxxj4hgUZxFzG7z5zW8+BDJ3ZhvMWEe3266f02Y20n7hC1841h4b7NnxlwWZdYRFmWuha20kRsxbp5xFedmtpvQjEIEjQWDa1Izl+POf//wQx9Y+20DM85LnzJE4beBIlHW/ppFA3q81V74jEIEIRCACByEw7d5KqL7iFa8Ya34dL3PlK195uFlb42bzFyJ5N9wJJ1dM1mDrnglzO7IKdmLlLmijMAO/eWFuk0sDRJt6ZVE+SGX2dQQisFYEWIvt1G3zQn8tMyGILUGZds+29ng3ns1rBe4IFiaBfARhl1QEIhCBCETgSBCwIyvx6WzS5z73uePsVOuOre+9xS1uMc5indYi74artfV73Kud6UqQc7HmRs0iYnMwApn12E6z8+m5x2DRRjVZlI9EyyiNCERg2QQIYjt12xjMX89PE4c8fabdsxPHy62lBPJy+Zd6BCIQgQhEYNcJTILVGcQvetGLhlC29tdRRze+8Y1nV7va1caZwIu6Wk+WY5vO2HDL5lwEsnV13Len3bNZrreye3YW5V1vCkUYgQhEIALbJJBA3iawLo9ABCIQgQisOoFJuFrj9va3v32sR3bGJmuFNW42grne9a43RPIi52xOQtzxJG9605tGOkSy7y9/+csPd+7rXOc6YxftyaX7UOyyKB+KTr9FIAIRiMCRIJBAPhKUSyMCEYhABCKwBALTbqnvfe97Z695zWvGel9ufNYgH3/88eOczQte8IJj7ZtNYqY1yYdz77PRFrHNNdoaOsdKid9mW6zAzjxmqb761a8+u+QlLzl20Rb3ds8XzaK8hEZTkhGIQASOcgIJ5KO8AVT8CEQgAhFYXwLWuFnjaxOs173udcMF2tpga+BsmMUF+lrXutZJO6ee5SxnGSL2cLtb24Xa0UyOKWEx/sAHPjD7yEc+MvvpT3864mU9vtGNbjQEODdu1uOdnC+aRXl922Yli0AEIrCqBBLIq1oz5SsCEYhABCKwSwSm9cEsyTbQsnO0jbyIV2cUX+Yyl5kdd9xxY42yzbxYk1maT3nKU45NtSZXalZjItgu2dMRTcTxF7/4xfG9XVitN/bixn3MMcectOnMbhRlEYvytAZ6J0J9N/JeHBGIQAQisD8IJJD3Rz2VywhEIAIRiMCOCUy7WrP42tma1ZdbNKFLDBPKF7nIRcYRI97b4frsZz/7sPxyi2aJthEXd2pnLDvOyctnu0+zEF/84hefXe5ylxtnHnt/nvOcZ3bGM55xSxbprRZspxZl+TIR4AiVnbh6bzV/XReBCEQgAvufQAJ5/9dhJYhABCIQgQhsiYBzN7lbc4dmTT7hhBNmX//618cRTWc+85lnXKxZWqcX4UsgE6aEsPsJY+7VXLdZYx3dRFzbGZtrtU3AHO90mtOcZttrjrdUiLmLDmdRViZroK9xjWvMbnrTm473jlFhGS9EIAIRiEAENiOQQN6MSt9FIAIRiEAE1pDAtLEWgfvVr351rCFmSbYumcs0K7ENuITJ0mrDLrtiE8nTi/jlTm2zL6KYCOWiTRgTzETokXBlPpxFWXmIfS7fd7zjHcf5z1vZTXsNq74iRSACEYjAFgkkkLcIqssiEIEIRCAC60KAsLTRFpFs5+lPfepTM0c1+Wzna+uMCWXCWCCSvaxLtkaZ+7VNvi52sYsNgXzhC194COadbsa1W1w3WpSd/SzfxPtNbnKTkyzIxH8hAhGIQAQisBmBBPJmVPouAhGIQAQisMYEbLpFAFubzMrquCYu08Qxl2ufiejJmszNmqgkgFlkuS5bXzy5ZRPN85t6LQvdRouychD78k3Ey7tysG4XIhCBCEQgApsRSCBvRqXvIhCBCEQgAkchAYKSqzVLrI255gUyt+oznelMY0Mvf/eD0ORSbgKAJZygV4Yj4fp9FDadihyBCERgbQgkkNemKitIBCIQgQhEIAIRiEAEIhCBCCxCIIG8CL3ujUAEIhCBCEQgAhGIQAQiEIG1IZBAXpuqrCARiEAEIhCBCEQgAhGIQAQisAiBBPIi9Lo3AhGIQAQiEIEIRCACEYhABNaGQAJ5baqygkQgAhGIQAQiEIEIRCACEYjAIgQSyIvQ694IRCACEYhABCIQgQhEIAIRWBsCCeS1qcoKEoEIRCACEYhABCIQgQhEIAKLEEggL0KveyMQgQhEIAIRiEAEIhCBCERgbQgkkNemKitIBCIQgQhEIAIRiEAEIhCBCCxCIIG8CL3ujUAEIhCBCEQgAhGIQAQiEIG1IZBAXpuqrCARiEAEIhCBCEQgAhGIQAQisAiBBPIi9Lo3AhGIQAQiEIEIRCACEYhABNaGQAJ5baqygkQgAhGIQAQiEIEIRCACEYjAIgQSyIvQ694IRCACEYhABCIQgQhEIAIRWBsCCeS1qcoKEoEIRCACEYhABCIQgQhEIAKLEEggL0KveyMQgQhEIAIRiEAEIhCBCERgbQgkkNemKitIBCIQgQhEIAIRiEAEIhCBCCxCIIG8CL3ujUAEIhCBCEQgAhGIQAQiEIG1IZBAXpuqrCARiEAEIhCBCEQgAhGIQAQisAiBBPIi9Lo3AhGIQAQiEIEIRCACEYhABNaGQAJ5baqygkQgAhGIQAQiEIEIRCACEYjAIgQSyIvQ694IRCACEYhABCIQgQhEIAIRWBsCCeS1qcoKEoEIRCACEYhABCIQgQhEIAKLEEggL0KveyMQgQhEIAIRiEAEIhCBCERgbQgkkNemKitIBCIQgQhEIAIRiEAEIhCBCCxCIIG8CL3ujUAEIhCBCEQgAhGIQAQiEIG1IZBAXpuqrCARiEAEIhCBCEQgAhGIQAQisAiBBPIi9Lo3AhGIQAQi8P/ar0MiAAAABGL9WxMC97cACIaCAAECBAgQIJARcJAzUypCgAABAgQIECBAgAABAo+Ag/zoyRIgQIAAAQIECBAgQIBARsBBzkypCAECBAgQIECAAAECBAg8Ag7yoydLgAABAgQIECBAgAABAhkBBzkzpSIECBAgQIAAAQIECBAg8Ag4yI+eLAECBAgQIECAAAECBAhkBBzkzJSKECBAgAABAgQIECBAgMAj4CA/erIECBAgQIAAAQIECBAgkBFwkDNTKkKAAAECBAgQIECAAAECj4CD/OjJEiBAgAABAgQIECBAgEBGwEHOTKkIAQIECBAgQIAAAQIECDwCDvKjJ0uAAAECBAgQIECAAAECGQEHOTOlIgQIECBAgAABAgQIECDwCDjIj54sAQIECBAgQIAAAQIECGQEHOTMlIoQIECAAAECBAgQIECAwCPgID96sgQIECBAgAABAgQIECCQEXCQM1MqQoAAAQIECBAgQIAAAQKPgIP86MkSIECAAAECBAgQIECAQEbAQc5MqQgBAgQIECBAgAABAgQIPAIO8qMnS4AAAQIECBAgQIAAAQIZAQc5M6UiBAgQIECAAAECBAgQIPAIOMiPniwBAgQIECBAgAABAgQIZAQc5MyUihAgQIAAAQIECBAgQIDAI+AgP3qyBAgQIECAAAECBAgQIJARcJAzUypCgAABAgQIECBAgAABAo+Ag/zoyRIgQIAAAQIECBAgQIBARsBBzkypCAECBAgQIECAAAECBAg8Ag7yoydLgAABAgQIECBAgAABAhkBBzkzpSIECBAgQIAAAQIECBAg8Ag4yI+eLAECBAgQIECAAAECBAhkBBzkzJSKECBAgAABAgQIECBAgMAj4CA/erIECBAgQIAAAQIECBAgkBFwkDNTKkKAAAECBAgQIECAAAECj4CD/OjJEiBAgAABAgQIECBAgEBGwEHOTKkIAQIECBAgQIAAAQIECDwCDvKjJ0uAAAECBAgQIECAAAECGQEHOTOlIgQIECBAgAABAgQIECDwCDjIj54sAQIECBAgQIAAAQIECGQEBr90lE1nwKtMAAAAAElFTkSuQmCC;" parent="1" vertex="1">
          <mxGeometry x="170" y="760" width="464.11" height="350" as="geometry" />
        </mxCell>
      </root>
    </mxGraphModel>
  </diagram>
</mxfile>
